<?xml version="1.0" standalone="no"?>
<!DOCTYPE svg PUBLIC "-//W3C//DTD SVG 1.1//EN" "http://www.w3.org/Graphics/SVG/1.1/DTD/svg11.dtd" >
<svg xmlns="http://www.w3.org/2000/svg" xmlns:xlink="http://www.w3.org/1999/xlink" version="1.1">
<metadata>
Created by FontForge 20201107 at Mon Jan 13 19:58:25 2020
 By 
Rockybilly (c) Letterara 2020. All Rights Reserved
</metadata>
<defs>
<font id="Rockybilly" horiz-adv-x="1226" >
  <font-face 
    font-family="Rockybilly"
    font-weight="400"
    font-stretch="normal"
    units-per-em="2048"
    panose-1="2 0 5 0 0 0 0 0 0 0"
    ascent="1638"
    descent="-410"
    x-height="1620"
    cap-height="4649"
    bbox="-1816 -3254 14393 5796"
    underline-thickness="150"
    underline-position="-292"
    unicode-range="U+001D-E103"
  />
<missing-glyph horiz-adv-x="1024" 
d="M100 0v1434h824v-1434h-824zM150 50q177 80 358 80t366 -80v1334q-192 -59 -373 -59t-351 59v-1334zM419 334l57 58q11 10 20 10q10 0 22 -11l56 -60q9 -11 9 -20q0 -11 -10 -22l-56 -62q-14 -14 -21 -14q-11 0 -20 10l-61 71q-7 9 -7 18q0 10 11 22zM413 1191
q53 30 112 30q92 0 148 -47.5t56 -127.5q0 -49 -23 -98.5t-87 -129.5q-63 -80 -99 -132t-36 -99q0 -38 24 -133h-32q-35 97 -35 148q0 76 81.5 218t81.5 217q0 57 -33 90t-91 33q-8 0 -16 -1l32 -51q5 -9 5 -17v-4q-2 -11 -14 -20l-66 -50q-16 -10 -23 -10h-1q-10 2 -17 14
l-47 81q-4 7 -4 14q0 2 1 5q1 10 28.5 32.5t54.5 37.5z" />
    <glyph glyph-name="k.swsh" unicode="k__" horiz-adv-x="1343" 
d="M-211 -1456q-6 0 -6 19l1 20q19 114 30 230q5 57 5 85q0 17 -3 17t-10 -20q-5 -13 -11.5 -45t-11 -66.5t-10.5 -59.5t-10 -28t-7 -3q-18 0 -18 66q0 26 4 59t4 54q0 37 -17 53t-17 63l1 27q18 234 18 286q0 20 -3 20t-13 -40q-9 -35 -19 -83q-29 -140 -40 -140
q-8 0 -8 51q0 98 78 509q44 235 127 646q91 449 122 619q27 153 27 197q0 29 -7 48q-15 40 -15 88q0 110 77 258q28 55 49 114q53 149 304 1347q81 385 144 648l95 403q150 633 179 633q1 0 2.5 -2t3.5 -2q8 0 15 32q12 45 22 45q5 0 5 -14q-1 -15 -7 -37q-6 -27 -6 -45
q0 -29 10 -29q6 0 14 12q5 8 8 8q4 0 4 -13q0 -33 -20 -116q-11 -49 -11 -69q0 -7 2 -7h1q14 14 36 116q25 110 35 110q1 0 1 -5q0 -12 -7 -51q-21 -106 -22.5 -147.5t-1.5 -55.5q0 -58 11 -123q16 -101 16 -162l-1 -26q0 -37 7.5 -37t7.5 -14q0 -22 -17 -106
q-6 -31 -72 -319q-74 -316 -87 -389q-7 -46 -29 -130q-12 -44 -122 -554q-82 -392 -110 -510l-1 -5q0 -4 4 -4q28 0 338 278q368 331 497 505q50 69 68.5 79.5t23.5 10.5q9 0 9 -15q0 -7 -3.5 -20.5t-3.5 -20.5q0 -9 7 -9q5 0 12 3q11 5 17 5q5 0 5 -5q0 -8 -28 -64
q-19 -34 -19 -46q0 -4 2 -4q5 0 22 24q12 18 24 40q21 38 26 38q2 0 2 -4q0 -17 -28.5 -84t-33.5 -141q-2 -67 -18 -101q-10 -19 -10 -38q0 -6 1 -10v-1q0 -27 -158.5 -179t-427.5 -381q-72 -61 -156.5 -137t-143.5 -133q-64 -61 -94 -93.5t-41.5 -60.5t-21 -71.5
t-13.5 -67.5t-4 -32q0 -4 2 -5t9 -1q60 0 283 64q104 30 164.5 55t134.5 45q81 22 160 60q89 42 106.5 42t98.5 37q65 29 85 29q5 0 5 -5q0 -3 -7 -3t-19 -6t-24 -16q-18 -13 -18 -16h2q10 0 69 26q23 10 41 19q48 24 62 24q5 0 5 -4q0 -14 -66 -57q-107 -67 -107 -75
q0 -1 2 -1q9 0 52 19q70 29 83 29q8 0 8 -6q0 -12 -22 -36q-16 -17 -36 -29q-16 -8 -27.5 -22t-13.5 -27q-7 -32 -94 -89t-89 -67q0 -2 5 -2q15 0 66 20q68 26 87 26q7 0 7 -4q0 -6 -22 -25q-75 -59 -259 -129.5t-387 -124.5t-338 -62l-6 -1q-37 0 -55 -10.5t-29.5 -57
t-29.5 -152.5q-16 -115 -105 -555q-26 -122 -59 -310q-38 -201 -65 -309q-34 -141 -42 -209q-14 -89 -45 -230q-37 -170 -43 -194t-16 -24l-4 1q-13 0 -28 -89q-42 -234 -61 -234zM28 1150l1 58q0 57 -11 57q-5 0 -7.5 -14.5t-2.5 -26.5v-16q0 -39 8.5 -48.5t11.5 -9.5z
M27 1308q7 0 23 47q7 23 7 31q0 3 -1 3q-5 0 -15 -21q-17 -37 -17 -54q0 -6 3 -6zM199 1756q3 0 11 8.5t10.5 14t2.5 7.5q0 6 -5 6q-3 0 -7 -4t-8.5 -15t-4.5 -15q0 -2 1 -2zM232 1857q9 0 26 92q4 23 4 33q0 8 -3 8q-7 0 -17 -39q-13 -52 -13 -85q0 -9 3 -9z" />
    <glyph glyph-name="z.swsh" unicode="z__" horiz-adv-x="941" 
d="M-985 -2994q-27 0 -46 6q-33 15 -67.5 53t-47.5 74q-15 49 -15 115q0 67 15 131q28 100 123.5 315.5t183.5 375.5q211 374 232.5 407.5t90.5 155.5q61 109 61 114t-141 48q-303 93 -303 256q0 122 394 783q966 1613 1110 1904q89 179 89 201q0 11 -10 11t-100 -65.5
t-196 -147.5t-174 -140q-83 -72 -93 -72q-2 0 -2 1q0 4 7 14q14 20 14 24q0 1 -1 1q-6 0 -49 -43q-64 -60 -73 -60q-2 0 -2 2q0 10 68 82q80 85 80 98q0 2 -2 2q-10 0 -62 -38l-3 -2v1q0 4 117.5 120.5t117.5 123.5q-13 0 -190 -160q-25 -23 -74 -65q-24 -21 -31 -21
q0 5 193 194.5t254 242.5q38 35 44.5 60t20.5 25l6 -1q10 0 10 10l-1 6q0 17 26 21q32 8 57 33q67 55 131.5 64t87.5 9q65 0 98 -30q20 -22 34 -22q2 0 4.5 1.5t6.5 1.5q13 0 22 -32q10 -39 10 -104q0 -66 -12 -135q-22 -102 -177.5 -401.5t-398.5 -705.5
q-73 -128 -103 -184q-53 -102 -140 -231q-66 -100 -156 -248l-103 -175q-506 -848 -506 -887q0 -6 24 -17.5t59 -21.5t74 -21q88 -26 95 -26q23 0 54 34q41 47 213 304q103 157 283 404q124 171 213.5 282.5t105.5 113.5q7 0 44 36.5t85 92.5q196 229 294 283q14 9 18 9
q2 0 2 -1q0 -11 -100 -110q-60 -61 -149.5 -168.5t-162 -203t-72.5 -108.5q7 0 90 104q44 54 132 151q118 130 125 130l-5 -9q-11 -13 -11 -35q0 -18 -55 -87q-155 -191 -155 -225q0 -6 6 -6q10 0 25.5 20t19.5 20q1 0 1 -1q0 -9 -83 -137q-33 -51 -63 -93
q-44 -66 -104 -166q-95 -156 -131 -211q-43 -67 -43 -74q0 -1 1 -1q9 0 92 119q116 169 256 335q8 9 10 9l1 -1q0 -15 -145 -243q-86 -135 -205 -315q-263 -403 -263 -407q0 -8 64 -66t112 -155q31 -60 38.5 -96.5t7.5 -96.5v-41q0 -163 -69 -319q-71 -161 -246 -384
q-109 -139 -275.5 -310.5t-272.5 -254.5q-80 -61 -164 -105q-101 -48 -200 -48zM-782 -2565q16 0 205 191q481 491 506 778q3 28 3 48q0 21 -3 34q-8 43 -55 93q-14 15 -21 18q-18 -3 -108.5 -147.5t-204.5 -346.5q-178 -314 -292 -559q-38 -81 -38 -100q0 -9 7 -9h1z
M-625 -2479q7 0 28 26q12 15 12 17v1q-3 0 -18 -13q-25 -18 -25 -25q0 -6 3 -6zM-508 -2357q3 0 78 77q133 138 133 151q0 2 -1 2q-10 0 -60 -58l-133 -151q-17 -20 -17 -21zM-243 -2048q3 0 31 30q45 50 45 63q0 2 -1 2q-6 0 -31 -30q-45 -60 -45 -65h1zM-54 -1420l1 2
q0 11 -34 45l-41 39q46 -64 57.5 -75t15.5 -11h1zM-449 -1196q20 0 20 5q0 6 -13 7q-8 0 -15.5 -3t-7.5 -5q0 -3 16 -4zM159 -1211q-5 0 -103 108q92 -85 99.5 -94t7.5 -12q0 -2 -4 -2zM570 190q-2 0 -2 2q2 17 66 87q37 40 41 40h1q0 -7 -55 -76q-42 -53 -51 -53zM901 415
q-3 0 -3 6q0 5 25 25q16 13 18 13l1 -1q0 -2 -13 -17q-21 -26 -28 -26zM480 2071q-9 0 -9 9q0 2 3 7t7.5 9t7.5 4q6 0 6 -14q0 -6 -4.5 -10.5t-10.5 -4.5z" />
    <glyph glyph-name=".notdef" horiz-adv-x="1024" 
d="M100 0v1434h824v-1434h-824zM150 50q177 80 358 80t366 -80v1334q-192 -59 -373 -59t-351 59v-1334zM419 334l57 58q11 10 20 10q10 0 22 -11l56 -60q9 -11 9 -20q0 -11 -10 -22l-56 -62q-14 -14 -21 -14q-11 0 -20 10l-61 71q-7 9 -7 18q0 10 11 22zM413 1191
q53 30 112 30q92 0 148 -47.5t56 -127.5q0 -49 -23 -98.5t-87 -129.5q-63 -80 -99 -132t-36 -99q0 -38 24 -133h-32q-35 97 -35 148q0 76 81.5 218t81.5 217q0 57 -33 90t-91 33q-8 0 -16 -1l32 -51q5 -9 5 -17v-4q-2 -11 -14 -20l-66 -50q-16 -10 -23 -10h-1q-10 2 -17 14
l-47 81q-4 7 -4 14q0 2 1 5q1 10 28.5 32.5t54.5 37.5z" />
    <glyph glyph-name="uni0000" horiz-adv-x="0" 
 />
    <glyph glyph-name="uni0000" horiz-adv-x="0" 
 />
    <glyph glyph-name="nonmarkingreturn" horiz-adv-x="682" 
 />
    <glyph glyph-name="space" unicode=" " horiz-adv-x="695" 
 />
    <glyph glyph-name="space" unicode="&#xa0;" horiz-adv-x="695" 
 />
    <glyph glyph-name="exclam" unicode="!" horiz-adv-x="1697" 
d="M401 -423q-22 0 -22 8q0 2 2 5t2 5q0 10 -11.5 14.5t-11.5 6.5q0 3 11 3q7 0 12.5 8t5.5 18.5t5 23.5t14 22.5t9 12.5q0 2 -3 2q-4 0 -12 -3.5t-12 -3.5q-5 0 -5 4q0 6 12 29t13 44q0 21 -10 53q-13 47 -13 84v11q0 24 -19 35q-8 5 -16 5q-12 0 -25 -11q-9 -9 -9 -27
q0 -17 9 -50.5t9 -48.5q0 -18 -12 -25t-12 -26q0 -6 1.5 -12.5t1.5 -12.5q0 -16 -17 -16q-22 0 -36 -24q-10 -18 -35 -18q-14 0 -87 12q58 -63 58 -66q0 -5 -22 -5q-31 0 -75 39.5t-68 88.5q-23 55 -23 160q0 237 213 333q62 26 123 26q70 0 139 -34q130 -63 184 -208
q20 -63 20 -122q0 -72 -29 -140q-53 -124 -181 -181q-47 -19 -78 -19zM176 184q4 0 9.5 3.5t20 9.5t31.5 13t25.5 12.5t8.5 8.5q-1 3 -6 3q-14 0 -47 -15q-45 -22 -45 -32q0 -3 3 -3zM467 197q5 0 5 2q0 3 -10.5 10t-22.5 10.5t-21 3.5t-9 -3t16 -10q31 -13 42 -13zM639 369
q-3 0 -3 5q0 7 5 23q12 38 22.5 77.5t15.5 63t5 29.5q0 3 -1 3q-6 0 -36 -60q-24 -43 -38 -43q-13 0 -13 25q0 15 5 39q2 12 2 21q0 24 -12 32q-10 5 -10.5 18t-0.5 15q0 24 7 70q11 70 11 91q0 5 -1 6q-7 0 -37 -58q-24 -45 -33 -45q-6 0 -6 20q0 75 100 305
q48 108 222 536q165 409 244 590q96 224 166 399q86 214 99 237q18 33 81 182q77 189 103 223q20 27 39 27q8 0 8 -10q0 -6 -2.5 -14.5t-2.5 -14.5q0 -17 15.5 -23t15.5 -31q0 -10 -3 -23q-4 -20 -4 -27q0 -3 1 -3q2 0 51 101q-11 -112 -11 -131q0 -47 10 -68
q15 -34 24.5 -83t9.5 -78q0 -30 -69 -185q-63 -148 -63 -163q0 -20 -22 -54q-31 -55 -284 -680q-104 -255 -179 -445q-32 -84 -85 -211q-32 -73 -56 -149q-17 -62 -40.5 -90.5t-43.5 -90.5q-42 -119 -84 -186q-18 -28 -25 -28q-2 0 -3 1.5t-3 1.5q-12 0 -32 -52
q-15 -38 -32 -64q-20 -31 -27 -31zM896 1582q5 0 18 25q21 35 21 50q0 3 -1 3q-6 0 -20 -25q-20 -37 -20 -50q0 -3 2 -3zM943 1683q3 0 8 3.5t9.5 10t4.5 12.5q0 8 -7 8q-3 0 -8.5 -3t-9.5 -10t-4 -13q0 -8 7 -8zM1027 1867q3 0 11 8.5t10 13.5t2 8q0 6 -5 6q-2 0 -6 -4
t-8.5 -15t-4.5 -15q0 -2 1 -2zM1055 1927q11 0 20 18q15 28 15 46q0 3 -2 3q-3 0 -16 -19q-20 -28 -20 -43q0 -5 3 -5z" />
    <glyph glyph-name="quotedbl" unicode="&#x22;" horiz-adv-x="918" 
d="M247 1779q-15 0 -22.5 15.5t-24.5 15.5q-4 0 -7.5 -1t-6.5 -1q-25 0 -71 41q-41 38 -60 38q-3 0 -6 -3t-9 -3q-10 0 -20 11.5t-10 28.5q0 19 14 63q45 150 59 199q73 249 92 258q3 1 8 1q22 0 60 -21q18 -11 19 -17t9 -6q5 0 9.5 1.5t7.5 1.5q18 0 32 -16
q18 -22 34.5 -22t51.5 -35l33 -36q-56 -173 -83 -297q-27 -120 -45 -160q-26 -56 -64 -56zM710 1777q-14 0 -20.5 15.5t-20.5 15.5q-4 0 -7.5 -1t-7.5 -1q-17 0 -31 16q-20 22 -38 22t-35 31q-11 21 -19 21q-5 0 -9 -8q-8 -11 -17 -11q-5 0 -11 3q-15 9 -15 31q0 45 108 387
q44 142 65 142q22 0 59 -15q27 -12 27 -21t6 -9q3 0 6 2t6 2q13 0 25 -15q17 -20 33.5 -22t55.5 -32l38 -32q-59 -198 -76 -267q-62 -244 -79 -244q-10 0 -34 -8q-4 -2 -9 -2z" />
    <glyph glyph-name="numbersign" unicode="#" horiz-adv-x="3365" 
d="M355 -811q-2 0 -2 4q0 9 29 127q24 90 24 117q0 6 -3 6q-5 0 -15 -26q-7 -24 -31 -83q-17 -37 -27 -37q-11 0 -11 29q0 22 9.5 60t9.5 53q-1 15 -13 21t-12 41q0 53 33 219l1 5l-1 2q-7 0 -42 -71q-37 -77 -47 -77q-4 0 -4 13q0 50 55 222q23 74 47 134q25 68 25 79
q0 1 -0.5 2t-3.5 1q-22 0 -81 -16q-183 -49 -237 -49q-26 0 -33 9q-9 8 -9 14q0 7 15 12.5t15 21.5q0 4 -1 8t-1 7q0 18 39 35q27 13 27 18q0 3 -11 3q-19 0 -59 -13q-23 -9 -28 -9q-2 0 -2 1q0 3 18 16q28 21 43 21q9 0 35.5 19.5t50 42t23.5 29.5q0 11 57 68
q32 35 66.5 52t100.5 33q108 28 115 33q11 21 123 328q271 740 271 767q0 2 -1 2.5t-3 0.5q-28 0 -146 -31q-61 -15 -108 -27t-58 -14q-276 -67 -314 -78q-25 -7 -35 -7q-7 0 -7 7l3 13q0 7 -12 7q-5 0 -14 -2q-15 -4 -21 -4q-2 0 -2 1q0 3 21 15t28.5 18t7.5 10q0 5 -13 12
q-6 3 -6 7q0 10 39 24q52 19 52 30q0 3 -8 3q-17 0 -54 -11q-24 -7 -38 -16q-5 -2 -9 -2q-6 0 -6 6q0 12 48 29q54 21 104 69q20 20 20 31.5t43.5 47t43.5 50.5t54 34q107 33 321 86q91 22 135 31q67 11 80 24q10 8 200 530q84 233 254 674q87 225 98 239q4 6 6 6t3 -6t4 -6
q6 0 19 23t16 23q1 0 1 -4q0 -9 -5 -41q-4 -25 -4 -37q0 -13 8 -13q3 0 8.5 2.5t8.5 2.5q7 0 7 -10q0 -13 -7 -42q-8 -39 -8 -54q0 -10 3 -10q7 0 22 48q23 65 29 65q1 0 1 -6q0 -13 -9 -60q-12 -55 -12 -107q0 -16 1 -28q26 -212 26 -257q0 -14 -37 -115
q-158 -436 -187 -503q-26 -65 -44 -115q-18 -56 -33 -76q-9 -12 -9 -18q0 -8 14 -8q18 0 60 14q50 17 351 95q276 70 382.5 103t106.5 46q2 9 16.5 70t34 144.5t36.5 137t23 53.5q3 -3 6 -3q7 0 7 10q0 15 14 15q8 0 8 -10q0 -5 -2 -10t-2 -9q0 -16 16 -23q23 -10 24 -54v-6
q0 -27 6 -27q3 0 8.5 9.5t10 26t5.5 31.5q1 7 2 7q4 0 11 -53q4 -35 14 -65t20.5 -41t19.5 -29t12.5 -35.5t11.5 -31t15 -16.5t19 -3q75 0 262 52q94 26 151.5 35t86.5 16q12 4 17 4q2 0 2 -1q0 -3 -11 -11t-11 -11q0 -2 5 -2q8 0 26 4q42 9 159 23l-65 -30
q-28 -12 -58.5 -26.5t-50.5 -24.5l-42 -21q20 4 38.5 7.5t39.5 8t35.5 8.5t22.5 4q9 0 9 -7q0 -17 -19 -33q-13 -11 -28 -17q-35 -15 -47 -45.5t-103 -77.5q-69 -36 -69 -45q0 -3 6 -3q15 0 64 14q26 6 44 6q19 0 19 -8q0 -16 -85 -48q-95 -36 -264 -78l-208 -52l-18 -54
q-21 -61 -157 -726q-48 -231 -59 -268q-3 -7 -3 -12q0 -9 11 -9q9 0 26 3.5t49 9.5t63.5 11.5t75.5 15.5t80 20.5t91 18.5t103.5 10t84 5t41.5 6t12 3q13 0 21 -5q3 -2 3 -4q0 -13 -80 -42t-80 -39q0 -2 6 -2q14 0 58 12q21 5 35 5q26 0 26 -16q0 -19 -50 -37
q-14 -5 -27.5 -18t-19.5 -28q-14 -35 -93 -71.5t-79 -41.5q0 -2 12 -2q21 0 60 5q30 3 51 3q21 -1 21 -5q0 -30 -338 -116l-231 -58q-23 -118 -32 -153t-16 -52q-16 -41 -25 -97q-11 -66 -31.5 -124.5t-40 -79t-21.5 -53.5q0 -30 -22 -67q-10 -19 -14 -19q-3 0 -3 11
q0 18 5 71q4 39 4 62q0 29 -7 29q-2 0 -4 -2q-7 -4 -11.5 -16t-4.5 -25.5t-3.5 -28t-9 -24t-10.5 -9.5q-11 0 -17 43q-3 17 -3 31.5t-5.5 24.5t-14.5 10q-15 0 -28 78q-7 38 -7 65q0 22 5 31q2 4 2 6q0 7 -9 7q-6 0 -10.5 -6t-4.5 -14.5t-4.5 -26t-11.5 -34.5
q-10 -28 -17 -28q-13 0 -13 67q0 93 24 190q4 17 4 28q-1 11 -6 11q-14 0 -149 -35q-59 -16 -417 -102q-547 -129 -584 -156q-30 -23 -56 -111q-28 -92 -67 -171q-42 -91 -60 -152t-58 -152q-37 -83 -53 -132q-19 -54 -27 -54q-1 0 -1 4q0 7 5 28q5 16 5 21q0 1 -1 1
q-7 0 -37 -65q-11 -25 -18 -46q-19 -57 -43 -89q-9 -11 -11 -11zM1382 326q28 0 51 14q14 8 14 11q0 2 -8 2q-23 0 -57 -13q-21 -9 -21 -11q0 -3 21 -3zM1681 386q4 0 15 4.5t15 8.5t4 7q0 5 -6 5q-9 0 -19.5 -10.5t-10.5 -13.5q0 -1 2 -1zM1745 402q18 0 58 13q19 6 19 9
q0 2 -9 2q-21 0 -42 -6q-30 -9 -30 -17q0 -1 4 -1zM915 484q30 0 225 51q111 29 509 130q311 78 340 91q13 6 24 21.5t15 32.5q62 315 155 717q65 287 65 304v1h-2q-14 0 -186.5 -46t-474.5 -122q-275 -68 -290 -75q-12 -23 -230 -623l-61 -167q-84 -229 -93.5 -260
t-9.5 -42q0 -13 14 -13zM755 923q28 51 37 72t22 72q-28 -51 -37 -72t-22 -72zM2113 1032q4 0 20 45q4 11 4 16t-5 5q-11 0 -18 -18q-4 -11 -4 -30q0 -18 3 -18zM816 1076q3 0 10.5 11t11.5 21t4 16q0 5 -2 5q-3 0 -10.5 -10.5t-11.5 -21t-4 -16.5q0 -5 2 -5zM2128 1119
q3 0 13.5 10.5t10.5 19.5q0 6 -5 6q-3 0 -7 -4t-8.5 -15t-4.5 -15q0 -2 1 -2zM917 1334q6 0 25 42q11 23 11 26v1q-2 0 -16 -19q-23 -28 -23 -42q0 -8 3 -8zM2201 1362q2 0 6 8.5t6.5 19t2.5 17.5q0 13 -7 13q-13 0 -13 -29t5 -29zM956 1427q30 52 33.5 61.5t3.5 12.5
q0 7 -6 7q-10 0 -21 -45zM1634 1722q22 0 43 14q15 9 15 12q0 2 -15 2q-20 0 -43 -14q-14 -8 -14 -11t14 -3zM1957 1795q20 0 20 5q0 2 -2.5 4t-7.5 2h-7q-6 0 -12.5 -2.5t-6.5 -4.5q0 -3 16 -4zM2002 1810q22 0 45 5q14 2 69 19l-36 1q-35 0 -64 -12q-22 -8 -22 -11
q0 -2 8 -2z" />
    <glyph glyph-name="dollar" unicode="$" horiz-adv-x="2761" 
d="M269 -1118q-2 0 -2 6q0 3 51 149q45 121 45 145v2q-10 0 -47 -83q-32 -72 -44 -72t-12 27q0 26 15.5 73.5t15.5 68.5q0 14 -6.5 17.5t-8.5 14.5t-2 18q0 10 9 68l-45 -15q-28 -9 -54 -9q-47 0 -90 28q-67 42 -81 123q-3 12 -3 25q0 62 64 155q77 111 311 360
q183 194 212 259l63 141q216 486 377 857q117 266 216 480q90 191 90 212q0 1 -1 1.5t-6 0.5q-17 0 -69 -11q-262 -50 -532 -169q-105 -47 -148 -52.5t-61 -5.5q-48 0 -94 18q-108 43 -108 147q0 125 151 314q143 173 433 452.5t526 472.5q134 107 302.5 222.5t260.5 164.5
q33 15 52.5 32t41 56.5t59.5 121.5q73 157 87 157l1 -1q2 -6 6 -6q6 0 18.5 21t14.5 21q1 0 1 -5q0 -11 -5 -46q-5 -31 -5 -43q0 -11 5 -11t15 9.5t14 9.5q3 0 3 -5q-1 -10 -21 -61q-24 -64 -24 -78q0 -4 2 -4q3 0 12.5 17.5t21.5 44t21 50.5t9 32.5t4 8.5q7 0 7 -9
q0 -24 -15 -65q-21 -60 -30 -97l-8 -36l164 7q34 0 57 -4q38 -6 85 -29q109 -52 147 -133q9 -20 11.5 -50.5t2.5 -92.5q0 -63 -3 -97q-9 -82 -133 -303q-64 -114 -169 -247q-114 -146 -130 -146l-4 1q-11 0 -39 -24q-20 -20 -30 -20q-3 0 -3 3q0 14 30 42q40 38 59 85
q8 18 8 25q0 8 -5 8q-10 0 -35 -27q-5 -5 -6 -5q0 7 52 85q118 178 118 188q0 2 -1 2q-10 0 -75 -93q-45 -67 -102 -133q-21 -24 -24 -24v1q0 6 42 67q86 128 132.5 235t46.5 159q0 8 -1.5 16t-1.5 16q0 22 9 28q13 11 13 79q0 36 -8 61q-4 12 -19.5 14.5t-34.5 2.5
q-95 0 -137 -22q-31 -16 -38 -55q-9 -36 -129 -301q-119 -256 -131 -293q-17 -46 -103 -224l-91 -190l78 -78q122 -120 122 -296q0 -183 -135 -449q-107 -209 -305 -496t-353 -462q-59 -65 -106 -122q-34 -44 -96 -115q-195 -228 -195 -242v-1q0 -11 -116 -248
q-118 -241 -118 -253t-95 -200q-40 -78 -62.5 -119.5t-23.5 -41.5v1q14 39 14 46q0 1 -1 1q-5 0 -54 -100q-80 -156 -93 -156zM187 -667q20 0 30 13v2q0 13 -35 13q-43 0 -72.5 28t-29.5 69q0 57 57 138q46 66 46 79q0 2 -1 2q-15 0 -73 -90t-58 -112q0 -27 14 -62
q12 -29 44 -51q42 -29 78 -29zM263 -639q14 0 33 21q14 18 14 25q0 4 -5 4q-9 0 -30 -22q-16 -17 -16 -24q0 -4 4 -4zM945 946q6 0 50.5 89.5t44.5 103.5v2q-6 0 -50.5 -88t-44.5 -107zM1312 1074q6 0 76 105q144 214 224.5 388t80.5 272q0 63 -11 63q-9 0 -117 -245
l-94 -214q-130 -293 -139 -315q-20 -48 -20 -53v-1zM1048 1161q5 0 24 43q12 22 12 26l-1 1q-2 0 -16 -19q-22 -29 -22 -42q0 -9 3 -9zM1191 1462q5 0 32 55q18 36 18 44q0 2 -1 2q-7 0 -29 -41.5t-22 -53.5q0 -6 2 -6zM1263 1615q7 0 28 40q23 44 23 58q0 5 -3 5
q-7 0 -27 -37q-23 -42 -23 -63q0 -3 2 -3zM1721 1737q7 0 11 39q3 27 3 61q-2 63 -5 63q-5 0 -12 -96q-2 -22 -2 -37q0 -30 5 -30zM1325 1737q6 3 13 22q3 7 3 11t-3 4q-2 0 -6.5 -3t-9 -9.5t-4.5 -11.5q0 -13 5 -13h2zM561 1765q34 0 66.5 5.5t32.5 13.5q0 3 -12 3
q-23 0 -83 -10q-24 -5 -24 -9q0 -3 20 -3zM705 1796q17 0 165 58q169 65 169 74q0 1 -2 1q-15 0 -116 -36q-133 -47 -179 -71q-39 -21 -39 -25q0 -1 2 -1zM1244 1968q14 0 14 5q0 6 -10 6h-6q-7 0 -13.5 -3t-6.5 -5q0 -3 22 -3zM881 2140q20 0 83 29q69 28 213 57t216 29
q11 0 19.5 -1t15.5 -1q32 0 53 12q25 13 57 78q18 38 126 286q70 169 128 287q41 84 41 96h-1q-11 0 -95 -64t-135.5 -112.5t-120.5 -100.5q-107 -75 -358 -316.5t-251 -270.5q0 -8 9 -8zM2314 2514l2 1q10 15 24.5 34t14.5 22l-1 1q-2 0 -17 -13q-25 -20 -25 -35
q0 -10 2 -10z" />
    <glyph glyph-name="percent" unicode="%" horiz-adv-x="2238" 
d="M631 -697v1q0 9 31 80l2 3l22 52q10 23 10 30t-14 7t-61 32q-212 142 -306 314q-26 48 -33.5 85.5t-7.5 105.5v147l523 965q223 416 352 662q114 218 411 763q237 434 239 451q-2 1 -8 1q-41 0 -261 -56q-239 -62 -408 -134q-146 -63 -157 -91q-3 -8 -3 -16
q0 -22 24 -108q32 -123 32 -228q0 -93 -25 -172q-28 -82 -108 -162t-182 -130q-61 -30 -101 -38t-127 -8t-122.5 7t-81.5 34q-202 106 -250 342q-11 54 -11 108q0 121 54 242q78 176 242 291q88 59 224 103.5t274 59.5q134 13 226 56q165 75 489 153q331 81 506 81
q99 0 148 -26l55 -26l-10 -92q-4 -53 -23.5 -104t-69.5 -141q-107 -196 -174 -325q-187 -356 -346 -648q-137 -251 -309 -576q-257 -479 -310 -576q-132 -244 -223 -418q-87 -165 -148 -271q-42 -69 -42 -97q0 -88 117 -184q83 -69 104 -69q9 0 59 81q34 56 34 68q0 4 -3 4
q-6 0 -27 -18q-10 -10 -12 -10q-1 0 -1 1q0 2 6 13q59 102 172.5 209t222.5 162q48 25 86 32t118 7q102 0 109 5t7 6q0 8 -74 18q-19 2 -38 2q-94 0 -215 -47q-146 -56 -263 -155l-68 -59q19 25 36.5 49t53 57t72.5 62q144 108 243.5 123.5t142.5 15.5q102 0 194 -39
q130 -56 207 -189q20 -35 30 -60.5t12.5 -60.5t2.5 -102q0 -97 -7.5 -136.5t-33.5 -90.5q-92 -181 -264 -279t-287 -101t-126 -3q-208 0 -429 91q-4 2 -8 2q-21 0 -63 -65q-47 -73 -52 -73zM1186 -332q93 1 157 20q73 24 136.5 77.5t97.5 120.5q23 48 23 72q0 19 -9 43
q-26 94 -139 94q-165 0 -340 -171q-101 -97 -110 -97q-1 0 -1 2.5t-4 2.5t-19 -11q-24 -22 -52 -61q-20 -28 -20 -35q0 -1 1 -1t4.5 2t7.5 2q9 0 13 -11q12 -24 82.5 -36.5t148.5 -12.5h23zM937 -259q-1 0 -1 1q0 5 19 32q33 47 40 47q3 0 3 -3q0 -11 -24 -42
q-27 -35 -37 -35zM846 -259q7 0 22 22q27 39 88 116q38 49 38 54q-2 0 -7 -4q-26 -22 -59.5 -62t-58.5 -75.5t-26 -47.5q1 -3 3 -3zM776 1003q7 2 14 21q3 7 3 11t-3 4q-9 0 -16 -11q-4 -7 -4 -13q0 -12 4 -12h2zM805 1060q6 3 14 22q2 7 2 11t-3 4q-2 0 -6.5 -2.5t-8.5 -9
t-4 -12.5q0 -13 5 -13h1zM834 1117q7 0 87 146q74 135 74 151v1l-23 -31q-23 -36 -86 -155l-27 -50q-27 -52 -27 -59v-1q0 -2 2 -2zM1036 1493q6 0 45 64q33 58 33 70q0 1 -1 1q-8 0 -45 -65q-33 -60 -33 -69zM463 2156q51 0 117 35q109 50 120.5 99t11.5 72q0 76 -44 200
q-27 76 -33 110.5t-6 60.5q0 14 10 105l-29 -40q-30 -39 -50.5 -39t-114.5 -96q-88 -89 -88 -111v-1q1 -3 1 -7q0 -21 -14 -45q-19 -38 -19 -128q0 -88 20 -131q40 -84 118 -84zM1410 2168q6 0 23 29q10 19 10 27q0 2 -2 2q-6 0 -23 -29q-10 -20 -10 -26q0 -3 2 -3z
M1453 2245q4 0 9 3t9.5 10t4.5 13q0 8 -7 8q-4 0 -9 -3.5t-9 -10t-4 -12.5q0 -8 6 -8zM1546 2408q7 0 75 126q46 86 46 102q0 2 -1 2q-5 0 -30 -42q-22 -37 -47 -87q-44 -89 -44 -99q0 -2 1 -2z" />
    <glyph glyph-name="ampersand" unicode="&#x26;" horiz-adv-x="2904" 
d="M760 5q-234 0 -443 166q-149 117 -226 272q-81 174 -81 358q0 103 25 209q71 297 318 543q79 79 79 98l-2 7q0 2 2 2t6.5 -2t8.5 -2q21 0 56 26q54 40 147 91.5t174 86.5q91 38 91 42q0 15 -67 152q-142 292 -143 411.5t-1 122.5q0 229 128 379.5t381 195.5q54 8 126 8
q189 0 309 -31q253 -72 344 -221t91 -294q0 -78 -21 -164q-52 -194 -197.5 -376.5t-338.5 -295.5q-76 -43 -76 -49q0 -15 188.5 -230t201.5 -215q11 0 126 132q319 362 622 362q19 0 19 -4q0 -2 -4 -4.5t-4 -5.5q0 -10 56 -17q30 -4 55.5 -11t34 -12.5t8.5 -7.5t-7 -2
q-10 0 -36 5q-50 8 -99 8q-75 0 -105 -16q-14 -8 -14 -12t29.5 -4.5t29.5 -3.5t-43 -17q-70 -23 -152 -68.5t-116 -80.5q-20 -20 -20 -24q0 -1 2 -1q9 0 94 61q46 32 109 59t98 34.5t47 7.5q18 0 18 -9q0 -11 -58 -20q-122 -15 -248 -135q-70 -66 -121 -135.5t-55 -111.5
q-2 -33 -22 -46t-36 -63l-18 -51q290 -301 352 -372q56 -64 56 -73q0 -17 160 -177t231 -250l65 -87q-504 483 -528 483q-1 0 -1 -1q2 -11 150 -158q46 -47 85 -87.5t53 -57.5t28 -35q-59 51 -78 51t-101 75q-154 146 -175 146q-6 0 -6 -7q0 -11 18 -32q4 -5 4 -6h-1
q-15 0 -292 238q-132 114 -147 114q-1 0 -1.5 -0.5t-0.5 -1.5q0 -13 35 -46q63 -61 147 -153q69 -77 69 -83v-1q-8 0 -121 93q-68 55 -110.5 95.5t-54.5 40.5q-8 0 -18 -17q-42 -66 -156 -202.5t-208 -232.5q-317 -318 -607 -345q-78 -8 -117 -8zM787 312q276 0 634 435
l232 283q-251 266 -330 355q-75 83 -113 129q-83 102 -108 104q-30 0 -100.5 -25.5t-148 -62t-128.5 -70.5q-231 -160 -321.5 -342t-90.5 -329q0 -264 227 -404q124 -73 247 -73zM853 1591q6 0 16 4t21 11.5t11 10.5q0 2 -5 2q-6 0 -16.5 -4t-21 -11.5t-10.5 -10.5
q0 -2 5 -2zM934 1620q10 0 73 21.5t63 30.5q0 2 -7 2q-24 0 -83 -22q-49 -18 -49 -30q0 -2 3 -2zM1259 2008q19 2 103 50q187 113 311 295q98 152 98 262q0 63 -32 113q-84 127 -361 127q-150 0 -230 -34q-129 -55 -129 -222q0 -140 69 -313q43 -104 94.5 -188.5t76.5 -89.5
zM1920 2226q4 0 42 63q33 56 33 76q0 3 -1 3q-9 0 -43 -65q-32 -68 -32 -76zM2032 2477q7 0 7 21t-7 21q-4 0 -4 -21t4 -21zM2048 2559q5 0 5 71q0 69 -18 131q-23 74 -44 104q-5 7 -7 7q-1 0 -1 -2q0 -8 17 -48q30 -77 39 -180q6 -83 9 -83zM1966 2901q3 0 3 5q0 2 -9.5 11
t-24.5 22t-31 27q53 -65 62 -65zM1894 2972q3 0 3 6t-26 25q-15 13 -17 13l-1 -1q0 -2 13 -17q21 -26 28 -26zM2615 496q-7 0 -93 79q-71 69 -71 79q0 1 1 1q14 0 92 -80q71 -69 71 -79zM2245 1403q-1 0 -1 1q0 6 20 28q27 29 33 29q1 0 1 -1q0 -6 -20 -28q-27 -29 -33 -29z
" />
    <glyph glyph-name="quotesingle" unicode="'" horiz-adv-x="344" 
d="M262 1822q-12 0 -19 23q-5 16 -12 16q-5 0 -11 -11.5t-20 -11.5t-42 10q-50 17 -68 37q-11 14 -17 14q-7 -1 -18 -17t-17 -16t-17 21.5t-11 50.5q0 8 1 15q7 38 14 260.5t15 236.5q8 7 35 7q66 -2 119 -24q17 -8 43 -15q19 -2 97 -36l-7 -400q-4 -99 -13 -121
q-6 -13 -16 -19q-25 -20 -36 -20z" />
    <glyph glyph-name="parenleft" unicode="(" horiz-adv-x="1533" 
d="M633 -153q-12 0 -71 42q-30 21 -60 45q-53 44 -64 44q-3 0 -3 -2q0 -9 49 -59q51 -46 51 -57t-15 -11q-37 0 -77 34q-33 28 -57 28l-12 -1q-23 0 -74 46q-54 50 -98 115q-21 31 -26 31q-1 0 -1 -3q0 -21 53 -119q38 -68 38 -80q0 -2 -2 -2q-4 0 -14 7
q-63 47 -123.5 167.5t-91.5 262.5q-25 136 -25 363t26 386q58 337 181.5 643.5t343.5 659.5q184 294 401 497t416 266q68 20 82 20q8 0 8 -4q0 -3 -2 -5.5t-2 -3.5q0 -6 18 -6l14 1q17 3 23 3q4 0 4 -1q0 -4 -34 -18q-47 -24 -47 -41q0 -9 18 -11q2 0 2 -2q0 -5 -47 -27
q-55 -25 -55 -34q0 -3 4 -3q12 0 54 17q52 20 67 20q4 0 4 -2q0 -5 -42 -25q-32 -15 -64 -44t-49 -53.5t-17 -37.5q0 -5 2 -9t2 -8q0 -6 -5 -9q-14 -7 -53 -88q-42 -82 -75 -104q-38 -28 -147 -153q-117 -132 -117 -145.5t-43 -63.5q-72 -84 -173.5 -272t-181.5 -385
q-206 -510 -206 -937q0 -452 199 -701q28 -37 28 -41q0 -1 -1 -1q-2 0 -8 5q-20 16 -28 16q-4 0 -4 -4q0 -15 47 -57q52 -47 68 -68q14 -15 14 -20q0 -1 -2 -1zM109 1245q6 0 6 17q0 5 -2.5 11.5t-4.5 6.5q-3 0 -4 -15q0 -20 5 -20zM121 1305q4 0 10 14.5t9.5 29t3.5 23.5
q0 8 -2 8q-3 0 -10 -16q-13 -26 -13 -50q0 -9 2 -9zM150 1404q3 0 9.5 10t10.5 22.5t4 21.5t-3 9q-4 0 -11 -16q-12 -32 -12 -43q0 -4 2 -4zM253 1675q6 3 14 21q2 7 2 11q0 5 -3 5q-2 0 -6.5 -3t-8.5 -9.5t-4 -11.5q0 -13 4 -13h2zM279 1750q5 0 19 17q20 27 20 50
q0 8 -4 8q-5 0 -17 -21q-20 -37 -20 -50q0 -4 2 -4z" />
    <glyph glyph-name="parenright" unicode=")" horiz-adv-x="1521" 
d="M18 -199q-8 0 -8 4q0 11 77 53q46 25 80.5 45.5t42 28.5t7.5 10q0 1 -2 1l-4 -1q-135 -65 -158 -65q-6 0 -6 10q0 9 10 22q16 21 48 40q38 22 38 40l-1 6q0 22 67 96q98 105 98 115q0 1 -1 1q-5 0 -37 -26q-99 -76 -117 -76q-3 0 -3 4q0 22 143 163q436 411 689 1088
q227 586 227 977q0 84 -10 159q-16 138 -52.5 205t-143.5 149l-39 32h39q35 0 35 13q0 4 -3.5 10t-3.5 11q0 8 12 8q14 0 47 -13q25 -9 32 -9q4 0 4 2q0 8 -52 30q-46 22 -46 26q0 1 1 1.5t6 0.5q30 0 144 -34q138 -42 163 -61q41 -31 58 -36q19 -8 43.5 -56.5t43.5 -115.5
q15 -65 24 -237q1 -30 1 -62q0 -223 -56 -502q-65 -318 -187 -630q-62 -152 -163 -353.5t-173 -317.5q-49 -76 -52 -90q0 -8 -46 -64q-43 -47 -104.5 -133t-151.5 -163q-81 -71 -135 -122q-38 -36 -159 -104q-107 -61 -130 -61q-3 0 -4.5 2t-1.5 4q0 4 6.5 4t19 6t24.5 15
q4 3 4 5q0 1 -3 1q-12 0 -63 -20q-93 -36 -118 -36zM868 1016q7 0 35 45q35 56 35 72q0 2 -1 2q-6 0 -34 -45q-36 -60 -36 -72q0 -2 1 -2zM945 1159q4 0 9 3.5t9 10t4 12.5q0 8 -7 8q-3 0 -8 -3t-9.5 -10t-4.5 -13q0 -8 7 -8zM1085 1471q3 0 12 15q14 21 14 43q0 14 -3 14
t-11 -14q-14 -24 -14 -50q0 -8 2 -8z" />
    <glyph glyph-name="asterisk" unicode="*" horiz-adv-x="1099" 
d="M279 1906q-6 0 -6 12l1 40l1 13q0 13 -5 13t-16 -10t-18 -10q-2 0 -3 1q-7 3 -15 26q-12 32 -29 46q-7 4 -11.5 17.5t-4.5 28.5q0 28 -7 28q-4 0 -13 -8t-20 -8q-5 0 -8 3q-9 9 -9 22q0 28 36 75.5t36 53.5q0 5 -45 5l-29 -1q-72 0 -92 17q-12 14 -12 36q0 38 25 59
q7 5 7 7q0 3 -10 4h-1q-7 0 -7 5q0 9 19 33q30 40 30 51q0 15 30 57q24 36 52 39q16 1 59 1q26 -2 65 -2q27 0 42 2q26 3 32 21t6 70q4 104 34 104q8 0 17.5 -7t18.5 -7q6 0 9 2.5t6 2.5q9 0 17 -12t11 -12t3 8.5t8 8.5t77 -33l49 -25q34 -15 44 -29t10 -46.5t4.5 -37.5
t11.5 -5q8 0 21 4q32 8 176 10q82 0 115 -5t41 -19q13 -16 26 -16q3 0 6.5 2t7.5 2q10 0 16 -9q1 -1 1 -3q0 -14 -33 -28q-27 -11 -27 -17q0 -4 12 -6q21 -6 23 -16.5t2 -13.5q0 -12 -14.5 -18.5t-19.5 -31t-39 -51.5q-23 -20 -23 -26q0 -4 13 -4q24 -3 25 -12v-10
q0 -25 -49 -34q-18 -3 -35 -3q-28 0 -28 -5q0 -4 12 -13q61 -48 61 -104q0 -36 -34 -36q-24 0 -24 -16v-1q0 -10 -18 -25q-49 -41 -90 -43q-10 -1 -17.5 -7t-7.5 -15q0 -27 -16 -27q-26 0 -128 99l-114 111q-60 -100 -81 -128.5t-34 -42t-21.5 -26.5t-8.5 -19q0 -10 -18 -22
t-40 -17q-9 -3 -25 -13q-8 -4 -13 -4z" />
    <glyph glyph-name="plus" unicode="+" horiz-adv-x="1215" 
d="M677 708q-15 0 -25 27.5t-16 28.5t-7 1q-11 0 -16 -24q-2 -17 -8 -17t-21 17q-24 24 -46 24t-40.5 28.5t-30.5 28.5q-10 0 -10 -20.5t-14 -20.5q-15 0 -25 23q-10 28 -10 140l-2 117q-254 4 -313 8q-74 5 -78.5 16t-4.5 16q0 19 20 53q12 24 12 38q0 5 -2.5 5t-2.5 2
q0 10 24 36q32 34 32 46v2q0 11 24 48q11 19 24 27t42.5 10t230.5 2q0 228 5 263t19 48.5t22 13.5q7 0 13.5 -10.5t15.5 -10.5q3 0 6 3t8 3q10 0 20.5 -9t14.5 -9q5 0 5 9q0 4 4 4q8 0 25 -17q29 -29 52.5 -29t59.5 -29q31 -22 34 -57q1 -19 1 -44l-2 -129q318 -2 366 -6
q60 -6 62 -20q2 -7 12 -12t21 -5q27 0 27 -10q0 -14 -39 -26l-40 -10l70 -27q-44 -46 -49.5 -56.5t-5.5 -14.5q0 -3 1 -4t1 -3q0 -11 -37 -34q-35 -19 -35 -25t22 -11t22 -12q0 -29 -60 -36q-43 -5 -332 -5l-1 -147q-2 -145 -18 -152q-17 -5 -17 -25.5t-10 -20.5z" />
    <glyph glyph-name="comma" unicode="," horiz-adv-x="570" 
d="M198 -212q-21 0 -29 24q-3 11 -11 18.5t-16.5 7.5t-17 7.5t-12.5 18t-12.5 23t-16.5 21t-13 20.5t-5 21q0 15 -12 15q-5 0 -11 -2t-10 -2q-22 0 -22 27q0 17 13 37q179 252 229 347q17 36 31.5 47t46.5 11q47 0 59 -15q7 -10 13 -10q4 0 5 1l2 1q14 0 80 -55l71 -62
q-68 -120 -100 -172t-59 -94q-61 -94 -62 -107t-51 -70q-43 -47 -63.5 -52.5t-26.5 -5.5z" />
    <glyph glyph-name="hyphen" unicode="-" horiz-adv-x="1071" 
d="M901 982q-6 3 -32 7q-35 4 -436 9q-321 4 -379 12q-37 5 -40.5 12.5t-3.5 16.5q0 12 6 29q11 28 33 46q5 4 5 9q0 7 -11.5 15.5t-11.5 11.5t6 3.5t20.5 21t66.5 129.5l593 -2l114 -1q93 0 135 -2q51 -2 51 -9l-4 -9q0 -10 26 -19q22 -5 22 -11q0 -4 -31.5 -21t-31.5 -24
q0 -5 12 -6q25 -8 25 -32q0 -15 -14 -15q-6 0 -10.5 -6t-4.5 -14q0 -20 -35 -47.5t-35 -38.5q0 -9 20.5 -9t20.5 -10q0 -19 -37 -33q-32 -13 -39 -13zM603 1026q21 0 21 4q0 6 -21 6t-21 -6q0 -4 21 -4z" />
    <glyph glyph-name="hyphen" unicode="&#xad;" horiz-adv-x="1071" 
d="M901 982q-6 3 -32 7q-35 4 -436 9q-321 4 -379 12q-37 5 -40.5 12.5t-3.5 16.5q0 12 6 29q11 28 33 46q5 4 5 9q0 7 -11.5 15.5t-11.5 11.5t6 3.5t20.5 21t66.5 129.5l593 -2l114 -1q93 0 135 -2q51 -2 51 -9l-4 -9q0 -10 26 -19q22 -5 22 -11q0 -4 -31.5 -21t-31.5 -24
q0 -5 12 -6q25 -8 25 -32q0 -15 -14 -15q-6 0 -10.5 -6t-4.5 -14q0 -20 -35 -47.5t-35 -38.5q0 -9 20.5 -9t20.5 -10q0 -19 -37 -33q-32 -13 -39 -13zM603 1026q21 0 21 4q0 6 -21 6t-21 -6q0 -4 21 -4z" />
    <glyph glyph-name="period" unicode="." horiz-adv-x="662" 
d="M371 -81q-12 0 -12 8q0 3 2 7t2 7q0 8 -12 8h-3q-8 0 -8 3t13 11t13 24q0 4 -1 7t-1 6q0 18 16.5 31.5t16.5 16.5l-2 1q-4 0 -16 -5l-12 -2q-13 0 -13 11q0 8 16 19q9 8 9 33q0 15 -3 36q-9 78 -9 98q-1 34 -16 50t-27 16q-7 0 -15 -5.5t-8 -31.5q0 -45 19 -97l1 -8
q0 -12 -16 -12q-10 0 -16.5 -4.5t-6.5 -10.5q0 -14 14.5 -14t14.5 -10q0 -8 -7 -16.5t-20.5 -12.5t-22 -12.5t-8.5 -17.5q0 -13 -8.5 -14.5t-16.5 -1.5t-93 10q33 -34 65 -69h-32q-36 0 -82 50t-64 109q-12 46 -12 100q0 116 39 196q52 98 134.5 141t148.5 43q28 0 56 -7
q127 -38 196 -142t69 -210q0 -74 -46 -167q-33 -68 -63 -95q-38 -29 -85 -50q-60 -27 -88 -27zM154 517q10 0 48 18q45 21 45 29q0 2 -2 2q-11 0 -48 -19q-45 -22 -45 -29q0 -1 2 -1zM437 526q3 0 3 6t-32 22q-20 10 -24 10q0 -2 20.5 -18t25.5 -18t7 -2z" />
    <glyph glyph-name="slash" unicode="/" horiz-adv-x="1275" 
d="M130 -93q-4 0 -4 12q0 18 21 90t21 89q0 6 -2 6q-7 0 -31 -49q-24 -56 -35 -56t-11 40q0 19 3 38q3 14 3 26q0 23 -13 31q-12 5 -12 19v16q0 25 9 82q12 74 12 103q0 6 -1 7q-7 0 -42 -72l-38 -76l7 74q7 72 56 201q70 179 303 794q70 184 88 236q37 105 170 439.5
t146.5 376.5t148.5 389q92 236 164 409q30 61 37 61l3 -1q9 0 24 19q10 14 14 14q3 0 3 -13l-2 -32q0 -27 14 -27l7 1q10 0 10 -15q0 -23 -21 -77q-4 -9 -4 -14q0 -3 3 -3t8.5 3.5t12.5 18t11 33t11 33t13 19.5l5 2q4 0 4 -6q0 -7 -5 -21q-15 -45 -15 -89q0 -36 10 -72
q29 -105 29 -161q0 -43 -13 -90q-17 -61 -60 -166q-73 -184 -73 -199.5t-28 -69.5q-36 -76 -137 -349q-46 -125 -83.5 -224t-47.5 -127q-145 -381 -297 -791q-83 -224 -83 -240q0 -12 -58 -135t-58 -143t-40 -105q-18 -35 -34 -69l-24 -51t-17 -35q8 43 8 46t-1 3
q-4 0 -21 -35q-12 -24 -20 -45t-8.5 -28.5t-6.5 -17t-17 -18.5t-16 -9zM413 1278q29 51 37.5 72t22.5 72q-29 -51 -38 -72t-22 -72zM478 1430q6 3 13 22q3 7 3 11t-3 4q-2 0 -6.5 -3t-9 -9.5t-4.5 -11.5q0 -13 5 -13h2zM560 1633q3 0 10.5 11t11.5 21t4 16q0 5 -2 5
q-3 0 -10.5 -10.5t-11.5 -21t-4 -16.5q0 -5 2 -5zM585 1696q30 50 37 64.5t7 20.5q0 8 -3 8q-15 0 -41 -93z" />
    <glyph glyph-name="zero" unicode="0" horiz-adv-x="2625" 
d="M666 -359h-8q-8 0 -8 11t-20 11q-11 0 -29 -3.5t-31 -3.5q-20 0 -20 7q0 5 19.5 11.5t48.5 10.5q101 15 101 37q0 7 -9 14q-5 3 -5 6q0 12 63 32q68 22 110.5 42.5t42.5 28.5q0 2 -4 2q-14 0 -88 -29q-87 -35 -143 -44q-14 -2 -20 -2q-3 0 -3 1q0 4 69 28q107 39 158 73
q87 59 148 118q26 26 26 34v2q0 12 22 36q72 77 126 145q25 31 29 40q13 26 163 185t239 272q105 135 215 303q45 69 45 79t74 134q133 221 218 468t102.5 395t17.5 215q0 127 -32 220q-39 115 -114.5 177.5t-205.5 88.5q-68 12 -139 12q-153 0 -317 -58
q-240 -92 -457 -324.5t-383 -575.5q-79 -164 -125.5 -289t-106.5 -340q-58 -199 -80 -306t-30 -225q-7 -94 -9 -197t-2 -176q0 -138 9.5 -138t9.5 -31q0 -11 -3 -11t-11 14q-4 6 -7 6q-2 0 -2 -4q0 -10 4.5 -32t12.5 -47.5t17.5 -45t30 -47t42.5 -50.5q40 -40 40 -49
q0 -3 -4 -3q-11 0 -48.5 20.5t-76.5 83.5t-67 150q-18 59 -25 59q-2 0 -2 -5q0 -34 21 -100t51 -125q18 -37 18 -46q0 -3 -1 -3q-2 0 -7 4q-13 10 -24 10q-4 0 -5 -1l-2 -1q-6 0 -18.5 22t-30.5 58.5t-33 73.5t-21.5 64t-17.5 27q-5 0 -9.5 -4t-7.5 -4q-13 0 -28 71
q-43 218 -44 392q0 100 -6 100q-3 0 -9 -62q-10 -113 -15 -275q-1 -64 -7 -64q-2 0 -6 14q-22 80 -22 215q0 258 64 556q113 492 332 922t491 691q244 237 564 340q80 28 143 38q90 15 251 15q106 0 185 -14q105 -17 198 -65q242 -115 337 -403q18 -50 26.5 -87.5t11 -88.5
t2.5 -147q0 -174 -20.5 -296.5t-82.5 -312.5q-155 -490 -460 -943q-278 -411 -595 -685.5t-627 -373.5q-53 -16 -87 -26.5t-53 -16t-24 -5.5zM2492 2712q1 0 1 1q0 7 -38.5 64t-83.5 99q-7 6 -9 6v-1q0 -8 47 -72q73 -97 83 -97zM1145 2864q3 0 47 21q188 93 188 102h-1
q-14 0 -122 -52q-117 -58 -117 -67q0 -4 5 -4zM2319 2908v1q0 4 -41 40q-49 42 -64 42q-8 0 -8 -3q0 -6 58 -45q49 -35 55 -35zM1413 2991q5 0 11.5 4.5t9.5 9t3 6.5q0 3 -4 3t-12 -3q-21 -8 -21 -15q0 -5 13 -5zM2184 2992q5 0 5 2q0 3 -11 10.5t-21 11.5t-16 4q-5 0 -5 -2
q0 -3 10.5 -10.5t21 -11.5t16.5 -4zM1566 3035q12 0 26 4.5t23 10t9 7.5t-5 2q-7 0 -25 -4q-49 -11 -49 -16q0 -4 21 -4zM356 43q-7 0 -14 20t-7 35q0 8 1 8q4 0 13.5 -22t9.5 -35q-1 -5 -3 -6z" />
    <glyph glyph-name="one" unicode="1" horiz-adv-x="2799" 
d="M146 -203h-26q-99 0 -101.5 12.5t-2.5 35.5q5 51 20 51t15 14q0 8 -14 8q-5 0 -13.5 -3t-11.5 -3q-2 0 -2 1q0 4 19 18q22 19 47 59t41 82q4 14 22.5 20t60.5 7q245 5 451 20q100 7 116 22q10 8 16 26q26 68 26 91q0 12 -7 12t-7 16q0 54 57 197q30 79 30 95q0 3 -1 4h-1
q-4 0 -18 -21t-32.5 -58t-35 -64t-22.5 -30.5t-9 -3.5q-6 0 -6 10q0 76 245 528q186 343 471 892q296 569 305 600q0 3 -3 3q-10 0 -43 -21q-98 -64 -345 -179q-123 -57 -235 -96q-36 -12 -45 -12q-3 0 -3 1q0 3 5 11l2 4q0 3 -4 3q-7 0 -26.5 -7t-28.5 -7q-7 0 -7 6
q3 12 42 30q43 18 43 31q0 9 -17 16q-2 1 -2 3q0 12 54 35q63 27 63 37v1q-1 1 -4 1q-16 0 -72 -23q-51 -23 -76 -23l-1 2q0 3 12.5 11t35.5 17q50 22 70 36q125 103 125 118t79 101q73 79 122 113q35 24 70 45q130 75 279 186.5t251 210.5q61 61 70.5 61t277.5 240
q316 283 321 283q1 0 1 -5q-3 -12 -36 -72q-246 -453 -304 -572q-25 -53 -25 -64l-3 -19q-4 -7 -9 -7q-17 0 -295 -539q-34 -65 -105 -202t-147 -281q-458 -882 -530 -1030q-83 -163 -112 -204q-31 -39 -97 -173q-46 -92 -126 -232q-60 -105 -67 -105l1 5q4 14 4 20
q0 5 -2 5q-5 0 -21 -27q-6 -10 -6 -16q0 -11 37 -11q204 0 231 -9q5 -3 5 -6q0 -1 -1.5 -3t-1.5 -4q0 -10 22 -10q36 0 36 -14q-1 -15 -38 -30q-32 -12 -33 -14l-1 -3q0 -4 20 -7q31 -5 31 -19q0 -11 -21 -29t-21 -35.5t-40 -48.5q-28 -21 -29 -23l-1 -3q0 -4 23 -4
q29 -1 30 -8t1 -8q0 -12 -24 -25q-43 -22 -790 -41q-128 -3 -198 -3zM713 -160q21 0 21 4q0 7 -21 7t-21 -7q0 -4 21 -4zM568 -146q13 0 13 4q0 7 -16 7q-7 0 -13.5 -3t-6.5 -5q0 -3 23 -3zM841 141q5 0 13 11t14 28q24 63 24 74q0 2 -1 2q-4 0 -26 -36q-35 -56 -35 -69
q0 -10 11 -10zM1540 1885q4 0 43 65q31 55 31 71q0 2 -1 2q-8 0 -43 -67q-30 -63 -30 -70v-1zM1626 2041q6 0 23 29q10 20 10 26q0 3 -2 3q-6 0 -23 -29q-9 -19 -9 -27q0 -2 1 -2zM1812 2374q3 0 11 8.5t10 13.5t2 7q0 7 -5 7q-2 0 -6 -4t-8.5 -15t-4.5 -15q0 -2 1 -2z
M1834 2423q59 71 59 83q0 11 -4 11q-9 0 -55 -94z" />
    <glyph glyph-name="two" unicode="2" horiz-adv-x="3253" 
d="M121 -102q-111 0 -111 31q0 74 610 320q458 265 911.5 627t807 733.5t509.5 663.5q88 169 92.5 229.5t4.5 71.5q0 96 -63 166q-60 72 -163 72q-87 0 -206 -52q-193 -91 -431.5 -337t-370.5 -492q-25 -49 -33 -49q-3 0 -3.5 9t-3.5 9q-6 0 -25.5 -40t-24.5 -40q-2 0 -2 6
q0 17 21 71q15 40 15 57q0 13 -7 13q-8 0 -24 -20q-12 -18 -15 -18q-1 0 -1 2q0 14 36 89q18 39 40 79q33 58 33 71q0 2 -2 2q-6 0 -40 -54q-25 -41 -53 -93q-45 -84 -53 -84q-1 0 -1 2q0 15 49 113q151 297 151 344q0 4 -1 6q-2 6 -2 11q0 15 16 22q23 9 23 31.5
t57.5 104.5t57.5 97t48 63q112 113 226 191q152 102 271 144.5t248 42.5q96 0 130 -7q41 -8 99 -37q88 -43 160 -110q131 -124 139 -285q3 -72 3 -92q0 -98 -20 -182q-76 -287 -382.5 -681.5t-769.5 -800.5q-239 -210 -332 -281q-345 -265 -428 -317q-66 -41 -69 -50
q0 -1 14 -1q50 0 176.5 12t240.5 12q107 0 268 -20q222 -29 244 -51q19 -19 152 -58q152 -46 244 -91q40 -19 40 -26q0 -1 -3 -1q-17 0 -110 30q-124 43 -307 78q-77 14 -104 14q-2 0 -2 -1q0 -7 126 -39q201 -53 201 -62q0 -4 -23 -12q-13 -4 -31 -4q-30 0 -77 11
q-116 29 -158 29q-23 0 -23 -9l2 -8q0 -13 -84 -15q-18 -1 -298 -3q-151 -2 -151 -21q0 -8 147 -10q201 -2 201 -20q0 -22 -208 -22q-724 0 -1127.5 -42t-470.5 -42zM1294 644q15 0 166 115q220 168 220 179q-8 0 -104 -71q-131 -96 -238 -184q-44 -36 -44 -39zM2055 1251
q10 0 120 106q53 51 97 96q62 65 62 69q-8 0 -197 -186q-82 -80 -82 -85zM2271 199q-16 1 -16 4q0 2 7.5 5t15.5 3q13 -1 13 -7q0 -5 -20 -5zM2311 1076q-3 0 -3 6q0 7 25 25q15 13 18 13q0 -3 -13 -18q-20 -26 -27 -26z" />
    <glyph glyph-name="three" unicode="3" horiz-adv-x="2477" 
d="M471 -269q-12 0 -94 8q-317 37 -362 351q-5 31 -5 42q0 10 2 10q3 0 7.5 -10.5t7.5 -10.5q7 0 7 50q2 85 18.5 198t34.5 168l21 57q-27 -265 -27 -378q0 -69 8 -104q7 -24 10 -24q6 0 6 105q3 221 32 221q6 0 6 -9q0 -5 -2.5 -12t-2.5 -12q0 -10 8.5 -10t8.5 -42
q0 -17 -2 -37q-2 -30 -2 -56q0 -39 5 -71q10 -53 28 -53q7 0 19.5 -15t22.5 -36q21 -47 61 -62t114 -15l131 2l-98 11q-140 17 -140 57q0 4 12 4q22 0 48 -6q30 -8 76 -8q75 0 270 33q555 96 982 541q173 180 208.5 277t35.5 150q0 237 -399 393q-171 66 -366 100
q-132 21 -185 47.5t-79 84.5q-21 38 -21 65q0 17 8 38q17 63 90 112t256 122q324 129 517.5 236.5t286 218t115.5 246.5q5 27 5 49q0 75 -60 92q-37 11 -88 11q-143 0 -400 -89q-95 -35 -225.5 -121t-221.5 -175q-48 -47 -86.5 -88t-51 -59t-16.5 -18q-1 0 -1 2l1 6
q4 14 4 20q0 4 -2 4q-6 0 -30 -43q-20 -38 -28 -38q-3 0 -3 5q0 13 16 47q23 44 23 69q0 18 -4 18t-18 -18.5t-19 -18.5q-2 0 -2 4q0 9 20.5 42t50 72t57.5 70q23 25 23 29q0 1 -1 1q-3 0 -15 -8q-29 -21 -71.5 -70.5t-74.5 -101.5q-25 -37 -30 -37q-2 0 -2 2v3
q0 20 160 241q57 79 67.5 99.5t10.5 28.5l-1 7l1 2q1 0 3 -4q7 -11 16 -11q16 0 16 25q0 18 94 112t110 94q12 0 12 19.5t74.5 55t177.5 67.5q190 58 357 58q178 0 291 -68q179 -108 179 -382q0 -31 -3 -53q-7 -41 -33 -105q-116 -315 -441 -519q-96 -62 -236 -134
q-150 -78 -272 -123l72 -19q205 -58 384 -192.5t253 -285.5q46 -105 46 -230q0 -171 -80 -320q-62 -112 -188 -268q-186 -219 -443 -386q-234 -159 -422.5 -227.5t-478.5 -99.5q-124 -15 -144 -19q-2 -1 -10 -1zM1945 1154q2 0 2 3q0 13 -23 52q-30 47 -77 91q-29 27 -31 27
q0 -3 38 -46q55 -64 69.5 -95.5t21.5 -31.5zM1774 1350q1 0 1 2q0 18 -55 49q-33 17 -42 17q-2 0 -2 -1q0 -4 46 -35q42 -29 52 -32zM1127 1582q2 0 2 1q0 4 -61 48l-58 39q-63 43 -63 67l2 16q0 14 -9 14t-17 -19v-2q0 -12 24 -38.5t62 -57t75 -49.5t43 -19zM960 1782
q12 0 58 45l46 45q-88 -65 -92 -69q-16 -13 -16 -16q0 -5 4 -5z" />
    <glyph glyph-name="four" unicode="4" horiz-adv-x="2759" 
d="M10 625l9 41v-1q23 0 555 467q537 472 860 775q224 210 272 266q34 41 301 315q236 240 454 471q184 198 203 198q4 -2 7 -2q8 1 14 9q10 15 24 15q4 0 4 -4q0 -9 -19 -34q-30 -39 -30 -60q0 -12 5 -12q7 0 26 17l32 28q-62 -89 -62 -100q0 -2 2 -2q8 0 82 70
q-15 -30 -30.5 -61.5t-25 -81t-10.5 -76t-1 -33.5q0 -32 7 -46q20 -30 20 -139q0 -31 -13 -77q-24 -85 -208 -491q-88 -190 -332 -794q-68 -167 -68 -186q0 -12 24 -16.5t88 -4.5q94 0 94 -10q0 -2 -4 -4t-4 -4q0 -10 113 -11.5t141 -8t28 -11.5q0 -13 -96 -20
q-42 -3 -83 -3q-95 0 -107 -14v-1q0 -13 88 -13q78 0 81 -4.5t3 -6.5q0 -4 -7 -12t-25 -14t-37 -7q-46 0 -74.5 -8t-28.5 -17v-5q0 -11 -53 -25q-58 -15 -145 -24q-97 -12 -97 -23q0 -5 28 -9t69 -4q77 -2 77 -12q0 -14 -119 -28l-88 -10q-143 -434 -173 -502
q-24 -51 -44 -128q-19 -73 -42 -121q-20 -39 -32 -91q-8 -37 -13 -37q-3 0 -7 13t-8 13q-9 0 -23 -59q-12 -46 -26.5 -73.5t-23.5 -27.5q-5 0 -5 12q0 10 4 30.5t8.5 51t8.5 55.5q2 17 2 26q0 11 -3 11q-8 0 -37 -80q-11 -29 -20 -29q-14 0 -14 45q0 16 2.5 34.5t2.5 30.5
q0 27 -12 27t-13.5 19t-1.5 35q0 28 2.5 70.5t2.5 67.5q0 34 -4 34q-1 0 -3 -3q-45 -107 -51.5 -118.5t-9.5 -11.5t-6 16q-1 6 -1 15q0 95 125 438l86 234l-255 -10q-160 -6 -435.5 -29.5t-538.5 -51.5t-386 -48zM132 704q8 0 107 83l67 56q126 107 126 114q0 2 -2 2
q-8 0 -174 -141q-126 -103 -126 -112q0 -2 2 -2zM477 994q6 0 41 25q43 31 59 53l3 5q0 1 -1 1q-11 0 -86 -64q-18 -16 -18 -19q0 -1 2 -1zM970 1038l9 2q70 11 360 28q222 15 321 15q31 0 40 -2h3q8 -2 14 -2q16 0 31 27q16 30 87 217q99 248 231 550q162 374 162 393
q-10 0 -98 -97q-100 -110 -149 -155q-73 -67 -302 -290q-461 -447 -642 -609q-71 -63 -71 -74q0 -3 4 -3zM1802 1154q6 0 27 38q27 52 27 64q0 2 -1 2q-7 0 -26 -38q-28 -49 -28 -64q0 -2 1 -2zM1860 1280q3 0 10.5 11t11.5 21t4 16q0 5 -2 5q-3 0 -10.5 -10.5t-11.5 -21
t-4 -16.5q0 -5 2 -5zM912 1351q7 0 33 30q20 20 20 24l-1 1q-4 0 -24 -14q-33 -21 -33 -31t5 -10zM986 1415q106 89 107.5 90t1.5 3q0 4 -2 6t-3 2q-10 0 -54 -47zM1986 1559q41 67 44 85q0 8 -3 8q-7 0 -17.5 -21.5t-23.5 -71.5zM2638 2892q9 0 22 27q6 13 20 65
q-41 -67 -42.5 -77t-1.5 -11q0 -4 2 -4z" />
    <glyph glyph-name="five" unicode="5" horiz-adv-x="2584" 
d="M461 -242q-57 0 -97 9q-263 73 -335 309q-19 62 -19 129q0 119 61 252q58 132 147 272q45 70 56 70q1 0 1 -1q0 -6 -17 -32q-49 -71 -49 -78q0 -1 1 -1q7 0 100 123q73 96 153 176q34 33 42 33q0 -8 -78 -112q-92 -124 -169 -257q-34 -58 -34 -69q0 -1 1 -1q7 0 61 81
q123 185 144 185q5 0 5 -4l-7 -15q-10 -11 -10 -22q0 -4 1.5 -5.5t1.5 -4.5q0 -15 -21 -45q-27 -41 -60 -104q-21 -40 -21 -51q0 -5 4 -5q3 0 8 2q11 5 16 5q4 0 4 -5q0 -13 -33 -95q-27 -67 -45.5 -152.5t-19.5 -145.5q1 -27 6 -27q11 0 18 66q3 24 16.5 63.5t31.5 76.5
q32 69 39 69q2 0 2 -5q0 -16 -20 -85q-21 -82 -21 -147q0 -43 7.5 -62t31.5 -37q17 -14 34.5 -20t64.5 -6q170 0 301 45q229 82 449 229t383 319t223 330q23 67 23 162q-1 91 -27 164q-82 213 -264 272t-336 59q-145 0 -316 -35q-139 -30 -176 -30q-9 0 -9 24q0 50 28 194
q88 445 249 948q36 112 57.5 159t40 50t28.5 3q28 0 73 -10q71 -16 302 -42q268 -31 628 -55q311 -23 365 -23q25 0 25 -5q0 -4 -9.5 -9t-9.5 -9q0 -7 44 -8q39 0 39 -3t-58 -10q-92 -13 -92 -25q0 -3 16 -3q11 0 11 -9q0 -2 -3.5 -7t-31.5 -10t-65 -6q-55 -1 -55 -3
q0 -3 95 -9q100 -6 100 -9q0 -2 -64 -3q-165 -8 -317 -35q-19 -4 -42 -17t-50 -17l-55 -9q-190 -37 -247 -37h-59q-99 0 -231 18q-81 11 -119 11q-34 0 -36 -8q-8 -14 -24 -63q-42 -121 -53 -191q-9 -50 -23 -79q-11 -21 -30.5 -85.5t-36 -130t-16.5 -82.5q0 -20 33 -20h15
l42 1q19 1 39 1q299 0 585 -153q46 -27 130 -106q69 -64 127 -169.5t81 -207.5q12 -65 12 -143q0 -171 -45 -301q-106 -294 -397 -549q-94 -82 -143 -131q-26 -28 -32 -28q-1 0 -1 1l-44 -24q-45 -27 -110 -70q-169 -112 -309 -179q-332 -159 -610 -159zM1706 742q2 0 14 12
t35 44t45 68.5t36 65t15 36.5q0 1 -1 1q-7 0 -42 -64q-49 -85 -81 -129q-22 -30 -22 -33zM1858 1008q7 0 16 19q12 26 12 47q0 8 -3 8q-9 0 -25 -47q-4 -13 -4 -20t4 -7zM1847 1393q4 0 4 11q-1 5 -9 18t-21.5 30t-28.5 35q46 -94 55 -94zM1792 1496q0 4 -35 42
q-42 42 -71 59l-5 1q-2 0 -2 -1q0 -7 43 -45q64 -56 69 -56h1zM1646 1611q2 0 2 1q0 3 -5 10.5t-12 11.5t-15 4q-6 0 -6 -3q0 -4 11 -11q20 -13 25 -13z" />
    <glyph glyph-name="six" unicode="6" horiz-adv-x="2014" 
d="M610 -432q-60 0 -113 11q-329 75 -454 497q-26 90 -30 199q-3 67 -3 212q0 128 6 204q7 86 26 180q105 511 322 934.5t518 720.5q375 370 811 472q129 30 197 30q24 0 32 -6t18 -7.5t15 -1.5q9 0 18.5 2t16.5 2q14 0 14 -9q0 -7 -14.5 -12t-35 -5t-46.5 -4.5t-45 -12
t-39 -15.5q49 -14 49 -17q0 -8 -86 -28q-138 -32 -138 -47q0 -2 5 -2q8 0 26 4q207 47 241 47l6 -1q0 -7 -92 -29q-127 -31 -234.5 -88t-114.5 -98q-2 -25 -14.5 -25t-93 -77.5t-80.5 -90t-132 -135.5q-97 -91 -202.5 -214t-181.5 -234q-67 -104 -166.5 -305.5
t-145.5 -328.5q-146 -424 -153.5 -609t-7.5 -217q0 -292 108 -468q65 -113 199 -113q19 0 40 2q275 26 556 299q280 276 402 646q58 176 58 282q0 111 -69 178q-84 86 -195 86q-123 0 -295 -100q-76 -43 -133 -88.5t-126 -118.5q-85 -90 -92 -90v1q0 2 4 8q59 80 59 87h-1
q-9 0 -81 -92q-33 -43 -64 -87q-113 -157 -123 -157q-1 0 -1 1q0 14 79 149q96 164 174 252q25 28 25 31h-1q-2 0 -39 -35q-48 -46 -115 -132q-63 -84 -73 -86q-6 0 -6 12q0 22 9 49q7 23 18 36q25 30 72 99q38 55 39.5 67t1.5 14q0 6 -4 6q-7 0 -25 -14l-3 -2l-1 1
q0 6 49 72q132 168 311 274q71 42 71 46l-1 1q-37 -2 -139.5 -62t-202.5 -138l-65 -51l49 62q80 99 212.5 175.5t280.5 108.5q67 15 124 15q41 0 97 -8q266 -38 379 -199.5t113 -365.5q0 -59 -8 -124q-57 -366 -287 -717t-536 -539q-289 -169 -543 -169zM794 -376
q9 0 23.5 3.5t29 10t14.5 9.5q0 2 -9 2t-23.5 -3.5t-29 -9.5t-14.5 -10q0 -2 9 -2zM972 -320q15 3 108 50q87 47 132 81q20 16 20 18l-1 1l-107 -60l-78 -43q-75 -41 -75 -46zM302 -277q3 0 3 4q0 5 -47 47l-47 43q73 -81 80.5 -87.5t10.5 -6.5zM1268 -147q14 0 23 14l1 5
q0 3 -4 3t-11 -3q-21 -8 -21 -15q0 -4 12 -4zM139 -45v1q0 15 -30 105q-23 66 -27 66q-1 0 -1 -4q0 -27 17 -81q28 -87 40 -87h1zM66 206q6 0 6 21t-6 21q-4 0 -4 -21t4 -21z" />
    <glyph glyph-name="seven" unicode="7" horiz-adv-x="2482" 
d="M71 -102q-3 0 -3 5q0 15 49 169q37 123 37 141q0 3 -1 3q-6 0 -49 -105q-33 -84 -44 -84q-10 0 -10 30q0 37 13.5 83t14.5 64q0 18 -10 23t-10 21q0 25 24 104q31 98 61 167q17 34 17 49q0 5 -3 5q-11 0 -36.5 -55t-68.5 -120l-42 -63l9 50q22 105 145 320
q155 272 426 620q189 241 282 349q134 153 333.5 368t345.5 363l209 214l-101 -12q-123 -11 -491 -11q-464 0 -585 12q-104 11 -104 24l1 4q0 3 -7 6.5t-22.5 3.5t-26 3.5t-10.5 7.5q0 7 24 7q11 0 23.5 -1.5t21.5 -1.5q32 0 45 27q9 18 23 23.5t35 5.5l15 -1l23 -1
q35 0 44 7v1q0 9 -90 11l-99 2l120 14q120 13 213 55q88 41 110 43q18 0 60 22q37 22 399 35q349 14 371 21q16 9 162 16q188 9 393 36q82 12 123 12q42 0 42 -14q0 -26 -95 -127l-43 -48q-297 -337 -668 -724q-715 -744 -1017 -1209q-97 -147 -149 -216q-64 -82 -260 -468
q-48 -97 -55 -97l-1 1q0 13 15 43q10 19 10 22l-1 1q-2 0 -17 -20q-24 -32 -51 -106q-31 -84 -57 -118q-9 -12 -12 -12zM1064 1832q4 0 16 11q17 22 111 120l94 100q-223 -215 -223 -228q0 -3 2 -3zM1453 2228q6 0 105 101q87 87 87 100l-1 1q-15 -2 -103 -100t-88 -102z
M1741 2098q-3 0 -3 6t26 25q15 13 17 13l1 -1q0 -2 -13 -17q-21 -26 -28 -26z" />
    <glyph glyph-name="eight" unicode="8" horiz-adv-x="2503" 
d="M539 -286q-81 0 -143 21q-76 28 -118.5 58.5t-52.5 30.5q-23 6 -109 154q-106 179 -106 413q0 140 79 333q58 143 134 244q71 89 188.5 191.5t205.5 152.5q48 28 165 111q269 190 360 241q77 43 77 56q-4 14 -76 137q-202 341 -202 583q0 94 30 173q52 129 220.5 254.5
t383.5 209.5q228 89 424 89q84 0 132 -9q54 -10 110 -39q101 -52 169 -144q83 -114 83 -239q0 -91 -38 -195q-66 -184 -212 -302q-113 -91 -199 -137q-35 -20 -47 -20q-3 0 -5 2t-6 2q-22 0 -96 -50q-41 -27 -105.5 -70t-123.5 -80q-117 -76 -117 -86q0 -1 2 -1q12 0 115 57
q90 51 110 51q1 0 1.5 -1t0.5 -2q0 -7 -17 -14t-17 -17l1 -5q0 -16 -79 -64q-87 -54 -87 -59q0 -3 65 -107q276 -426 276 -737q0 -53 -8 -103q-89 -558 -791 -915q-226 -112 -364.5 -140t-212.5 -28zM553 26q73 0 181 37q292 99 500 254.5t304 344.5q63 124 63 252
q0 185 -155 449l-60 101l-320 -225q-289 -202 -436.5 -323t-206.5 -216t-82 -219q-14 -63 -14 -122q0 -101 41 -193q44 -109 98.5 -124.5t86.5 -15.5zM905 84q15 0 50 21q25 13 25 19q0 1 -3 1q-11 0 -51 -20q-24 -14 -24 -19q0 -2 3 -2zM1007 126q6 0 87 44q75 45 75 49
l-1 1q-8 0 -83 -36q-87 -44 -87 -55q0 -3 9 -3zM1206 240q14 0 66 45l50 44l-104 -67q-18 -13 -18 -15q0 -7 6 -7zM1566 601q6 0 23 29q10 19 10 27q0 2 -2 2q-6 0 -23 -29q-10 -20 -10 -26q0 -3 2 -3zM1654 837q5 0 5 67q0 66 -5 66q-3 0 -3 -66q0 -67 3 -67zM1055 1305
q14 0 117 66q75 48 142 87q19 10 33 26.5t14 29.5q0 9 -12 9q-5 0 -134 -92q-162 -115 -162 -125q0 -1 2 -1zM1521 1854q19 0 47 21q18 15 18 19q-1 2 -4 2q-10 0 -38 -14q-16 -9 -24 -9q-3 0 -3 2q0 7 44 30q24 13 33 13q4 0 4 -3l-1 -2q-5 -8 -5 -11t3 -3q15 0 114 59
t110 62q31 4 60 23q12 7 12 12q0 12 79 57q34 19 56.5 36t22.5 23q0 13 -8 13q-11 0 -39 -15q-17 -9 -20 -9h-1q0 6 98 79q47 36 83.5 68.5t44.5 43t8 13.5q0 1 -2 1q-13 0 -41 -22q-14 -12 -22 -22q-27 -29 -104 -80.5t-91 -51.5q-1 0 -1 1q0 9 66 53q104 70 165.5 158.5
t61.5 135.5q0 14 -5 25q-3 5 -3 8q0 1 2 1t7.5 -3t8.5 -3q8 1 8 14q0 16 -13 38q-6 11 -6 20t5.5 16.5t5.5 19.5q0 30 -22 80q-28 61 -48 61q-3 0 -5 -1.5t-5 -1.5q-10 0 -29 17q-35 27 -89.5 29.5t-69.5 2.5q-80 0 -156 -18q-91 -26 -242 -99t-236 -133q-110 -77 -110 -198
q0 -105 112 -315q51 -97 99 -170t65 -73zM2153 2430q-1 0 -2 2t-1 8q0 13 25 35q15 13 18 13l1 -1q0 -3 -15 -22t-25 -34z" />
    <glyph glyph-name="nine" unicode="9" horiz-adv-x="2090" 
d="M19 -315q-9 0 -9 2q0 6 102 47q145 60 289 143q60 34 70 47q0 1 -1 1q-14 0 -132 -58q-168 -84 -195 -84q-5 0 -5 3q0 6 9.5 20t25 26.5t31.5 19.5q35 16 78.5 41.5t76.5 49t33 29.5q0 7 -10 7q-13 0 -18 -5q-11 -4 -14 -4q-1 0 -1 1q0 4 162 131q103 84 126 105
q30 29 90 78q34 26 34 37q0 1 -1 1q-13 0 -108 -71q-104 -79 -181 -120q-32 -18 -41 -18l-3 1q0 8 134 119q154 128 334.5 304.5t285.5 300.5q236 285 392 605q198 414 198 713q0 265 -156 438q-52 54 -132 100q-105 58 -189 58q-123 0 -276 -75q-109 -60 -251 -201
t-221 -267q-188 -308 -188 -560v-13q0 -134 64 -191t203 -57q235 0 400 103q161 100 285 312q39 69 61 128q14 41 23 41q3 0 6 -4.5t6 -4.5q8 0 15 32q12 57 32 57q3 0 3 -4q0 -5 -4 -15t-9 -34t-9.5 -51.5t-4.5 -39.5q0 -9 4 -9t13.5 9t13.5 9q3 0 3 -4q0 -8 -13 -50
q-17 -58 -51 -127q-20 -39 -20 -47q0 -3 1 -3q23 0 80 149q43 108 50 108q1 0 1 -3q0 -24 -47 -146q-54 -136 -69 -179q-20 -47 -43 -83q-18 -31 -18 -48q0 -3 1 -5t1 -4q0 -28 -83 -130q-37 -45 -68 -72q-44 -37 -44 -50.5t-61 -42t-138.5 -55t-136.5 -36.5
q-84 -12 -160 -12q-169 0 -301 61q-190 89 -265 290q-26 81 -26 209q0 165 34 281q185 570 592 900q310 247 605 247q262 0 482 -184q173 -142 243.5 -335t70.5 -389q0 -288 -150 -680q-116 -305 -269 -524q-44 -60 -147 -209q-151 -209 -398 -440t-467 -369
q-136 -83 -241.5 -140t-126.5 -58q0 9 68 44q58 31 58 35l-1 1q-12 0 -160 -64q-163 -69 -227 -69zM798 356q7 0 28 26q12 14 12 18q-7 0 -35 -28q-8 -8 -8 -10q0 -6 3 -6zM1796 2258q4 0 4 28q0 44 -18 101q-13 38 -15 38v-6q8 -38 18 -111q7 -50 11 -50zM1739 2488
q1 0 1 2q0 7 -16 41q-24 43 -30 43q-1 0 -1 -2q0 -9 16 -41q23 -43 30 -43zM1064 2754q5 0 13 2.5t14 6.5t6 7q0 5 -21 5q-9 0 -15.5 -4t-6.5 -9q0 -8 10 -8zM1144 2782q39 0 112 25q12 4 12 6q0 1 -7 1q-46 0 -95 -12q-34 -8 -34 -16q0 -4 12 -4z" />
    <glyph glyph-name="colon" unicode=":" horiz-adv-x="521" 
d="M298 490q-17 0 -20 17q-4 27 -4 47q0 34 11 47q5 8 5 12q0 6 -9 6t-9 7t7 20.5t8.5 25.5t1.5 18q0 10 -2 18q-11 49 -21 145q0 10 -16 10q-10 0 -10 -29q0 -17 2.5 -42.5t2.5 -42.5q0 -30 -8 -30t-8 -10q0 -5 2 -10t2 -11q0 -32 -36 -66q-18 -18 -34 -18q-22 0 -24.5 -7
t-2.5 -10q0 -9 14.5 -19t14.5 -20q0 -16 -27 -16q-41 0 -78 67q-50 90 -50 209q0 96 36 168q44 90 104.5 120.5t106.5 30.5q122 0 199 -139q19 -34 25.5 -71t6.5 -100v-47q0 -84 -12 -116q-28 -68 -95 -122q-53 -42 -83 -42zM349 1038q2 0 2 1q0 4 -5 11t-12.5 11t-14.5 4
t-7 -3q0 -4 11 -11q20 -13 26 -13zM311 1209q-25 0 -36 22q-3 6 -3 11q0 10 9 10t9 14q0 7 -3 15.5t-3 14.5q0 14 9 14q16 0 16 15q0 9 -8 9q-2 0 -5 -1.5t-5 -1.5q-5 0 -5 12q0 8 3 23q4 21 4 49q0 59 -12 116q-9 38 -18 38q-10 0 -10 -30q0 -14 2 -33t2 -33
q0 -34 -8.5 -34t-8.5 -10q0 -5 1.5 -11t1.5 -11q0 -32 -39 -76q-19 -21 -33 -21t-14 -9q0 -6 7.5 -20t7.5 -23q0 -15 -18 -15q-16 0 -45 19q-59 49 -72.5 127.5t-13.5 123.5q0 69 19 138q22 68 75 120q68 67 145 67q91 0 156 -73q76 -88 84.5 -164t8.5 -98q0 -106 -61 -201
q-67 -93 -139 -93zM114 1725q66 38 73 45t7 10t-5 3q-18 0 -44 -26zM339 1756q8 0 8 6q0 4 -3 9.5t-10 9.5t-13 4q-8 0 -8 -7q0 -3 3.5 -8.5t10 -9.5t12.5 -4z" />
    <glyph glyph-name="semicolon" unicode=";" horiz-adv-x="697" 
d="M147 473q-7 0 -7 9t-14 9q-7 0 -17.5 -3t-16.5 -3t-6 5q0 6 9 21q15 26 15 36q0 6 -6 6q-4 0 -13 -4l-6 -2q-15 0 -25 74q-10 80 -30 80t-20 14q0 32 64 89q123 114 167 283q15 68 26 70l7 1q11 0 30 -5q48 -10 68 -10t28 -10t76 -42q61 -30 63 -42l1 -12q0 -10 -4 -25
q-42 -203 -188 -377q-52 -64 -94 -98t-103 -63zM486 1408q-17 0 -17 17l-1 22q0 13 9 51q4 16 4 24q0 9 -5 9q-2 0 -6.5 -3t-6.5 -3t-2 3q0 5 8 20t9.5 30.5t1.5 24.5t-9 71q-4 26 -6 47q-6 58 -17 58q-8 0 -8 -44l2 -61q0 -37 -9.5 -37t-9.5 -18l2 -34q0 -20 -10 -20
q-6 0 -11 -6.5t-5 -14.5q-2 -22 -36.5 -22t-34.5 -14q0 -10 16 -26q10 -9 10 -18q0 -8 -7 -14t-15 -6q-30 0 -71 59q-53 75 -53 213q0 95 24 159q75 166 216 166q120 0 195 -130q36 -71 40 -135t4 -84q0 -78 -22 -128q-49 -97 -125 -137q-36 -19 -54 -19zM323 1948
q8 3 24 13.5t27 19.5t11 11t-3 2q-6 0 -26 -12q-38 -23 -38 -33q0 -1 2 -1h3zM530 1954q9 0 9 7q0 3 -3.5 8t-10 9.5t-12.5 4.5q-9 0 -9 -7q0 -4 3.5 -9t10 -9t12.5 -4z" />
    <glyph glyph-name="semicolon" unicode="&#x37e;" horiz-adv-x="697" 
d="M147 473q-7 0 -7 9t-14 9q-7 0 -17.5 -3t-16.5 -3t-6 5q0 6 9 21q15 26 15 36q0 6 -6 6q-4 0 -13 -4l-6 -2q-15 0 -25 74q-10 80 -30 80t-20 14q0 32 64 89q123 114 167 283q15 68 26 70l7 1q11 0 30 -5q48 -10 68 -10t28 -10t76 -42q61 -30 63 -42l1 -12q0 -10 -4 -25
q-42 -203 -188 -377q-52 -64 -94 -98t-103 -63zM486 1408q-17 0 -17 17l-1 22q0 13 9 51q4 16 4 24q0 9 -5 9q-2 0 -6.5 -3t-6.5 -3t-2 3q0 5 8 20t9.5 30.5t1.5 24.5t-9 71q-4 26 -6 47q-6 58 -17 58q-8 0 -8 -44l2 -61q0 -37 -9.5 -37t-9.5 -18l2 -34q0 -20 -10 -20
q-6 0 -11 -6.5t-5 -14.5q-2 -22 -36.5 -22t-34.5 -14q0 -10 16 -26q10 -9 10 -18q0 -8 -7 -14t-15 -6q-30 0 -71 59q-53 75 -53 213q0 95 24 159q75 166 216 166q120 0 195 -130q36 -71 40 -135t4 -84q0 -78 -22 -128q-49 -97 -125 -137q-36 -19 -54 -19zM323 1948
q8 3 24 13.5t27 19.5t11 11t-3 2q-6 0 -26 -12q-38 -23 -38 -33q0 -1 2 -1h3zM530 1954q9 0 9 7q0 3 -3.5 8t-10 9.5t-12.5 4.5q-9 0 -9 -7q0 -4 3.5 -9t10 -9t12.5 -4z" />
    <glyph glyph-name="less" unicode="&#x3c;" horiz-adv-x="2004" 
d="M1702 704q-50 0 -119 21q-50 16 -246 98.5t-499 202.5q-814 320 -828 340q0 9 283.5 136t413.5 191q309 151 636 284q138 56 156 56h1q15 -5 15 -13q0 -7 -7 -15t-10 -17t-3 -16l1 -10q0 -9 -8 -22t-24.5 -27.5t-34.5 -30.5q82 41 97 41q4 0 4 -2q0 -7 -41 -37
q-47 -33 -83 -106l-49 -100q-15 -38 -489 -247q-78 -36 -78 -43q0 -5 116 -53q249 -104 515 -200q122 -47 179 -78q69 -37 87 -37q24 0 117 -49q78 -43 78 -53q0 -1 -2 -2t-2 -3q0 -9 43 -27q73 -29 73 -47q0 -5 -8 -5q-16 0 -89 20q-61 17 -80 17l-3 -1q0 -6 53 -30
q47 -22 47 -36t-41 -14l-34 2q-33 0 -33 -11.5t-39 -11.5q-48 0 -126 13q-24 4 -35 4q-9 0 -9 -3q0 -7 62 -35q65 -31 65 -37q0 -7 -22 -7zM824 1064q4 0 4 2q0 10 -67 39q-57 24 -71 24q-3 0 -3 -2q0 -6 61 -34q55 -27 76 -29zM658 1135q15 0 15 3t-15 11q-21 14 -49 14
q-8 0 -8 -2q0 -3 14 -12q21 -14 43 -14zM363 1266q3 0 3 1q0 5 -25 19q-35 21 -50 21q-3 0 -3 -1q0 -5 25 -20q33 -20 50 -20zM267 1308q4 0 4 1q0 6 -31 21q-47 23 -80 33q-14 4 -18 4q-2 0 -2 -1q0 -5 15.5 -15t38.5 -19q55 -24 73 -24z" />
    <glyph glyph-name="equal" unicode="=" horiz-adv-x="1056" 
d="M131 794q-115 0 -117.5 12.5t-2.5 27.5q0 22 8 44q6 15 12.5 15t10.5 4.5t4 10.5q0 9 -9 9q-2 0 -6 -2q-8 -5 -11 -5t-3 2q0 13 21.5 29t26.5 39q6 29 24 68q13 30 30 40t148 10q42 0 289 19q291 23 363 23q56 0 60 -12q12 -15 39 -25q17 -6 17 -11q0 -7 -32 -24t-32 -22
q0 -3 23.5 -5.5t23.5 -11.5q0 -17 -44 -82q-15 -22 -27 -36q-19 -21 -19 -28q0 -5 16.5 -5t19 -7t2.5 -10q0 -24 -31 -32q-87 -17 -625 -32q-115 -3 -179 -3zM599 836q20 0 20 5q0 7 -13 7q-8 0 -15.5 -3t-7.5 -5q0 -3 16 -4zM156 1269h-50q-90 0 -92 14q-4 11 -4 24
q0 23 11 46q6 14 13 15t7 4t-11.5 11t-11.5 15q0 5 7.5 10t21.5 29.5t29 56.5q16 36 26.5 52t23.5 20t38 4q212 5 638 41q49 4 94 4q44 0 63 -4t25.5 -6.5t6.5 -4.5q0 -1 -2.5 -1t-2.5 -2q0 -1 4.5 -5t21 -10.5t34.5 -14.5l-43 -23q-30 -15 -30 -23q0 -4 11.5 -6t18.5 -7.5
t7 -11.5q0 -14 -19 -46.5t-44 -63.5q-19 -21 -19 -28q0 -4 16.5 -4t19 -7.5t2.5 -10.5q0 -24 -31 -32q-82 -14 -625 -31q-116 -4 -154 -4zM470 1310q2 0 6.5 4.5t7.5 10t3 8.5q0 6 -9 6q-15 0 -15 -14q0 -15 7 -15zM606 1312q13 0 13 4q0 7 -13 7q-8 0 -15.5 -3t-7.5 -5
q0 -3 23 -3z" />
    <glyph glyph-name="greater" unicode="&#x3e;" horiz-adv-x="1769" 
d="M31 643q-20 0 -21 6q0 5 73 52q64 42 64 53q0 2 -3 2q-10 0 -47 -19.5t-48 -19.5q-10 0 -10 18q0 8 10.5 21t26.5 23q30 21 30 40v6q0 25 58 77q27 25 55 42q19 11 19 13q0 1 -2 1q-16 0 -93 -22q-12 -3 -19 -3q-10 0 -10 6q0 20 80 66q68 39 219 99q142 56 323.5 136.5
t288.5 124.5l-209 105q-463 233 -467 251q2 2 2 4q0 3 -2.5 8.5t-10 14.5t-7.5 12t5 3q7 0 23 -4.5t25 -4.5q15 0 15 18.5t11 18.5q4 0 10 -2q10 -4 23 -8.5t25 -9t15 -4.5q2 0 2 1q0 2 -41 34q-41 27 -41 29l29 -8q41 -13 65 -13h27q40 0 56 12t89 21q23 3 41 3
q34 0 80 -19q30 -12 213 -104l58 -31q26 -14 698 -348q-149 -68 -288 -125q-269 -113 -564 -244q-134 -59 -157 -71q-39 -22 -166 -76.5t-142.5 -54.5t-90.5 -35q-83 -39 -233 -93l-3 -1q-1 0 -1 1q0 4 18 18t18 19q0 2 -4 2q-14 0 -50 -19q-17 -10 -37 -16t-28 -6z
M956 1293q26 6 48.5 16.5t22.5 15.5q0 1 -3 1q-8 0 -32 -7q-46 -17 -46 -23q0 -3 6 -3h4z" />
    <glyph glyph-name="question" unicode="?" horiz-adv-x="1751" 
d="M654 -382q-24 0 -35 10t-11 17t8.5 12.5t8.5 18.5q0 5 -1.5 9t-1.5 7q0 16 18 28q17 9 17 12q0 2 -19 2h-3q-15 0 -15 7q0 5 8 13.5t8 25.5t-8 40q-13 35 -23 35q-6 0 -14.5 -7t-11.5 -15t-3 -13q0 -4 1 -6.5t1 -5.5q0 -18 -30 -52q-20 -23 -33 -28t-24 -5
q-10 0 -21.5 2.5t-20.5 2.5q-22 0 -22 -10q0 -8 21.5 -17.5t21.5 -23.5t-21 -14q-62 0 -98 70.5t-36 157.5q0 193 158 267q68 36 131 36q48 0 94 -21q104 -39 156 -157q33 -71 33 -135q0 -128 -131 -231q-46 -32 -102 -32zM449 108l63 18q21 7 21 15q0 3 -7 3q-15 0 -41 -15
zM691 110q6 0 6 5q0 12 -16 19q-11 4 -26 4q-10 0 -10 -3t13 -11q22 -14 33 -14zM662 314q-7 0 -27 47q-23 62 -32 157l-10 102q-11 -175 -16 -193.5t-12 -18.5q-11 0 -21 35q-8 26 -11 61q-7 76 -23 76q-2 0 -4.5 -1.5t-4.5 -1.5q-12 0 -12 48q0 89 12 174q6 48 13 69
q12 34 12 57q0 9 -3 9q-11 0 -43 -98q-46 -140 -58 -140q-3 0 -3 15q0 170 116 402q102 205 382 630q197 301 301.5 472t148 271.5t58.5 188.5q7 36 7 64q0 62 -37 85q-27 16 -78 16q-53 0 -133 -17q-171 -37 -370.5 -145t-361.5 -251q-53 -49 -96.5 -108.5t-43.5 -83.5
q0 -11 48 -27t110.5 -28.5t113.5 -14.5q19 -1 32 -4t13 -7.5t9.5 -11t22.5 -10.5q18 -6 18 -9q0 -5 -40 -8q-50 -4 -50 -21q0 -3 2 -7t2 -7q0 -13 -22 -13q-29 0 -29 -9q0 -16 47 -23q8 -1 8 -3q0 -5 -90 -8q-179 -7 -193 -12q-5 -2 -9 -5q-8 -5 -23 -5q-38 0 -97 21
q-37 13 -58 29q-36 29 -63 39q-22 9 -37.5 58t-16.5 114q6 158 199.5 353.5t496.5 349.5q362 179 606 179q79 0 145 -19q151 -42 217.5 -135.5t66.5 -246.5v-24q0 -120 -48 -257q-50 -141 -193 -382.5t-420 -663.5q-87 -135 -106 -173q-27 -60 -73 -136q-21 -34 -33 -48
q-25 -31 -67.5 -126t-77 -191.5t-36.5 -131.5q0 -23 -19 -44q-22 -25 -22 -84q0 -39 10 -93q9 -48 9 -65q0 -11 -3 -11zM509 2040q3 0 12 13l1 3q0 10 -34 10h-14q-27 0 -27 -3t50 -18q11 -4 12 -5zM1269 2228q10 6 57 83q52 83 52 96q0 3 -2 3q-9 0 -75 -116
q-34 -59 -34 -66h2zM1382 2429q3 0 17 19q22 29 22 42q0 9 -3 9q-6 0 -25 -43q-11 -22 -11 -26v-1zM1472 2813q5 0 5 8q0 17 -19 36q-13 15 -17 15q-1 0 -1 -2q0 -6 12 -31.5t20 -25.5z" />
    <glyph glyph-name="at" unicode="@" horiz-adv-x="2745" 
d="M838 252q-140 0 -198 8q-82 14 -173 45t-152 66q-108 64 -186.5 176t-106.5 243q-12 64 -12 149q0 190 49 365q114 376 379.5 706.5t584.5 496.5q217 113 422 113q100 0 197 -27q225 -58 393 -225q197 -200 197 -474q0 -348 -303 -756q-259 -341 -543 -475
q-64 -29 -64 -35q0 -1 4 -1q52 0 260 79q157 60 321 135.5t265 136.5q92 58 105 58q4 0 4 -3q0 -4 -5 -11t-5 -9t2 -2t8.5 4t9 9t2.5 8l-2 7q0 16 63.5 61.5t84.5 45.5l5 -1q20 0 102 75q118 109 189 170l-33 -47q-40 -55 -137 -150t-195 -174q-114 -89 -114 -94q11 0 79 47
q39 28 183 137q87 67 92 67q0 -3 -6 -9q-19 -21 -19 -42q-4 -24 -116.5 -117t-112.5 -109q0 -4 5 -4q6 0 21 5h2q2 0 2 -1q0 -7 -31 -34q-77 -65 -201 -146.5t-226 -133.5q-112 -57 -112 -64q0 -1 3 -1q32 0 296 130q137 68 147 68q2 0 2 -1q0 -20 -131 -97
q-73 -43 -159 -86q-534 -267 -1051 -281zM828 568q134 0 307 25q127 18 127 34q0 8 -46 8q-111 0 -182 113q-26 41 -32 71t-6 76l3 167q-130 -9 -153 -9q-65 0 -115 26q-61 30 -84 69.5t-23 100.5q0 74 23.5 132t77.5 130q115 149 299 255t381 136q37 5 88 5q106 0 202 -12
q72 -9 96 -22q16 -8 16 -12q0 -3 -13 -3q-2 0 -2 -1q0 -3 34 -19q75 -37 94 -37q3 0 3 102q0 234 -257 349q-108 51 -221 51q-295 0 -631 -342q-412 -424 -488 -903q-7 -49 -7 -99q0 -125 33 -192q22 -36 79.5 -84.5t105.5 -69.5q111 -45 291 -45zM1333 998q3 0 8 2
q23 9 36.5 9t76.5 59q155 145 238 258q64 85 113 171.5t88 201.5q16 49 16 67q0 7 -16 19q-41 28 -120 46q-45 10 -72 10q-23 0 -23 -8q0 -14 18 -22l1 -1q0 -6 -122 -6q-137 0 -161 -13l-1 -2q0 -6 51 -6l96 2q93 0 140 -11q27 -6 27 -8t-16 -2q-22 0 -76 4q-33 2 -62 2
q-159 0 -296 -84q-64 -40 -64 -63l1 -11q0 -13 -13 -13q-20 0 -36 -57q-9 -32 -9 -43q0 -6 4 -6q5 0 16 7t18 7q9 0 9 -16q0 -25 14 -28t19 -3q21 0 52 16l44 23q64 -110 73 -133.5t9 -34.5q0 -5 -51 -147q-44 -120 -44 -162q0 -24 14 -24zM2313 1042q7 0 65 40t58 51
q0 2 -2 2q-11 0 -62 -38q-60 -45 -60 -54zM346 1816q6 3 13 22q3 7 3 11t-3 4q-2 0 -6.5 -3t-9 -9.5t-4.5 -11.5q0 -13 5 -13h2zM408 1923q225 241 225 251q-1 2 -3 2q-20 0 -133 -142zM696 2231q6 0 41 27q70 53 82 76q0 1 -1 1q-14 0 -88 -66q-35 -30 -35 -37q0 -1 1 -1z
M1963 2362q3 0 3 6q0 7 -25 25q-15 13 -18 13q0 -3 13 -18q20 -26 27 -26zM1908 2408q0 33 -161 104q-70 30 -84 30q0 -5 91 -55q102 -57 154 -79zM1382 2565q20 0 20 5q0 6 -12 7q-8 0 -15.5 -3t-7.5 -5q0 -3 15 -4zM1469 2565q20 0 20 5q0 6 -13 7q-8 0 -15.5 -3t-7.5 -5
q0 -3 16 -4z" />
    <glyph glyph-name="A" unicode="A" horiz-adv-x="4116" 
d="M2833 -533q-42 0 -98 30q-65 32 -100 97q-17 29 -24 55q-12 40 -12 219q0 123 12 235.5t50 333.5q91 530 232 1173q35 170 35 198v3q-11 6 -258 6q-280 0 -402 -7q-117 -7 -228 -24q-204 -31 -285 -51.5t-94 -45.5q-31 -51 -110 -313q-32 -105 -46 -172
q-21 -109 -21 -199q0 -75 15 -136q16 -68 18 -101q5 -43 30 -87q17 -26 17 -31v-1q-18 0 -89 126q-38 71 -45 71q-2 0 -2 -8l1 -15q2 -19 2 -29q0 -13 -3 -13q-11 0 -32 95q-12 62 -12 142q0 33 2 69q2 41 2 66q0 39 -5 39l-2 -1q-13 -23 -13.5 -67.5t-0.5 -54.5
q0 -190 29 -279q22 -71 22 -81v-1q-4 0 -35 75q-42 118 -42 304q0 84 11 164q7 52 14 102.5t10 76t9 54.5t12.5 50t6.5 42t-7 40l-3 8q-4 12 -9 17.5t-20 5.5q-27 -1 -138 -30q-51 -11 -163 -42q-132 -36 -307 -90q-8 -2 -13 -2q-7 0 -7 4l2 7q0 2 -6 2q-34 0 -180 -52
q-77 -27 -293 -115q-59 -24 -88 -34q-67 -25 -80 -34q-31 -19 -71 -29q-12 -4 -17 -4q-4 0 -4 2q0 18 312 154q298 130 477 190q70 22 70 30q0 1 -0.5 1h-2.5q-20 0 -131 -35q-122 -39 -285 -99q-150 -56 -176 -56q-1 0 -2.5 1t-1.5 3q0 4 10 4q15 0 42 27q32 30 252 117
q219 89 219 106l-1 3q0 35 470 179q83 25 143.5 44t73 23t12.5 10q0 2 -1.5 3t-3.5 1q-33 0 -231 -45q-202 -46 -230 -46h-3q0 12 209 77q88 27 172 49q57 14 84 24t38.5 25.5t24.5 46.5q22 50 22 71l-1 8q0 35 136 281q182 329 559 814q256 329 495 589q56 62 78 90
q49 60 231 208q78 64 139 108q173 118 288 118q87 0 140 -86q43 -70 44 -177q-12 -334 -260 -1524q-97 -462 -99 -489q2 -16 143 -83q458 -219 458 -705q0 -195 -64 -385q-56 -164 -200 -449q-202 -400 -394.5 -659t-324.5 -308q-60 -22 -97 -22zM2779 -492q5 1 5 3
q0 5 -29 20q-19 10 -39.5 30t-31.5 41q-24 42 -32 42q-2 0 -2 -3q0 -7 14 -35q18 -34 54.5 -65t60.5 -33zM2639 -334q1 0 2 52t1 124.5t3 144.5t7 104t4 44q0 8 -1 8q-2 0 -8 -15q-10 -29 -16 -101.5t-7 -124.5t-1 -71q0 -165 16 -165zM2928 -87q13 0 38 24q21 20 42 49
q135 184 304 502.5t244 530.5q31 86 36.5 125t5.5 78q0 211 -73 326.5t-250 181.5q-20 7 -27 7h-2q-12 -19 -114 -516q-95 -459 -153 -783q-69 -388 -69 -476q0 -49 18 -49zM2670 258q7 9 21 77q5 30 5 49q0 8 -2 8q-4 0 -12 -29q-15 -56 -15 -97q0 -8 2 -8h1zM2698 418
q6 0 7 13q0 7 -3 14.5t-5 7.5q-3 0 -4 -15q0 -20 5 -20zM1505 765q3 0 4 7q0 9 -10.5 26.5t-13.5 17.5q-2 0 -2 -2q0 -7 9 -31q7 -18 13 -18zM2885 1310q7 0 7 13q0 8 -3 15.5t-5 7.5q-3 0 -4 -15q0 -21 5 -21zM2900 1388q6 0 6 21t-6 21q-4 0 -4 -21t4 -21zM2914 1454
q6 0 7 14q0 7 -3 14.5t-5 7.5q-3 0 -4 -15q0 -21 5 -21zM2955 1646q6 0 19 56q16 63 16 87q0 4 -1 5l-1 1q-8 0 -21.5 -51.5t-13.5 -83.5q0 -14 2 -14zM1869 2075q6 0 13 2q39 9 205 33q173 25 551 25q371 2 371 3q0 6 115 553q228 1097 228 1251q0 11 -1 17l-2 1
q-31 0 -307 -281q-121 -123 -219 -233q-481 -548 -816 -1101q-24 -41 -53.5 -87.5t-49.5 -78.5q-46 -70 -46 -93q0 -11 11 -11zM583 1425q-4 0 -4 2q0 3 10 9.5t22.5 10.5t21.5 4t9 -3q0 -4 -16 -11q-32 -12 -43 -12zM1358 1511q-1 0 -1 2q0 4 4 15t8.5 15t6.5 4q5 0 5 -7
q0 -8 -12 -20q-8 -9 -11 -9z" />
    <glyph glyph-name="B" unicode="B" horiz-adv-x="6206" 
d="M2071 -130h-76q-108 0 -161 11q-144 38 -232 183q-8 14 -13 14q-7 0 -15 -45q-6 -32 -14 -56q-12 -36 -17 -36q-3 0 -4 11q0 19 21 101q14 53 14 102q0 26 -3.5 51.5t-3.5 64.5q0 70 4 120q6 55 6 94q-2 30 -12.5 42.5t-10.5 15.5l10 -4q6 -3 13 -3q5 1 5 8
q0 15 -11.5 15t-21.5 133q-10 139 -33 213q-29 91 -111 213q-57 85 -78 85q-3 0 -3 -3q0 -11 30 -56q15 -20 15 -24h-1q-6 0 -54 46q-95 92 -240 152.5t-385 109.5q-178 37 -267 61t-136 49q-214 113 -214 330l1 50q0 50 -8 52q-8 0 -8 -73q0 -108 12 -156q9 -36 34 -71
q54 -90 164.5 -145t371.5 -122q141 -39 247 -76q74 -26 74 -30q0 -1 -2 -1q-6 0 -110 23q-69 14 -156 33q-342 69 -487.5 154t-185.5 239q-19 62 -19 130q1 62 27 159q105 385 407 744q280 322 702 571.5t922 400t1014 173.5q64 2 125 2q313 0 557 -64q293 -78 456 -241
q91 -89 124 -162t33 -185q0 -110 -23 -177q-81 -211 -361 -467.5t-728 -527.5q-171 -103 -171 -111q13 0 68 11q65 12 159 33q1414 307 2220 349q65 3 125 3q661 0 661 -338q0 -273 -390 -590q-369 -300 -1120 -674q-672 -332 -1381.5 -580.5t-1188.5 -320.5
q-99 -13 -166 -13zM2007 170q76 0 216 22q404 67 1022.5 274.5t1064.5 427.5q94 47 224 101q256 109 513.5 252t473 291.5t348.5 274.5t133 195q0 39 -75 53.5t-254 14.5q-306 0 -800 -65q-472 -63 -858 -151q-87 -22 -129 -27q-117 -20 -763 -161q-257 -57 -389 -88
q-114 -28 -252 -60q-278 -64 -325 -88q-28 -15 -28 -29q0 -11 5 -19t14 -8.5t9 -3.5t-6 -7q-14 -11 -25 -28.5t-13.5 -27.5t-2.5 -13q0 -7 5 -7t5 -4q0 -11 -19 -34q-30 -40 -30 -64.5t-13.5 -59t-89.5 -279.5q-55 -177 -60 -209q-4 -22 -4 -31q0 -7 1.5 -10t1.5 -11
q0 -32 -15 -110q-22 -115 -22 -181q0 -67 26.5 -98t66.5 -31.5t44 -0.5zM1603 586q3 0 11.5 21.5t8.5 61.5q0 39 -9 98q-24 200 -112 340q-44 70 -112 140.5t-126 105.5q-24 14 -26 14q0 -1 13 -10q66 -49 142 -136.5t112 -158.5q40 -83 65 -193.5t27 -211.5q1 -71 6 -71z
M1665 793q2 0 4 5q4 12 10 29t11.5 33t93.5 233q74 184 110 269q2 3 2 6q0 6 -13 6q-10 0 -25.5 -3t-29.5 -3q-52 0 -93 35q-52 44 -52 114q0 22 28 59.5t64.5 70t66.5 42.5q16 6 53.5 22.5t81 38.5t67 37.5t37.5 37.5t32 63q80 179 156 398t105 354q13 67 22 67
q3 0 5.5 -7.5t5.5 -7.5q11 0 20 81q4 45 4 93t9 48q3 0 7 -4q6 -2 6 -32q0 -69 -52 -397q39 63 43 63q1 0 1 -1q0 -30 -33 -145t-81 -254q-67 -189 -67 -211q0 -2 1 -2q5 0 49 114q95 253 162 501q27 100 33 100q1 0 1 -4q0 -33 -51 -212q-42 -149 -105 -350
q-38 -116 -38 -139q0 -9 6 -9q16 0 209 109q413 231 649 381q412 262 636 475t239 357q3 22 3 37q0 35 -18.5 41.5t-18.5 16.5l2 6q0 23 -89 91q-138 106 -449 152q-88 11 -257 11q-125 0 -248 -6q-141 -6 -217 -19l-245 -45q-574 -110 -1162 -434q-154 -88 -342.5 -233
t-313.5 -270q-230 -248 -351 -580q-33 -94 -33 -149q0 -78 82 -117q42 -23 210 -72q102 -30 302 -87q158 -47 276 -105q63 -31 124.5 -73t98.5 -75.5t37 -47.5q0 -2 -1 -3.5t-1 -4.5t1.5 -8t8 -9t8.5 -4t2 2q0 3 -5 11l-2 5q0 2 1 2q4 0 21 -14q28 -26 29 -34t1 -9
q0 -4 -3 -4q-5 0 -20.5 12t-18.5 12q0 -3 12 -17q16 -22 31 -22h3q14 0 49 -62q21 -39 21 -42q-1 0 -4 4q-43 61 -48 61q-1 0 -1 -2q0 -6 20 -45q32 -61 45 -61q2 0 3.5 2.5t4.5 2.5q6 0 12 -19q2 -10 2 -15q0 -8 -4 -8q-3 0 -6.5 2.5t-6.5 2.5t-3 -4t3.5 -13.5t13.5 -47.5
t21 -85q20 -89 30 -89zM1647 937q-6 0 -13.5 19.5t-7.5 39.5q0 4 2 4q4 -1 13 -22q9 -27 9 -35q0 -6 -3 -6zM2452 2563q-5 0 -5 20q1 16 4 16q2 0 4.5 -6.5t2.5 -12.5q0 -17 -6 -17zM3043 1912q9 0 15.5 4.5t6.5 9.5q0 8 -10 8q-5 0 -13 -2.5t-14 -7t-6 -6.5q0 -6 21 -6z
M3157 1942q21 0 21 5q0 7 -13 7q-8 0 -15.5 -3t-7.5 -5q0 -3 15 -4zM2953 1960q14 0 159 86q92 54 92 62q0 1 -1 1q-12 0 -128 -67q-125 -73 -125 -80q0 -2 3 -2zM3363 1986q40 4 157 29l113 23q232 49 232 58q0 1 -1 1q-34 0 -261 -46q-250 -52 -250 -63q0 -2 5 -2h5z
M4007 2115q20 0 20 5q0 6 -13 7q-8 0 -15.5 -3t-7.5 -5q0 -3 16 -4zM3241 2132q7 0 40 19q51 28 51 37q0 1 -1 1q-9 0 -42 -19q-51 -30 -51 -36q0 -2 3 -2zM4086 2130q13 0 13 5q0 6 -13 6q-8 0 -15.5 -3t-7.5 -5q0 -3 23 -3z" />
    <glyph glyph-name="C" unicode="C" horiz-adv-x="4714" 
d="M756 -679q-301 0 -491 212q-210 224 -257 712q-8 71 -8 147q0 484 318 1181q232 507 621 1055t832 990q564 556 939 730.5t606 174.5q150 0 278 -56q155 -65 169.5 -136.5t14.5 -95.5q0 -117 -99 -308q-119 -232 -397 -625q-443 -631 -637.5 -925.5t-288.5 -476.5
q-179 -334 -179 -454v-4q-1 -32 -5.5 -54t-9.5 -22.5t-5 -3.5q0 -5 8 -14q17 -19 17 -27q0 -6 -5 -6q-7 0 -23 13q-28 28 -37 84q-8 48 -13 48t-16 -24q-10 -17 -14 -17q-2 0 -2 11q0 43 35 167q39 143 70 204q14 27 14 37q0 2 -1 2q-9 0 -39 -62q-80 -166 -99 -333
l-10 -101l-2 79q0 72 31 197t75 226q36 84 36 100.5t44 109.5q32 68 32 91q0 7 -3 8q-8 2 -8 10t7.5 22t7.5 22q0 6 -3 6t-3 1q0 5 22 20q29 22 37.5 61t86.5 188q72 132 72 152v3q0 39 297 465q678 965 678 1061q0 18 -13 27t-48.5 11.5t-87.5 2.5q-109 0 -158.5 -9.5
t-117.5 -36.5q-285 -112 -640 -398q-119 -96 -280 -251.5t-281.5 -284t-120.5 -150.5v-1q2 -5 2 -7t-2 -2l-8 2q-33 0 -279 -321l-62 -81q-70 -90 -150 -209q-221 -325 -329 -502q-95 -160 -212 -397t-184 -404q-49 -128 -92.5 -291t-62.5 -289q-10 -83 -10 -170
q0 -157 33 -328q13 -63 42.5 -140t57.5 -130.5t40 -53.5l5 1q13 0 22 -25q24 -56 108 -75t154 -19q54 0 115 8q61 11 178 47q125 38 258 94q163 68 413 202q234 126 407 232q77 47 220 124q162 87 169.5 87t357.5 187q365 194 463 235q202 86 499 177q120 37 155 40
q49 2 49 12l-1 6q0 6 9 6q16 0 16 -15q0 -10 6 -10q3 0 6 2q17 8 110 20t200 21.5t167 9.5q109 0 268 -38q77 -19 77 -29q0 -3 -6 -3q-8 0 -23 3q-133 31 -313 31q-131 0 -281 -26q-174 -31 -274 -59q-47 -13 -47 -19h4q22 0 144 26q133 29 300 36l92 1q26 -1 26 -2t-6 -2
q-47 -7 -47 -18.5t-105 -20.5q-124 -13 -260 -53q-79 -23 -79 -37q0 -5 12 -6q1 0 1 -1q0 -8 -157 -71q-200 -80 -518 -239q-172 -86 -172 -101l1 -1l2 1q283 134 397.5 178t215.5 74q41 12 50 12h2q-7 -7 -269 -130q-453 -214 -1209 -640q-336 -189 -664.5 -352
t-480.5 -217q-288 -96 -497 -96zM88 830q5 0 41 120q47 161 72 221q22 51 22 62q0 3 -2 3q-12 0 -47 -101q-70 -206 -86 -295l-1 -7q0 -3 1 -3zM254 1325q4 0 28 52t24 68q0 2 -2 2q-6 0 -28 -53.5t-22 -66.5v-2zM316 1470q12 0 19 17q4 9 4 24q0 12 -3 12q-4 0 -11 -14
q-14 -22 -14 -32q0 -7 5 -7zM734 2229q6 0 23 29q10 19 10 27q0 2 -2 2q-6 0 -23 -29q-10 -20 -10 -26q0 -3 2 -3zM794 2324q7 0 45 55q25 35 25 42q0 1 -1 1q-6 0 -45 -54q-25 -34 -25 -43q0 -1 1 -1zM917 2503q7 0 120 155q91 127 91 141q-8 0 -94 -119
q-118 -161 -118 -176q0 -1 1 -1zM1177 2863q8 0 33 29q20 22 20 27q0 1 -1 1q-7 0 -33 -28q-20 -24 -20 -28q0 -1 1 -1zM4218 1107q-15 1 -15 4q0 2 7.5 5t15.5 3q12 -1 12 -7q0 -5 -20 -5zM4306 1123q-24 1 -24 4q0 6 29 6q23 0 23 -6q0 -3 -28 -4zM2202 2071q-1 0 -1 3
q0 6 5 18q7 22 22 22q6 0 6 -4q0 -6 -8 -16.5t-15 -16.5t-9 -6zM1511 2791q-1 0 -1 2q0 8 10 27q14 28 22 28q2 0 2 -3q0 -5 -10 -25q-16 -29 -23 -29z" />
    <glyph glyph-name="D" unicode="D" horiz-adv-x="4697" 
d="M1690 41q-243 0 -243 13.5t-21 13.5h-13q-23 0 -45 9q-11 5 -19 5q-10 0 -13.5 -8.5t-9 -13.5t-11.5 -5q-8 0 -8 7q0 3 2 6t2 5q0 12 -25.5 16.5t-155.5 29.5q-150 30 -299 83t-251 114q-145 88 -145 100l8 -2q12 -5 39 -21q379 -228 965 -273q69 -4 100 -4q24 0 24 2
q0 10 -163 25q-133 13 -285.5 44t-222.5 59l-51 22q108 -6 159 -13q39 -6 62 -12q83 -21 200.5 -33.5t221.5 -12.5q84 0 97 14.5t175 30.5q440 37 820 161q97 32 102 38l4 5q0 2 -4 2q-14 0 -81 -20q-376 -109 -645 -109q-24 0 -24 2q0 6 245 52q811 164 1514 677
q177 134 385.5 341.5t320.5 362.5q355 510 355 938q0 339 -232 583q-172 186 -437 299t-661 170q-147 19 -474 19q-436 0 -677 -27q-216 -26 -462 -68t-434 -84q-226 -53 -449.5 -122.5t-359.5 -127t-136 -81.5l1 -4q10 -6 146 -13.5t349 -13.5q395 -8 624 -38.5
t373.5 -105.5t288.5 -218q127 -122 133 -122q4 6 93 217q93 218 133 316q21 48 33 48l3 -1q14 0 52 86.5t46 86.5l1 -2q0 -17 -51 -142q-72 -167 -72 -221q0 -1 1 -1q4 0 17 18q10 12 16 24t6 19t4 7q2 0 4 -2q0 -33 -78 -229q-101 -264 -101 -280q0 -6 4 -6q6 0 46 104
q71 189 175 432q21 49 27 49h1l-18 -58q-19 -54 -51 -133q-79 -203 -128 -349l-54 -164l41 -83q156 -326 186.5 -613.5t30.5 -428.5q0 -263 -55 -499q-47 -186 -135 -314.5t-170 -166.5t-137 -38q-52 0 -104 24q-231 106 -231 567q0 382 250 1134l79 235l-48 80
q-84 137 -217 244.5t-270 150.5q-78 24 -162 37t-227 20.5t-397 14.5q-214 6 -372.5 13.5t-188.5 13.5l-101 22q-44 12 -99 49t-86 77q-22 34 -36 106q-9 41 -9 60q0 18 7 18t36 53q60 105 282.5 221t551 220t706.5 174q394 72 680.5 100.5t630.5 28.5q282 0 462.5 -15
t373.5 -55q360 -74 647 -230.5t443 -365.5q91 -124 112 -154q22 -34 22 -42q7 -26 31 -79q81 -185 81 -470q0 -293 -119 -582q-120 -294 -392 -654q-42 -56 -140 -159q-224 -238 -384 -373q-434 -354 -1094 -627q-239 -99 -434 -147q-337 -83 -813 -83zM1663 115q21 0 21 4
q0 6 -21 6t-21 -6q0 -4 21 -4zM2240 776q43 0 99 159q19 56 32 110q35 149 35 371q0 259 -47 516q-7 30 -16 30q-8 0 -26 -69q-30 -113 -52 -249q-7 -48 -7 -64q0 -8 1 -10.5t1 -9.5q0 -30 -23 -139q-18 -74 -25 -155t-8 -210q0 -227 9 -256q11 -24 27 -24zM2587 3240
q8 0 22 32q4 10 4 16q0 4 -2 4q-3 0 -12 -12q-14 -21 -14 -36q0 -4 2 -4zM669 3425q9 0 25.5 6.5t33.5 16.5t35 21q-108 -30 -108 -42q0 -2 8 -2h6zM833 3484q20 0 198 56q188 57 196 57q4 0 4 2q0 6 -7 6q-23 0 -175 -42q-219 -60 -219 -77q0 -2 3 -2zM1472 3647
q5 0 12.5 3t13.5 7t6 6q0 6 -21 6q-22 0 -22 -14q0 -8 11 -8zM1567 3670q16 0 35 5l68 20l-42 1q-28 0 -52 -12q-14 -8 -14 -12q0 -2 5 -2zM3756 3713q21 0 21 5q0 7 -13 7q-8 0 -15.5 -3t-7.5 -5q0 -3 15 -4zM3621 3743q21 0 21 4q0 7 -21 7t-21 -7q0 -4 21 -4zM3545 3759
q12 0 12 1q0 3 -30 10q-42 11 -93 11l-51 -1q124 -21 162 -21zM3383 3788l-72 11q-66 10 -167 10l-149 -1q171 -13 217 -15.5t171 -4.5zM2656 3802q31 0 31 4q0 5 -31 5t-31 -5q0 -4 31 -4zM2800 3803q58 0 58 4q0 1 -11 2q-21 3 -47 3q-25 0 -47 -3q-10 -1 -10 -2
q0 -4 57 -4zM2517 2591q-1 0 -1 2q0 4 4.5 15t8.5 15t6 4q5 0 5 -7q0 -10 -10 -19.5t-13 -9.5z" />
    <glyph glyph-name="E" unicode="E" horiz-adv-x="4348" 
d="M571 -561q-89 0 -163 13q-133 24 -238 105t-145 191q-25 78 -25 170q0 119 42 262q75 254 275 553q97 146 189 258t254 268t466 433q231 210 316 298l79 80q-198 -11 -261 -11q-139 0 -243 11q-347 34 -580.5 145.5t-327.5 288.5q-26 47 -33.5 84.5t-7.5 105.5v34
q0 70 8 108q8 42 38 103q112 240 427 483t866 514q500 246 953.5 401t700.5 189.5t364 34.5q168 0 280 -41q134 -53 186.5 -141t52.5 -173q0 -36 -8 -74q-50 -221 -266 -461.5t-557 -455.5q-270 -168 -529 -272q-293 -119 -490 -119q-27 0 -27 4q0 2 10 5q23 7 23 10
q0 4 -30 4h-8q-54 3 -111 30.5t-88 64.5q-31 40 -31 52q0 4 3 4q8 0 41 -38q43 -51 105.5 -72t114.5 -21q21 0 42 3q88 16 88 29q0 7 -34 8l-51 2q103 23 187 51q161 52 262 100q43 20 43 28v1h-1q-15 0 -118 -43q-188 -79 -365 -102l-65 -8q331 76 520 184q299 174 327 233
q6 23 17 23q4 0 9.5 -3.5t7.5 -3.5t2 2t-3 7t-3 9q0 11 18 19q26 9 77 55q262 237 262 258v1q0 5 18.5 30t51.5 61q81 88 148 185q94 137 94 199q0 17 -19 29q-45 31 -168 31q-194 0 -473 -62q-138 -31 -261.5 -66.5t-160.5 -54.5q-23 -14 -49.5 -14t-41.5 -13t-208 -78
q-341 -116 -692.5 -290t-634.5 -360.5t-417 -340.5q-109 -128 -109 -162q0 -5 3 -9t3 -7q0 -7 -9 -7t-16 -24q-11 -35 -11 -68q0 -20 4 -35q12 -35 60.5 -79.5t108.5 -75.5q277 -135 711 -135q151 0 294 22q175 31 275 31q82 0 113 -21q85 -40 85 -127q0 -18 -4 -39
q-10 -98 -160.5 -271.5t-507.5 -498.5q-288 -264 -490 -457q-134 -132 -248 -272t-114 -173q0 -19 -9 -19l-4 1q-9 0 -44.5 -53t-78.5 -131t-73 -148q-69 -165 -69 -279q0 -126 76 -156q56 -21 176 -21h48q128 0 272 33q152 36 491 147q559 181 984 353q209 84 627 214
q354 109 405 109q7 0 7 -4t4 -8t11 -4q9 0 9 7q0 3 -2 6.5t-2 5.5q0 4 4 4q3 0 8 -1.5t16 -1.5q44 0 144 15q134 21 204 21.5t77 0.5q125 0 192 -19q60 -19 121 -65t86 -91q19 -38 19 -45q0 -2 -1 -2q-6 0 -42 49q-72 97 -183 120.5t-193 23.5q-142 0 -369 -55
q-180 -44 -180 -55q0 -2 7 -2q26 0 97 19q99 25 210 42q136 21 226 21q62 0 62 -14q0 -9 -25 -9q-66 -2 -288 -51q-252 -56 -252 -85q0 -3 1.5 -6t1.5 -7q0 -13 -15 -13q-8 0 -21.5 -4t-25.5 -10.5t-76 -31.5t-150 -56.5t-165 -62.5t-114.5 -46.5t-100 -42t-128 -51
t-103 -43t-39.5 -21.5h2q20 0 146 46q246 89 390 135q69 22 76 22l3 -1q11 0 57 17q51 17 61 17q3 0 3 -1q0 -16 -1021 -406q-817 -312 -1152 -382q-261 -54 -420 -54zM1085 1509q5 0 41 36q27 31 27 35q0 1 -1 1q-7 0 -41 -36q-27 -29 -27 -35q0 -1 1 -1zM1179 1596
q9 0 144 126q154 143 200 183q62 57 64 72l-1 1q-12 0 -118 -102q-156 -150 -208 -198q-81 -75 -81 -82zM1649 2031q15 0 40 44q11 18 11 23q0 1 -1 1q-4 0 -24 -20q-31 -26 -31 -40q0 -8 5 -8zM1174 2102q6 0 6 3q0 22 -59 22l-46 -2q90 -23 99 -23zM1284 2103q31 0 31 4
q0 5 -31 5t-31 -5q0 -4 31 -4zM910 2145q21 0 21 4q0 6 -21 6t-21 -6q0 -4 21 -4zM845 2159q3 0 3 1q0 8 -97 40q-115 38 -165 56q-26 11 -32 11q-1 0 -1 -1q0 -3 19 -16t75.5 -34.5t115 -38.5t82.5 -18zM446 2315q3 0 3 6q0 5 -25 25q-16 13 -18 13l-1 -1q0 -2 13 -17
q21 -26 28 -26zM3543 647q-22 0 -22 3q0 2 7.5 5t14.5 3q13 0 13 -7q0 -4 -13 -4zM3622 661q-15 1 -15 4q0 2 6.5 4.5t12.5 2.5q17 0 17 -6q0 -5 -21 -5zM2688 3165q-7 0 -7 6q0 2 6 6t14.5 7t12.5 3t4 -3q0 -10 -14 -15q-9 -4 -16 -4zM2943 3295h-6q-11 0 -11 3t14 11
q22 14 33 14q6 0 6 -5q0 -3 -3.5 -9t-13 -10t-19.5 -4z" />
    <glyph glyph-name="F" unicode="F" horiz-adv-x="4335" 
d="M2956 -980q-113 0 -184 73q-120 120 -120 476q0 116 14 258q26 239 95.5 627t134.5 652q40 171 40 204q0 14 -4 21q-7 13 -46 28q-483 201 -1367 201q-278 0 -596 -20q-155 -10 -282 -10q-212 0 -345 28q-214 45 -271 173q-25 49 -25 103q0 148 193 328q262 244 921 585
q245 127 264 146q3 5 13.5 9t22.5 4q28 0 96 35q83 41 335 152l324 143q63 30 173 72l162 67q47 21 60 21t77 27q51 24 125 50q60 19 202 74q169 63 238 86q141 47 262 92.5t141 58.5q17 17 32 69q57 192 66 216q13 37 19 37q2 0 3.5 -2t2.5 -2q12 0 42.5 95.5t38.5 95.5
l1 -1q0 -15 -7 -46q-8 -39 -23 -90q-49 -161 -49 -210q0 -13 5 -13q8 0 17 20q6 15 10 34q10 38 16 38l2 -5q0 -22 -18 -84t-18 -89q0 -10 2 -10q9 0 46 116q37 120 41 123l4 2q2 0 2 -3q0 -16 -27 -111q-24 -87 -24 -117q25 0 178 44q185 55 365 100l475 125
q234 62 368 95.5t248 55.5q243 45 645 107q170 25 238 25q25 0 39 -3q18 -3 28 -3q13 0 13 5q0 2 -2.5 5.5t-2.5 6.5q0 2 1 3q1 5 7 5q12 0 20 -18q3 -11 14 -11q8 0 20 7q38 15 431 15q446 0 446 -21q0 -7 -63 -7q-44 0 -125 3q-49 2 -101 2q-287 0 -668 -52
q-159 -22 -159 -28q0 -2 13 -2q42 0 210 18q210 21 383 21q89 0 89 -8q0 -2 -10 -6q-25 -7 -40 -7q-10 0 -13.5 2t-6.5 2q-6 0 -6 -6.5t-44.5 -13t-110.5 -11.5q-151 -9 -270 -30q-114 -21 -134 -21q-12 -1 -12 -9q0 -2 2.5 -6t2.5 -10q-4 -9 -56 -22q-43 -12 -213 -48
q-501 -105 -804 -190q-74 -21 -74 -24q0 -1 3 -1q30 0 298 57q206 44 353 68t187 24q12 0 16 -2q0 -4 -200 -52q-1021 -239 -1799 -480l-285 -88q-73 -281 -78 -427q0 -64 -12 -83q-4 -7 -4 -12q0 -6 7.5 -6t7.5 -8q0 -10 -11 -32q-8 -17 -14.5 -43.5t-8 -50t-13.5 -94
t-29 -153.5t-26 -134.5t-9 -58.5v-2q5 0 138 38q596 167 814 167q30 0 33.5 -7t14 -8t15.5 -1q13 0 29 2q26 4 42 4q22 0 23 -8v-1q0 -13 -61 -33q-77 -26 -77 -33q0 -2 10 -2q14 0 45 4q25 5 37 5q14 0 14 -8q0 -14 -16 -28q-11 -9 -23 -13q-28 -9 -41.5 -41.5t-77 -59.5
t-66.5 -35q0 -3 30 -3l31 1q22 2 34 2q17 0 17 -5t-8 -13q-17 -32 -364 -97q-206 -39 -633 -168q-22 0 -91 -273l-68 -266l40 -31q65 -50 141.5 -136.5t123.5 -162.5q147 -254 147 -567q0 -310 -143 -677q-113 -276 -280.5 -538.5t-273.5 -327.5q-40 -19 -97 -19zM2987 -571
q15 0 48 47q28 39 78 121q330 538 330 979q-2 305 -162 497l-51 61l-16 -39q-31 -84 -136 -616q-66 -343 -90.5 -584t-24.5 -343q0 -123 24 -123zM2904 1610q6 0 6 15q0 5 -4.5 9.5t-10.5 4.5q-9 0 -9 -7q0 -3 3.5 -8.5t7.5 -9.5t7 -4zM3013 1640q10 0 33 96q33 127 33 133
q0 15 -15 15q-25 0 -189 -85q-106 -56 -106 -69q0 -6 33 -13q41 -10 123 -44q78 -33 88 -33zM2716 1682q19 0 19 5q0 3 -12 10q-21 14 -32 14t-11 -14q0 -6 9.5 -10.5t26.5 -4.5zM2464 1743q9 0 9 2q0 4 -52 18q-66 16 -94 16q-10 -1 -11 -3q0 -5 48 -17q60 -16 100 -16z
M2182 1784q20 0 20 5q0 6 -13 7q-8 0 -15 -3t-7 -5q0 -3 15 -4zM448 1797q43 0 43 6q0 5 -43 12l-22 1q-21 0 -21 -7q0 -12 43 -12zM643 1800q28 0 28 4q0 6 -23 6q-12 0 -23 -3q-7 -2 -7 -4t25 -3zM722 1800q21 0 21 4q0 6 -21 6t-21 -6q0 -4 21 -4zM830 1801q37 0 37 3
q0 6 -32 6q-16 0 -30 -3q-8 -2 -8 -3q0 -2 33 -3zM2052 1798q21 0 21 5q0 7 -13 7q-8 0 -15.5 -3t-7.5 -5q0 -3 15 -4zM2439 1809q21 0 26 31q10 38 25 67q28 48 159.5 120.5t334.5 151.5q58 23 104.5 41t62 23.5t31 40.5t38.5 120l64 228q210 747 210 760q-11 0 -124.5 -39
t-262.5 -92.5t-262 -95.5q-1420 -546 -2199 -1046q-80 -53 -150 -109t-107.5 -94.5t-37.5 -51.5l1 -4q19 -12 248 -12q295 0 619 19q208 13 378 13q159 0 388 -20q341 -29 421 -46q21 -5 33 -5zM371 1813q15 0 15 3t-28 12q-38 13 -38 40q0 23 31 58q17 19 17 21
q-3 0 -31 -26q-47 -42 -47 -53q0 -12 13 -25q30 -30 68 -30zM1910 1815q37 1 37 4q0 5 -32 5q-38 0 -38 -5q0 -3 33 -4zM394 1970q7 0 27 25q13 16 13 18l-1 1q-6 0 -35 -29q-7 -7 -7 -9q0 -6 3 -6zM3589 2094q7 0 22 3q27 5 27 9q0 6 -24 6q-20 0 -29 -9q-4 -4 -4 -6
q0 -3 8 -3zM6128 4291q30 0 30 4q0 6 -24 6q-12 0 -23 -3q-7 -2 -7 -4t24 -3zM3631 3064q-8 0 -8 10q0 5 3 13t7 14.5t6 6.5q6 0 6 -22t-14 -22z" />
    <glyph glyph-name="G" unicode="G" horiz-adv-x="3832" 
d="M2490 -707q-29 2 -101 19q-196 53 -228 134t-32 117q0 91 88 184q128 120 457 230q68 22 116.5 41.5t55.5 26.5q29 51 123 379q37 133 58 229q132 600 132 1155q0 159 -4 218t-14 59q-21 0 -97.5 -47.5t-255.5 -175t-500 -362.5q-501 -366 -807.5 -551.5t-541.5 -261.5
q-136 -45 -228 -51t-123 -6q-106 0 -181 23q-212 74 -309.5 240.5t-97.5 350.5q0 46 5 94q36 296 245.5 628.5t610.5 731.5q446 451 959 807q320 224 663 399t618 254q120 33 272 59t232 28q164 -2 288.5 -40.5t172.5 -103.5q37 -54 39 -94t2 -48q0 -168 -256 -402
q-172 -157 -591 -464q-382 -283 -493 -379q-103 -90 -122 -90l-3 1q-6 0 -22.5 -11.5t-99.5 -89.5q67 86 91 113t44 46q46 44 63 75q6 11 6 15q0 3 -3 3q-9 0 -62 -46q-33 -29 -36 -29h-1q0 4 47 53q76 78 206 183q140 116 140 122q0 1 -2 1q-25 0 -299 -231
q-115 -98 -120 -98q0 8 166 159q67 60 125 110q119 98 194 171q85 78 134 120q32 28 54 52.5t22 33.5q0 20 19 39t50 29q13 4 22 11.5t9 13.5q0 15 144 152q61 58 102 101.5t43 51.5q2 19 43 66q32 35 32 54q0 11 -9 17q-23 16 -151 16q-137 0 -235 -21q-130 -28 -307 -92
q-282 -101 -534 -238q-139 -77 -582 -367q-141 -90 -540 -419q-104 -88 -292 -277.5t-293 -310.5q-324 -385 -412 -606t-88 -341q0 -107 49 -187q42 -70 99 -97t159 -27q217 0 564 191q351 193 991 666q350 257 545 391t297 183t175 52l30 1q89 0 142 -47q61 -54 88 -186
q23 -133 23 -360q0 -107 -5 -235q-16 -399 -69 -689q-14 -71 -38 -209q-16 -107 -51 -238l-7 -28q-54 -204 -63 -248q-7 -35 -7 -50q0 -10 7 -10q5 0 13 3q3 3 14 3q18 0 25 -10.5t13 -10.5q5 0 10 6t24.5 10.5t44.5 5t84 6t123.5 13.5t128.5 10.5t104 2.5q122 0 178 -13
q39 -9 72 -31q100 -61 115 -127q3 -10 3 -13t-1 -3q-5 0 -25 35q-34 53 -98 86q-53 26 -117 30q-36 1 -129 1q-181 -2 -273 -18q-185 -36 -302 -66q-54 -14 -54 -17q1 -1 6 -1q22 0 150 24q151 30 301 37q69 4 99 4q27 0 27 -4q-2 -4 -25 -13t-74 -19.5t-106.5 -18
t-106.5 -16t-73.5 -14.5t-53.5 -14t-58 -14q-54 -13 -54 -30l2 -9q0 -16 -37 -23q-27 -5 -43 -22.5t-36 -65.5q-65 -143 -165.5 -269.5t-203.5 -192.5q-49 -29 -127.5 -53.5t-123.5 -24.5zM2471 -380q13 0 77 27q117 50 117 70q0 3 -3 3q-17 0 -99 -42q-95 -48 -95 -57
q0 -1 3 -1zM640 660q14 0 14 14q0 6 -7 10.5t-16 4.5q-15 0 -15 -9q0 -3 3 -7.5t9 -8.5t12 -4zM546 677q28 0 28 4q0 6 -23 6q-12 0 -23 -3q-7 -2 -7 -4t25 -3zM365 718l1 1q0 4 -21 17q-67 42 -132 115.5t-101 146.5q-38 81 -47 81q-1 0 -1 -2q2 -32 35 -96t75 -117
q25 -29 65 -63t76 -58.5t50 -24.5zM1632 1091q11 0 113 64q84 53 84 62q-9 0 -93 -51q-105 -64 -105 -74q0 -1 1 -1zM56 1147q5 0 5 31t-5 31q-4 0 -4 -31t4 -31zM56 1236q7 0 7 22q0 15 -9 15t-12 -10q-2 -4 -2 -7t2 -7q9 -13 14 -13zM1923 1282q12 0 106 66
q367 261 367 271q0 2 -2 3q-2 0 -7 -3q-26 -14 -158 -108l-90 -64q-218 -156 -218 -164q0 -1 2 -1zM2428 1639q6 0 27 25q13 15 13 18h-1q-7 0 -35 -28q-7 -7 -7 -10q0 -5 3 -5zM2643 2632q5 0 41 36q27 31 27 35q0 1 -1 1q-7 0 -41 -36q-27 -29 -27 -35q0 -1 1 -1z
M2962 3123q-4 0 -4 7q0 8 12 19q15 13 67 50q-60 -66 -67 -71t-8 -5zM3202 3309q-4 0 -4 4q0 9 15 25q24 29 29 29q1 0 1 -1q0 -4 -12 -28q-17 -29 -29 -29z" />
    <glyph glyph-name="H" unicode="H" horiz-adv-x="3071" 
d="M2452 -577q-4 0 -5 6t-38 345q-3 -177 -7 -196t-12 -19q-12 0 -23 30q-9 24 -15 60q-13 78 -29 78l-14 -1q-4 0 -4.5 1.5t-6.5 38t-15 88.5t-15.5 103t-6.5 76q0 44 -7 44q-10 0 -15 -50q-4 -35 -4 -76q0 -98 -7 -107h-1q-9 0 -24 77q-10 69 -10 212q0 175 15 460
q29 518 88 1006q26 216 26 250q0 6 -1 6q-20 0 -264.5 -146t-283.5 -179q-5 -19 -10 -369q-4 -446 -31 -638.5t-94 -248.5q-72 -66 -152 -66q-45 0 -92 21q-131 57 -228 252q-87 190 -87 393q0 85 15 172q51 295 262 528l99 106l7 225l-180 10q-127 5 -232.5 19t-307.5 52
q-124 22 -174 35q-30 7 -30 14q0 2 2 4q0 4 -42.5 21.5t-111.5 39.5q-144 46 -214.5 81t-127.5 91q-44 40 -44 43q3 0 30 -20q73 -51 190.5 -99t238.5 -76q146 -32 174 -32q6 0 6 1q0 7 -123 40q-154 41 -216 69l-62 27q29 -1 58 -3t96 -13t133 -24t93 -22l6 -1q7 0 7 6
q0 4 -2 8.5t-2 7.5q0 11 22 11l26 -2l218 -13l281 -16q37 -2 59 -2q36 0 36 5q0 12 -138 25q-117 10 -203 25t-86 25q4 2 54 2q76 0 251 -8q216 -12 295 -12q16 0 20 1q14 7 16 51q7 184 33.5 425t59.5 410q36 168 102 343q36 97 50 97q3 0 3 -5q0 -7 -4 -21l-1 -6
q0 -2 2 -2q4 0 26 40q16 28 30.5 49.5t21.5 26.5t10 5q2 0 2 -2q0 -8 -41 -83q-43 -81 -43 -114q0 -28 3 -28q5 0 19.5 20.5t18.5 20.5q1 0 1 -2q0 -6 -7 -24q-63 -213 -63 -252q0 -7 2 -7q5 0 20 56q27 103 77 222q20 46 25 46v-1q0 -21 -39 -134q-23 -71 -38 -167
q-21 -127 -21 -219q0 -50 8 -73q13 -32 17 -127q7 -108 20 -188q14 -89 14 -226v-139q132 -6 183 -6q120 0 215.5 2.5t190.5 4.5l28 143q75 392 157 753q75 328 121 498q41 148 149 468q41 123 56 158q22 46 30 79q27 89 118 285q86 185 100 185q1 0 2 -1t3 -1q11 0 24.5 18
t17.5 18q1 0 1 -2q0 -4 -5 -17q-20 -59 -20 -82q0 -14 8 -14q16 0 23 18l2 3q1 0 1 -2q0 -6 -4 -25.5t-12 -43t-16.5 -41t-12.5 -31t-4 -19.5q0 -7 2 -7q9 0 45 82q40 91 49 91q1 0 1 -2q0 -8 -14 -46q-29 -72 -38.5 -141.5t-9.5 -161.5l1 -92q0 -54 -3 -92
q-5 -57 -26.5 -130.5t-71.5 -219.5q-77 -226 -96.5 -316.5t-37.5 -138.5q-21 -62 -67 -259q-116 -496 -147 -710l-9 -73l177 48q227 63 306.5 70t106.5 7q84 0 128 -28q37 -24 63.5 -65.5t26.5 -76.5q0 -27 -41 -104t-54 -79q-18 -3 -70 -31q-98 -49 -272 -92.5t-350 -63.5
q-42 -4 -61 -8.5t-26 -14.5q-11 -17 -34 -207q-38 -302 -49 -461l-10 -136q-23 -276 -37 -555t-26 -597q-8 -238 -25 -249q-9 -5 -9 -8t13 -3h3q10 0 10 -3t-10 -9q-16 -7 -16 -91l1 -70q0 -85 -7 -96q-3 -3 -6 -3zM1430 638l11 36q12 44 12 311q0 173 -11 173
q-13 -11 -38 -111q-18 -78 -18 -170q0 -126 26 -196zM1432 1250q7 0 16 15q2 4 2 6q0 8 -9 8q-6 0 -10.5 -4.5t-4.5 -9.5q0 -15 6 -15zM1777 1582q7 0 24 21q10 12 10 15q0 2 -2 2q-4 0 -14 -4t-16.5 -10.5t-6.5 -11.5q0 -12 5 -12zM2341 1686q7 0 15 50q4 24 4 46
q0 42 -3 42q-4 0 -14 -84q-3 -31 -3 -44q0 -10 1 -10zM2249 1859q5 0 27 11q15 8 27 14t15.5 9.5t3.5 5.5q0 1 -3 1t-11.5 -3t-20 -8.5t-20.5 -12.5q-18 -14 -18 -17zM2451 2344q8 0 24 69q6 32 6 49q0 12 -4 12q-5 0 -12 -19t-12 -45.5t-5 -47.5q0 -18 3 -18zM467 2043
q-15 1 -15 4q0 2 7.5 5t15.5 3q13 -1 13 -7q0 -5 -21 -5zM418 2058q-9 0 -21.5 3.5t-22.5 10.5t-10 10q0 2 4 2q11 0 43 -13q16 -7 16 -10t-9 -3zM804 2245q-21 0 -21 4q0 2 6.5 4.5t12.5 2.5q11 0 15 -4l2 -2q0 -5 -15 -5z" />
    <glyph glyph-name="I" unicode="I" horiz-adv-x="935" 
d="M320 -492q-29 0 -52 25q-26 32 -58 95q-28 56 -41 56q-4 0 -6 -3.5t-5 -3.5q-8 0 -19 26q-34 79 -57 235q-11 70 -12 123q0 62 -8 62t-8 -128v-80q0 -111 -12 -111q-13 0 -31 137q-11 79 -11 183q0 350 129 989q310 1564 974 2882q117 234 117 256q0 1 -0.5 1.5t-2.5 0.5
q-25 0 -178 -98q-165 -106 -420 -288q-75 -54 -126.5 -87t-58.5 -33q-2 2 -7 2q-11 0 -27.5 -9t-22.5 -9q-3 0 -3 2q0 9 45 50q36 34 36 51q0 7 -6 7q-9 0 -29 -13l-3 -2q0 7 71 73.5t71 73.5l-1 1q-10 0 -113 -81q-50 -39 -55 -39h-1q0 4 117 121q66 66 106.5 113.5
t40.5 56.5v1q-2 3 -2 7q0 14 16 32q142 148 142 162v1q0 12 57.5 56t135.5 90q232 134 322.5 144.5t111.5 10.5q120 0 167 -87q20 -44 20 -107q0 -45 -10 -99q-24 -130 -91 -227q-50 -73 -159 -295t-214 -457.5t-142 -348.5l-95 -266q-143 -392 -280 -874t-168 -701
q-7 -58 -13.5 -67.5t-13.5 -65.5q-11 -69 -21 -99q-14 -57 -36 -238q-30 -230 -46 -306q-19 -87 -19 -331q0 -247 9 -356q6 -87 24.5 -117.5t54.5 -39t36 -14.5q0 -4 -15 -10q-11 -3 -21 -3q-61 0 -120 111q-30 57 -38 57q-2 0 -2 -4q0 -28 24 -80.5t51 -82.5q23 -24 23 -28
q0 -5 -21 -5zM401 2078q28 72 36.5 101.5t21.5 100.5q-28 -72 -36.5 -101.5t-21.5 -100.5zM477 2321q4 0 10 14.5t9.5 29t3.5 23.5q0 8 -2 8q-7 0 -19 -42q-4 -15 -4 -24t2 -9zM622 2749q3 0 11 8.5t10 13.5t2 7q0 7 -5 7q-2 0 -6 -4t-8.5 -15t-4.5 -15q0 -2 1 -2zM687 2906
q8 0 35 70q24 70 24 83q0 3 -2 3q-10 0 -37 -70q-23 -58 -23 -80q0 -6 3 -6zM364 -376q-4 0 -21 29q-12 23 -12 39q0 7 3 7q6 0 20 -32q11 -32 11 -40q0 -3 -1 -3z" />
    <glyph glyph-name="J" unicode="J" horiz-adv-x="2887" 
d="M828 -461q-64 0 -87 8q-159 65 -196 245q-3 19 -3 39q0 83 44 184q54 124 154 226q72 71 179 147.5t204 124.5q58 28 178.5 72.5t233.5 81t135 36.5q18 0 120 128t236.5 315.5t258.5 377.5q836 1277 836 2079v7q0 354 -135 493q-95 98 -266 98q-74 0 -163 -19
q-341 -71 -780.5 -337t-931.5 -700q-101 -89 -195 -179.5t-151.5 -151.5t-57.5 -72l1 -1q1 -1 4 -1q29 0 162 54q148 61 327 148q194 95 299.5 142t226.5 92q87 35 137.5 44t139.5 9h45q78 0 114 -5q42 -6 77 -26q127 -69 187 -198q46 -105 46 -141q0 -5 -2 -5t-7 7
q-2 4 -4 4q-5 0 -5 -30q0 -20 2 -53q3 -46 3 -68q0 -21 -3 -21q-5 0 -22 101q-13 76 -36 137t-40 61q-4 0 -4 -8q0 -14 6 -30q11 -30 11 -38q0 -2 -1 -2q-6 0 -37 54q-56 96 -135 131.5t-132 35.5q-38 0 -74 -13q-8 -3 -8 -6q0 -7 69 -7q78 0 120.5 -15.5t84.5 -59.5
q33 -32 51.5 -66.5t36.5 -96.5q7 -23 7 -30q0 -3 -2 -3q-9 0 -41 86q-61 162 -235 162q-86 0 -203 -45q-78 -31 -140 -65.5t-70 -56t-20 -21.5q-2 0 -4.5 2t-5.5 2q-7 0 -7 -8t-8.5 -12.5t-20.5 -4.5q-29 0 -29 -12t-148 -103t-153 -108q-6 -14 -93 -58t-196.5 -90
t-181.5 -68q-130 -36 -238 -36q-62 0 -117 12q-150 32 -173 138q-2 13 -2 29q0 43 8 70q57 198 582 684q108 100 195 174q134 113 568 424q192 136 451 275q474 253 755 285q122 14 183 14q281 0 469 -193q126 -129 179 -319q46 -173 46 -376q0 -504 -265 -1123
q-252 -589 -672 -1215q-115 -171 -123 -201q-5 -24 -20 -28q-16 -8 -110 -134q-91 -122 -91 -135q0 -1 0.5 -1.5t5.5 -0.5q34 0 128 16q119 19 217 19l114 -2q-270 -41 -416 -69q-107 -21 -107 -37q0 -4 9 -4t26 4q84 13 200 26l-58 -29q-65 -31 -148 -46q-44 -8 -67 -16.5
t-43.5 -31.5t-56.5 -72q-66 -90 -122 -157t-157 -177q-62 -67 -102 -115q-74 -87 -237 -263q-64 -69 -93 -99q-51 -48 -128 -99t-132 -72q-51 -18 -160 -18zM882 -132q11 0 37.5 14t54 35t79.5 72.5t106.5 109.5t87.5 97t33 45q0 1 -1 1q-14 0 -125 -72q-92 -59 -166 -128
q-96 -91 -123 -157q-3 -8 -3 -11q0 -6 20 -6zM1061 186q13 0 175 86q182 95 182 111q0 3 -7 3q-9 0 -138 -70q-213 -115 -213 -129q0 -1 1 -1zM2619 1999q7 0 23 29q10 19 10 26q0 2 -2 2q-7 0 -23 -28q-10 -21 -10 -26q0 -3 2 -3zM2671 2089q8 0 99 172q64 122 102 213
q13 33 14 39q-2 0 -23.5 -38.5t-53 -100.5t-63.5 -125.5t-53.5 -108.5t-21.5 -51zM2923 2605q3 0 34 63q40 79 44 100q0 9 -3 9q-11 0 -46 -87q-30 -76 -30 -84q0 -1 1 -1zM3166 3446q6 0 6 29q0 9 -2 16.5t-4 7.5t-3 -24q0 -29 3 -29zM3167 3767q5 0 5 27q0 51 -26 137
q-28 93 -38 93q-2 0 -2 -7q0 -16 16 -70q22 -65 34 -134q7 -46 11 -46zM3082 4073q1 0 1 2q0 6 -11 28t-21 22q-4 0 -4 -6q0 -10 12 -25q18 -21 23 -21zM1435 2920q-3 0 -3 6q0 5 25 25q16 13 18 13l1 -1q0 -2 -13 -17q-21 -26 -28 -26zM3201 4390q-6 0 -41 29
q-24 19 -24 22h1q3 0 17.5 -7.5t26 -15.5t16.5 -16t5 -11q0 -1 -1 -1z" />
    <glyph glyph-name="K" unicode="K" horiz-adv-x="4258" 
d="M1016 -174q-14 0 -21 155q-4 63 -5 124q-1 109 -5 109q-3 0 -8 -29t-8.5 -71t-4.5 -79q0 -54 -3 -63t-8 -9q-4 0 -11 6q-22 9 -22 123q0 60 -5 86t-17 32q-16 7 -24 70t-12 207q-1 51 -3 55l-2 4q-9 0 -31 -138q-7 -56 -13 -56q-4 0 -11 20q-10 27 -10 83q0 13 1 25.5
t1 23.5q0 46 -11 48q-12 -2 -209 -11q-67 -4 -126 -4q-197 0 -301 44q-147 63 -147 226q0 84 65 179q73 107 253 250.5t489 345.5l253 165l83 252q250 756 659 1569q198 389 256 526q49 115 77 201t28 107q0 5 -1.5 6.5t-5.5 1.5q-40 0 -234 -136q-91 -64 -168 -129
l-158 -130q-80 -66 -270 -254q-87 -86 -139.5 -133.5t-57.5 -47.5q-1 0 -1 1l1 5q0 2 -1 2q-3 0 -14.5 -15t-22 -24t-15.5 -9q-3 0 -3 4q0 12 19 37q29 44 29 69q-1 6 -6 6q-9 0 -32 -26q-12 -16 -14 -16h-1q0 4 11 24q17 37 62 86q63 75 63 81l-76 -71q-74 -79 -81 -79
q-1 0 -1 1q0 9 84 118q78 104 78 118.5t29 43.5q22 19 22 42q0 4 -1 8.5t-1 9.5q0 20 15 33q22 18 22 31q0 5 12.5 26t31.5 46q43 62 43 78q0 25 111.5 119.5t252 194.5t239.5 152q155 76 272 76q56 0 104 -17q49 -23 82 -94t33 -154q0 -144 -76 -352.5t-280 -623.5
q-167 -341 -220 -454q-194 -421 -346 -827q-65 -173 -65 -200q25 0 284.5 169t603.5 406q448 307 772 549q73 56 341 279q213 181 404 388t249 319q24 47 35 47q4 0 4 -8q-1 -8 -7 -20q-10 -22 -10 -26q0 -3 2 -3q8 0 43 68q27 52 35 52q1 0 1 -2q0 -19 -28 -75t-28 -82
q0 -14 6 -14q6 2 23 24q14 16 17 16q1 0 1 -3q-9 -30 -63 -117q-26 -42 -55 -83q-45 -67 -45 -74q0 -1 1 -1q13 0 117 153l96 140q1 0 1 -1q0 -11 -59 -114q-69 -120 -121 -197q-31 -42 -41 -72.5t-37 -57.5q-12 -11 -20.5 -30t-8.5 -36q0 -39 -20 -52t-37 -47
q-22 -38 -81.5 -109t-59.5 -88v-1q-3 -27 -168.5 -170t-384.5 -307q-371 -277 -702.5 -503t-876.5 -571q-232 -147 -279 -184q-32 -26 -45 -45t-23 -45q-48 -117 -86 -309q-13 -76 -37 -179q-16 -76 -16 -101q0 -5 0.5 -6.5t12.5 -1.5q60 0 420 43q443 49 916 49
q608 0 884 -69q90 -26 189 -67t164 -77t65 -52q-2 -4 -2 -7q0 -8 11 -16q6 -4 8 -4t2 2q0 3 -4.5 10t-4.5 10q0 4 4 4q10 0 19 -9q5 -6 6 -12.5t30 -41t73 -80.5q167 -176 187 -310q3 -17 3 -25q0 -5 -2 -5q-6 0 -48 88q-54 111 -131 192q-80 80 -198 157q-49 31 -67 32
q-3 0 -3 -1q0 -7 38 -29q61 -38 127 -97t112.5 -114t47.5 -80q0 -5 -6 -5q-5 3 -13 13q-16 18 -24 18q-2 0 -3 -1t-2 -1q-9 0 -45 44q-39 50 -147 124q-42 29 -55 29q-4 0 -4 -9q0 -5 1.5 -10t1.5 -7q0 -3 -6 -3q-16 0 -69 21q-81 34 -161 55q-111 30 -257 47q-51 5 -69 5
q-10 0 -13 -1q0 -9 117 -33q122 -24 243 -75q47 -20 47 -27q0 -1 -3 -1q-19 0 -121 24q-179 44 -366.5 60.5t-513.5 16.5q-393 0 -612 -17q-408 -36 -681 -64q-148 -15 -158 -18q-8 -12 -36 -211q-12 -79 -18 -131q-9 -90 -22 -90h-2q-4 0 -8.5 -35t-4.5 -98
q-3 -190 -18 -190zM438 562q28 0 28 3q0 6 -23 7q-12 0 -23 -3q-7 -2 -7 -4t25 -3zM294 577q29 0 29 2q0 1 -22 4q-201 39 -250 154q-9 21 -15 21q-4 0 -4 -7q0 -15 19 -48q34 -55 102 -90.5t141 -35.5zM34 837q3 0 8.5 3.5t9.5 11t4 15t12.5 32.5t31 54t25 42.5t6.5 16.5
q0 1 -2 1q-6 0 -34 -45q-63 -99 -68 -125q0 -6 7 -6zM501 849q90 0 337 20q65 288 72 337q7 40 17 58q4 6 4 12q0 3 -3 3q-7 0 -56 -30.5t-115.5 -76.5t-131.5 -95q-135 -101 -184.5 -146t-49.5 -61q0 -21 110 -21zM561 1355q8 0 42 25q43 31 43 38q0 1 -1 1q-8 0 -42 -25
q-43 -31 -43 -38q0 -1 1 -1zM660 1423q14 0 188 113q52 34 88 58t39.5 26t3.5 5l-3 6q-12 0 -151 -91q-166 -108 -166 -116zM1356 2505q3 0 17 19q22 29 22 42q0 8 -3 8q-6 0 -25 -42q-11 -22 -11 -26v-1zM1397 2588q7 0 40 77q23 56 23 66q0 2 -1 2q-6 0 -35 -65.5
t-29 -74.5q0 -5 2 -5zM1471 2766q5 0 18 17q21 28 21 50q0 8 -4 8q-5 0 -17 -21q-20 -37 -20 -50q0 -4 2 -4zM1686 3226q6 0 19 18q21 28 21 42q0 4 -2 4q-6 0 -19 -18q-21 -28 -21 -42q0 -4 2 -4zM1743 3333q7 0 36 54.5t29 72.5q0 3 -2 3q-8 0 -35 -51q-30 -59 -30 -77
q0 -2 2 -2zM1817 3484q3 0 13.5 10.5t10.5 19.5q0 5 -5 5q-3 0 -7 -4t-8.5 -14.5t-4.5 -14.5q0 -2 1 -2zM4027 576q-5 0 -74 63q-58 54 -58 63q0 1 1 1q13 0 76 -65q55 -57 55 -61v-1zM4119 3755q-3 0 -3 6t26 25q15 13 17 13l1 -1q0 -2 -13 -17q-21 -26 -28 -26zM1221 3957
q-8 0 -8 6q0 4 3 9.5t7.5 9.5t6.5 4q7 0 7 -15q0 -5 -4.5 -9.5t-11.5 -4.5z" />
    <glyph glyph-name="L" unicode="L" horiz-adv-x="3935" 
d="M202 -490q-58 0 -97 26q-105 73 -105 217q0 78 31 177q186 535 1395 2285q353 507 353 544q0 3 -2 3t-2 3q0 5 8 15q13 17 25 68q10 44 66 179q49 116 49 137l-1 4q0 13 38 83q90 173 199 332q231 331 479.5 606.5t377.5 345.5q50 23 92 23q61 0 104 -49q39 -44 39 -100
q0 -74 -87 -217q-80 -133 -254 -382q-941 -1350 -941 -1374q0 -15 -9 -15h-2q-21 -2 -115 -147q-37 -57 -55 -95q-30 -71 -52 -159q-28 -99 -44 -115q-18 -13 -27 -70q-10 -48 -17 -48q-3 0 -3 15q0 27 11 90q10 58 10 85q0 22 -5 22q-4 0 -14 -23q-9 -28 -28 -42
q-20 -20 -139 -194q-110 -165 -201 -295q-175 -254 -383 -589t-364.5 -608.5t-156.5 -312.5q0 -21 16 -21q20 0 103 53q169 105 349.5 204t306.5 155q186 80 436 163t402 114q29 5 75.5 15t90.5 19q183 35 465 35q447 0 716 -64q127 -34 272.5 -87t246 -99.5t100.5 -62.5v-1
q-2 -3 -2 -6q0 -2 4 -2t11 2.5t12 2.5q8 0 8 -6l-1 -3q0 -13 88 -73q79 -55 96 -55h1.5t0.5 1q0 10 -81 60q-87 54 -87 61v1q5 0 39 -18q42 -23 78.5 -47.5t54.5 -40t18 -21.5q0 -2 -1.5 -3t-1.5 -2q0 -14 82 -74q70 -52 149.5 -126t135.5 -141l4 -5l-1 -1q-8 0 -82 64
q-228 197 -428 306q-115 64 -230 116q-39 18 -46 18q-2 0 -2 -1q0 -5 141 -80q123 -67 235 -143t157 -124l36 -41q-70 57 -84.5 64t-20.5 7l-7 -2q-19 0 -93 50q-93 62 -187 108q-80 40 -99 40q-6 0 -6 -3q0 -7 18 -26q10 -10 10 -12q0 -1 -2 -1q-4 0 -22 9.5t-83.5 32.5
t-143.5 47.5t-137.5 41t-179.5 38t-230 35.5q-25 3 -36 3q-8 0 -8 -2q0 -4 37 -14t93 -20q234 -40 382 -109q50 -25 50 -30q0 -1 -2 -1l-5 1q-287 71 -474.5 97t-379.5 26q-603 0 -1214 -223q-169 -64 -421 -190.5t-426 -234.5q-130 -82 -203.5 -123.5t-121.5 -56.5
q-60 -19 -144 -19zM295 401q7 0 23 28q10 21 10 26q0 3 -2 3q-7 0 -23 -29q-9 -19 -9 -26q0 -2 1 -2zM336 473q8 0 111 167q97 160 97 172q-8 0 -89 -135l-106 -172q-14 -25 -14 -30q0 -2 1 -2zM596 890q7 0 51.5 69.5t44.5 82.5q0 1 -1 1q-5 0 -39 -53l-43 -68
q-15 -25 -15 -29v-2t2 -1zM1072 1610q7 0 38 43q24 35 24 43q0 1 -1 1q-8 0 -38 -44q-24 -33 -24 -42q0 -1 1 -1zM1158 1725q6 0 44 62l39 61l-44 -51q-45 -53 -45 -67q0 -5 6 -5zM1274 1898q7 0 84 112q89 127 89 137h-1q-11 0 -73 -87q-55 -77 -86 -133q-14 -24 -14 -28
q0 -1 1 -1zM1820 2159q-1 0 -1 2q0 4 4.5 15t8.5 15t6 4q5 0 5 -7q0 -10 -10 -19.5t-13 -9.5z" />
    <glyph glyph-name="M" unicode="M" horiz-adv-x="3113" 
d="M2818 -563q-4 0 -52 52q-83 90 -127.5 266t-71.5 523l-12 144l-2 -163q0 -96 9 -217q11 -151 35 -282l-30 52q-49 86 -69 442q-8 151 -15 151l-1 -1q-6 -18 -12 -18q-13 0 -17 121v15q0 74 8 227q19 411 46 609q13 93 13 137q0 19 -3 19q-11 0 -67 -430
q-44 -336 -53 -352q-5 0 -5 42q0 90 17 295q23 289 84 658q50 312 259 1330l64 316q18 90 20 110q0 8 -1 8q-3 0 -8 -9q-19 -33 -259 -634q-492 -1232 -683 -1631q-106 -221 -177.5 -318t-131.5 -119q-45 -18 -87 -18q-33 0 -65 12q-71 27 -111 108q-48 91 -48 472
q0 525 99 1766q31 387 31 463v8q-8 0 -60 -178q-41 -137 -327 -1047q-155 -487 -321.5 -952.5t-272.5 -707.5q-98 -218 -179 -367t-102 -150q-13 0 -80 -69q-48 -51 -53 -51v1q0 6 63 86q50 64 88 136.5t38 94.5q0 8 -4 8q-7 0 -25 -23q-8 -11 -10 -11t-2 3q0 15 109 253
q35 75 54 127.5t19 64.5l-1 4q-8 0 -46 -92q-65 -151 -158 -330q-53 -100 -60 -100v1q0 13 68 151t130.5 299t86.5 256q13 54 44 156q20 69 20 95q0 10 -3 13q-17 13 -17 31q0 9 5 9q3 0 8 -3t8 -3q4 0 4 5q0 4 -3.5 13t-3.5 16q0 19 16.5 37.5t16.5 32.5q0 3 -1 5t-1 7
q0 26 22 105q67 247 76 345q2 63 217 734q120 378 134 425l151 490q65 206 154 504l58 202q49 168 157 435q46 114 70 161q64 116 151 116q25 0 51 -9q54 -19 81 -77q22 -40 22 -108q0 -48 -10 -223q-17 -263 -60 -814q-109 -1335 -124 -1814q-7 -229 -14 -367
q-3 -44 -3 -75q0 -81 17 -81q50 0 802 1898q162 408 186 461q209 471 279 580q64 98 132 123q25 9 67 9t63.5 -7.5t42.5 -31.5q46 -48 61.5 -102t15.5 -138q0 -96 -5 -175q-7 -97 -62 -402q-50 -283 -142 -742.5t-143 -685.5q-83 -374 -164 -981.5t-98 -980.5l-1 -49
q0 -180 39 -352q43 -196 116 -293q37 -49 37 -54zM135 200q5 0 24 42q12 22 12 26l-1 1q-2 0 -16 -19q-22 -29 -22 -42q0 -8 3 -8zM1363 920q2 1 2 5q0 5 -4 15.5t-7.5 14t-6.5 3.5q-4 0 -4 -8q0 -7 5 -16q9 -14 14 -14h1zM1333 984q6 0 6 21t-6 21q-4 0 -4 -21t4 -21z
M1319 1070q6 0 6 23q0 13 -3 24q-2 6 -3 6q-3 0 -4 -24q0 -29 4 -29zM1308 1241q9 0 15 17q4 11 4 23q0 21 -11 21q-8 0 -14 -16q-4 -11 -4 -23q0 -22 10 -22zM1320 1413q5 0 5 41q0 47 -5 47q-3 0 -3 -42q0 -46 3 -46zM1953 1456q3 0 8 3.5t9.5 10t4.5 12.5q0 8 -7 8
q-3 0 -8.5 -3t-9.5 -10t-4 -13q0 -8 7 -8zM1982 1524q8 0 36 65.5t28 77.5q0 2 -1 2q-9 0 -39 -71q-25 -58 -25 -71q0 -3 1 -3zM1322 1648q7 0 14 116q4 80 4 158q0 88 -3 88q-7 0 -15 -213q-3 -75 -3 -112t3 -37zM2096 1783q6 0 79 175q68 158 68 179v1q-8 0 -52 -106
l-90 -215q-10 -23 -10 -30q0 -4 5 -4zM1349 2074q1 0 2 8q3 14 3 32t-3 32q-1 8 -2 8q-4 0 -4 -40t4 -40zM2251 2157q5 0 19 30q20 41 20 57q0 5 -2 5q-5 0 -19 -32q-20 -47 -20 -58q0 -2 2 -2zM2310 2295q4 0 10 13q12 22 14 44q0 4 -2 4q-4 0 -11 -10.5t-10.5 -22.5
t-3.5 -22q1 -6 3 -6zM366 1150q-4 0 -4 13q0 14 4 24q7 16 20 16q4 0 4 -6q0 -11 -13 -33q-8 -14 -11 -14z" />
    <glyph glyph-name="N" unicode="N" horiz-adv-x="2661" 
d="M1765 -674q-44 0 -91 24q-82 36 -134 145t-91.5 349t-81.5 672q-69 702 -116 1512q-41 679 -80 1189t-54 548q-17 0 -185 -372q-434 -961 -601 -1670q-106 -455 -106 -826q0 -191 20 -316q18 -119 62 -226q22 -54 22 -68q0 -4 -2 -4q-3 0 -8 5q-12 11 -15 11q-1 0 -1 -2
q0 -11 33 -62q13 -20 25 -35q20 -25 20 -38q0 -6 -4 -6q-18 0 -92 126q-45 76 -61 76q-3 0 -3 -6q0 -9 8 -31q10 -27 10 -34q0 -2 -1 -2q-7 0 -37.5 68.5t-53.5 176.5q-20 101 -27 125q-6 18 -11 18t-5 -15q0 -55 50 -223q24 -83 45 -131q31 -66 31 -80q0 -2 -2 -2h-1
q-42 33 -94 216t-86 413q-26 183 -34 183q-13 0 -13 199q0 151 9 312q26 522 519 1699q128 306 282.5 606.5t230.5 392.5q35 37 108 73q30 15 43 15q15 0 44 -24q65 -57 98 -123q96 -185 176 -1400q29 -439 51 -692q8 -104 21 -338q35 -578 86 -1120q66 -718 101 -718
q20 0 40 75q41 171 141 834q36 245 43 267q4 7 13.5 102t22.5 164q11 62 36 245q64 496 100 662q38 174 122 727q23 136 119 537q56 238 71 265q7 12 11 12h3q3 0 3 12q0 7 -2 18.5t-2 18.5q0 12 6 12l5 -1q7 0 27 44t48 123q82 238 159.5 367t164.5 172q16 9 20 9q2 0 2 -1
q0 -5 -46 -45q-171 -157 -308 -682q-20 -81 -20 -98q0 -5 1 -5q10 0 48 130q47 164 92 279t62 115q5 0 5 -7q0 -8 -8 -22q-9 -19 -9 -33q0 -6 1.5 -9t1.5 -7q0 -21 -20 -76q-26 -67 -59 -199q-29 -121 -40 -158q-4 -13 -4 -18q0 -3 1 -3q4 0 18 12q4 2 6 5q9 8 13 8
q2 0 2 -8q0 -24 -24 -149q-11 -55 -39 -226q-17 -99 -26 -168l-37 -245q-14 -84 -14 -110q0 -12 3 -12q9 0 46 195q61 327 93 395q6 13 8 13q3 0 3 -13q-2 -49 -61 -411q-151 -928 -273 -1742q-159 -1068 -221 -1358q-97 -448 -215 -541q-76 -61 -137 -61zM1460 5q5 0 5 14
q0 13 -10 25q-5 5 -8 5q-2 0 -2 -4q0 -6 4 -20q6 -20 11 -20zM1445 91q6 0 6 23q0 13 -3 24q-2 6 -3 6q-3 0 -4 -24q0 -29 4 -29zM1431 202q1 0 3 8q3 15 3 32q0 18 -3 33q-2 7 -3 7q-3 0 -3 -40t3 -40zM1417 332q5 0 5 40t-5 40q-4 0 -4 -40t4 -40zM1407 444q8 0 8 19
q0 18 -8 43q-4 10 -6 10q-6 0 -6 -36t12 -36zM1386 609q6 104 6 120q0 74 -23 74q-2 0 -2 -3q0 -4 4 -15.5t7.5 -40t4.5 -60.5zM105 706q6 0 7 13q0 7 -3 14.5t-5 7.5q-3 0 -4 -15q0 -20 5 -20zM1300 1989q2 0 5 83l1 40q0 91 -12 118q-7 18 -9 18t-2 -9q0 -13 3.5 -44
t6.5 -76t4 -83q1 -47 3 -47zM1286 2323q6 0 6 21t-6 21q-4 0 -4 -21t4 -21zM2521 3946q-2 0 -2 4q2 23 14 44q7 13 10 13q2 0 3 -7q0 -9 -4 -21.5t-10.5 -22.5t-10.5 -10z" />
    <glyph glyph-name="O" unicode="O" horiz-adv-x="2984" 
d="M1239 -62q-122 0 -210 27q-338 115 -482 440q-46 111 -80 288t-36 317q0 82 19.5 254.5t46.5 348.5q68 458 336 1143q175 450 334 719q44 73 44 88q0 2 -1 2q-13 0 -91 -74t-162.5 -162.5t-125.5 -142.5q-109 -148 -220 -355t-181 -393q-102 -288 -191 -694t-95 -615
q-1 -105 -24 -105l-6 1q-13 0 -13 -64q0 -68 -11 -79q-7 0 -7 70q0 32 1.5 76.5t1.5 76.5q0 66 -9 66q-8 0 -14 -20q-5 -14 -5 -30q0 -30 -7 -30h-1q-2 3 -2 22q0 77 30 381q4 32 4 45q0 9 -2 9q-7 0 -23 -108q-11 -73 -21 -167q-26 -231 -35 -231q-1 0 -1 9q0 22 6 95
q28 317 42 488t15 207.5t1 43.5q0 51 -7 51q-6 2 -6 10t7.5 22t7.5 21t-6.5 7t-6.5 9q2 10 12 25q15 23 15 45q0 5 -1 9q0 21 5 60q20 126 46 239q13 56 21 77q4 10 4 16q0 9 -9 9q-4 0 -4 7q0 34 105 296q78 192 226 417t299 383q149 151 331.5 271.5t334.5 167.5
q37 10 61.5 31.5t59.5 74.5q204 303 580 642q142 128 160 128q2 0 2 -2t-4 -9.5t-4 -10.5q0 -2 1 -3h1q9 0 119 55q199 100 357 100q61 0 115.5 -15.5t125 -60t112.5 -90.5q13 -14 13 -17l-52 36q-145 112 -313 112q-132 0 -277 -68q-81 -39 -189 -116.5t-161 -133.5
q-6 -7 -6 -9l11 5q18 11 61 45q304 237 501 239q28 -1 28 -3t-12 -5q-31 -10 -44 -20.5t-85 -34.5q-132 -45 -264 -152q-68 -55 -68 -67q0 -3 4 -3q8 0 35 14q8 4 11 4q2 0 2 -1q0 -7 -37 -42q-90 -89 -193.5 -212.5t-172 -217.5t-68.5 -116q0 -6 11 -6q2 0 3 1
q51 70 118.5 148.5t122.5 131.5l89 86l-281 -374l92 -16q374 -70 623.5 -357t333.5 -743q24 -146 26 -261.5t2 -142.5q0 -582 -276 -1314q-24 -64 -77 -168q-217 -430 -492.5 -713t-580.5 -390q-123 -41 -211.5 -44.5t-111.5 -3.5zM1267 200q40 0 40 4q0 1 -8 2q-14 3 -32 3
t-32 -3q-8 -1 -8 -2q0 -4 40 -4zM1165 212q13 0 13 4q0 7 -13 7q-8 0 -15.5 -3t-7.5 -5q0 -3 23 -3zM1366 212q28 0 97 20.5t99 42.5q18 13 18 16h-1q-5 0 -35 -15q-40 -20 -129 -43q-58 -15 -58 -20q0 -1 9 -1zM1101 225q5 0 5 2q0 3 -10.5 10.5t-21 11.5t-16.5 4
q-5 0 -5 -2q0 -3 11 -10.5t21 -11.5t16 -4zM1249 245q223 0 431 146q95 66 215 186q237 239 412.5 568t273 706.5t97.5 752.5q0 330 -77.5 560t-245.5 395q-213 220 -497 220l-152 -5l-75 -124q-316 -531 -542 -1118t-306 -1083q-27 -188 -27 -420q0 -674 381 -771
q48 -13 112 -13zM1653 323q7 0 34 16q56 32 95 65q20 16 25 22q0 1 -1 1q-7 0 -64 -37q-90 -58 -90 -66q0 -1 1 -1zM2288 1010q15 17 28.5 32.5t22 29.5t8.5 21q0 9 -2 10q-3 0 -32 -50zM2367 1133q7 2 14 21q3 7 3 11t-3 4q-7 0 -15 -11q-5 -7 -5 -13q0 -12 4 -12h2z
M2463 1337q9 0 47 99q41 105 58 171q6 27 6 34v3q-8 0 -59 -140t-53 -164q0 -3 1 -3zM2612 1754q6 0 7 13q0 7 -3 14.5t-5 7.5q-3 0 -4 -15q0 -20 5 -20zM2210 4811q13 0 66 45q13 11 13 14t-3 3q-11 0 -42 -24q-35 -27 -35 -37q0 -1 1 -1zM2320 4910q-2 0 -2 1q0 8 43 29
q32 17 43 17l1 -1q0 -7 -44 -30q-33 -16 -41 -16z" />
    <glyph glyph-name="P" unicode="P" horiz-adv-x="4758" 
d="M2675 -375h-9q-34 0 -85 12q-45 11 -131 35l-75 20l76 299q147 571 147 1133q0 30 -2 36q-1 1 -6 1q-43 0 -234 -33q-141 -26 -237.5 -34t-254.5 -8q-437 0 -670.5 73t-328.5 243q-23 37 -31.5 76t-10.5 120l-4 131l12 -104q26 -229 194 -348q197 -140 595 -140
q108 0 184 7l144 13l-238 2q-246 3 -420 40t-228 99q-4 5 -4 7t2 2q8 0 40 -16q82 -38 376 -81q25 -3 75 -3q72 0 172 5q182 10 182 20l-1 2q0 4 15 4q7 0 19.5 -2t19.5 -2t7 3t-11.5 10t-11.5 12q0 2 3 2q34 2 309 60q287 60 310 69q40 17 40 29q0 11 -29 11q-12 0 -30 -2
q-119 -17 -149 -17q-10 0 -10 2q0 8 210 57l-5 94q-10 183 -67.5 374.5t-139.5 317.5q-114 175 -268 262.5t-389 112.5q-58 5 -124 5q-325 0 -821 -128q-244 -65 -358 -83t-176 -18q-142 0 -206 87q-42 55 -42 128q0 49 20 107q49 142 202 292q97 92 236 198q58 44 66 44
t112 63.5t354 186.5q631 299 1537.5 565.5t1746.5 399.5q292 45 471.5 59.5t470.5 14.5q274 0 415.5 -8.5t203.5 -28.5l144 -43q180 -56 320 -162t199 -230q47 -108 50.5 -190t3.5 -99q0 -128 -34 -238q-18 -52 -70.5 -154.5t-105.5 -188.5q-109 -169 -341 -402t-437 -380
l-161 -117q-125 -93 -208 -143q-41 -23 -155 -96q-210 -134 -586 -299t-829 -322q-349 -119 -419 -139q-39 -10 -57 -18.5t-26 -24t-16 -48.5l-72 -262q-120 -418 -174 -628.5t-91 -400.5q-40 -208 -56 -262q-9 -28 -18 -35.5t-21 -7.5zM1909 1090q15 0 15 5q0 1 -3 3.5
t-7.5 2.5h-6.5q-6 0 -12.5 -2.5t-6.5 -4.5q0 -4 21 -4zM2005 1164q38 1 38 4q0 5 -32 5q-39 0 -39 -5q0 -3 33 -4zM2119 1176q21 0 21 5q0 6 -13 7q-8 0 -15.5 -3t-7.5 -5q0 -3 15 -4zM3185 1567q20 0 109 35l50 19q-101 -18 -133 -30t-32 -21q0 -3 6 -3zM2906 1603
q12 17 57 170q91 302 266 784t285 735q45 98 111 249q71 156 85 156l2 -2q14 0 69 110q58 116 68 116q1 0 1 -1q0 -20 -59 -138q-57 -115 -88 -193t-31 -99q0 -4 1 -5l1 -1q12 0 45 62q25 47 27 47l1 1q0 -10 -130 -329q-117 -293 -117 -312v-1q8 0 53 112q74 180 162 382
q100 229 107 229v-1q0 -17 -101 -255q-109 -261 -216.5 -581.5t-134.5 -465.5q-3 -18 -3 -28q0 -13 6 -13q4 0 9 4q9 6 12 6l1 -1q0 -3 -11 -16.5t-11 -22.5q0 -5 2.5 -8t2.5 -5q0 -4 -7 -4t-11.5 -9.5t-4.5 -23.5q0 -30 -15 -75q-22 -60 -76 -287q-49 -210 -49 -235
q0 -1 1 -2t4 -1q34 0 215 63q199 69 450 166.5t430 178.5q484 224 887.5 504t672.5 571t348 545q21 70 21 131q0 171 -160 274q-133 89 -326.5 126t-502.5 37h-46q-215 0 -387 -14q-184 -15 -462 -57q-681 -104 -1402 -299.5t-1334 -434.5q-766 -298 -1118 -580
q-129 -104 -129 -128q0 -4 6 -4q16 0 244 57q336 84 540.5 117t387.5 33h43q552 0 862 -304q333 -310 419 -918q17 -112 26 -112h1zM3399 2414q-4 0 -4 10q0 13 21 41q13 19 16 19q1 0 1 -2q0 -6 -4.5 -22.5t-12.5 -28.5t-11.5 -14.5t-5.5 -2.5zM3373 1621q9 0 15.5 4.5
t6.5 9.5q0 8 -10 8q-5 0 -13 -2.5t-14 -7t-6 -6.5q0 -6 21 -6zM459 2899q13 0 61 37q59 42 59 51l-2 1q-11 0 -61 -37q-56 -41 -58 -51q0 -1 1 -1zM634 3020q3 0 59 32q253 144 329 182q63 34 63 40h-2q-23 0 -220 -107q-209 -114 -228 -138q-3 -5 -3 -7t2 -2zM1199 3321
q6 0 16.5 4t21 11.5t10.5 10.5q0 2 -5 2q-6 0 -16 -4t-21 -11.5t-11 -10.5q0 -2 5 -2zM1267 3353q4 0 15 4.5t15 8.5t4 6q0 5 -6 5q-3 0 -8 -2t-13.5 -10t-8.5 -11q0 -1 2 -1zM1368 3394q23 0 48 21q20 15 20 18q-4 0 -21 -9q-26 -13 -50 -21q-14 -4 -14 -7q0 -2 17 -2z
M1519 3451q10 0 33 14q13 7 13 11q0 3 -12 3q-14 0 -23 -4q-17 -7 -17 -19q0 -5 6 -5zM2790 3869q9 0 21.5 3.5t22.5 10.5t10 10q0 2 -4 2q-11 0 -43 -13q-16 -7 -16 -10t9 -3zM2896 3897q19 0 110 28q74 21 74 27q0 1 -2 1q-34 0 -137 -30q-50 -15 -50 -23q0 -3 5 -3z
M3245 3986q6 0 22 3.5t84 19t155 35t142.5 34.5t55.5 18h-3q-25 0 -217 -41q-242 -53 -242 -68q0 -1 3 -1zM3748 4101q20 0 72 11q30 7 30 10q0 2 -16 2q-43 0 -79 -12q-23 -7 -23 -9t11 -2h5zM3899 4129q21 0 21 4q0 6 -21 6t-21 -6q0 -4 21 -4zM3985 4144q21 0 21 4
q0 6 -21 6t-21 -6q0 -4 21 -4zM1016 1333q-7 0 -34 33l-28 32q65 -53 65 -60q0 -5 -3 -5zM2269 1378q-21 0 -21 4q0 2 6.5 4.5t12.5 2.5q11 0 15 -4l2 -2q0 -5 -15 -5zM44 2890q0 4 23 39q33 45 55 62q4 3 5 3t1 -1q0 -7 -30 -43q-50 -60 -54 -60z" />
    <glyph glyph-name="Q" unicode="Q" horiz-adv-x="3613" 
d="M4026 -1071q-10 0 -64 54q-42 40 -57 40q-4 0 -6 -4t-7 -4q-13 0 -43 35q-40 47 -92 135q-50 82 -58 82q-1 0 -1 -3q0 -10 18 -56q30 -71 64 -169l-29 27q-31 31 -154 272q-127 251 -178 325q-166 242 -401 332q-185 70 -382 70q-132 0 -165 -38q-11 -13 -44 -55.5
t-73 -93.5q-113 -144 -266.5 -294t-265.5 -225q-142 -95 -221.5 -122t-193.5 -27h-25q-70 0 -109.5 2.5t-67 11t-63 26.5t-79.5 48.5t-75 60.5l-73 68q-348 -216 -504 -317q-134 -86 -171 -91l-35 -2q60 62 60 76q0 6 -8 6q-6 0 -16 -3h-2q-2 0 -2 1q0 10 51 57t51 53h-1
q-7 0 -62.5 -40.5t-62.5 -40.5q-1 0 -1 1q0 8 80 86q104 104 104 133q0 12 4.5 20.5t10.5 8.5q14 0 14 17t42 64q37 41 37 50l-1 3q0 7 25 29.5t68.5 52.5t89.5 56l81 46l-35 97q-121 319 -172 968q-18 219 -18 485q0 277 13 855q4 208 7.5 272.5t3.5 92.5q0 23 -3 23
q-4 0 -16 -29q-120 -273 -234 -844q-17 -82 -30 -201t-26 -258q-11 -133 -11 -300q0 -290 24 -456q38 -249 38 -303q0 -12 -2 -12q-7 0 -37 149q-66 338 -89 727l-12 223q9 -447 12 -521q4 -110 6.5 -154t2.5 -64q0 -13 -2 -13q-1 0 -2 4q-6 25 -22 46q-17 31 -43 315
q-11 114 -13 193q-2 71 -7 71q-1 0 -2 -3q-7 -25 -20 -25q-16 0 -16 111q0 255 40 586q19 157 42 260q29 132 29 158q0 5 -1 5q-5 0 -26 -71q-45 -156 -97 -459q-41 -237 -47 -237q-2 0 -2 23q0 24 2 70q23 431 190 922q120 358 353 744l93 156q88 707 91 741q1 5 2 5
q3 0 11 -33q6 -38 9 -38t3 29q5 63 19 137q16 82 22 82q2 0 2 -13q0 -34 -12 -128q-12 -100 -12 -155q0 -11 6 -66q26 79 29 79q2 0 2 -11q0 -52 -27 -295q-9 -85 -9 -122q0 -10 1 -12t2 -2q12 0 28 155q37 344 48 344q1 0 1 -8q0 -65 -18 -223q-16 -154 -16 -200
q0 -10 1 -11.5t2 -1.5q12 0 51 50q53 65 167.5 179.5t237.5 226.5t201 171q443 326 887 448q160 40 266 43.5t131 3.5q422 0 663 -233q341 -308 341 -971q0 -778 -411 -1804q-229 -571 -540 -1106q-103 -180 -103 -184q0 -7 63 -7q68 0 204 -36.5t224 -78.5q85 -43 179 -108
t137 -110q246 -274 307 -439q18 -49 79 -179q44 -93 83 -187q42 -105 46 -137l1 -17q5 -19 42 -54q29 -27 29 -31q0 -5 -21 -5q-13 0 -36 16t-46 41q-42 45 -49 45q-2 0 -2 -3q0 -12 48 -75q39 -50 39 -70q0 -12 -15 -12zM1379 -502q30 0 84 18q117 39 234 125
q65 45 194 170q117 114 117 130q0 1 -1 1.5t-4 0.5q-21 0 -112 -36q-229 -87 -504 -221q-182 -88 -182 -111q0 -8 14 -21q30 -27 78 -41.5t82 -14.5zM1046 -142q13 0 32 14q43 27 74 39q46 19 135 65q196 101 476 206.5t455 143.5q84 16 104 32q28 24 115 169q83 139 83 158
l-1 2q-1 2 -1 5q0 10 15 17q29 15 172 281q58 107 96 192q34 77 64 137q38 73 166 382q54 130 92 225q196 511 299 1078q34 204 34 326v129q0 228 -33 369q-83 338 -267.5 437.5t-385.5 99.5q-216 0 -436 -76q-243 -84 -291 -121q-33 -25 -138 -86q-120 -70 -127 -70
t-43 -36q-31 -36 -47.5 -36t-110.5 -82q-214 -187 -405 -392q-85 -92 -85 -110q0 -8 -70 -97q-71 -93 -128 -188l-60 -99l8 -132q7 -164 12 -1053q2 -480 8.5 -754.5t23.5 -441.5q23 -236 84 -479q64 -254 81 -254zM2778 82q20 0 20 5q0 2 -2.5 4t-7.5 2h-7q-6 0 -12.5 -2.5
t-6.5 -4.5q0 -3 16 -4zM2592 98q28 0 28 4q0 6 -23 6q-12 0 -23 -3q-6 -2 -6 -3q0 -3 24 -4zM2693 99q37 0 37 3q0 6 -32 6q-16 0 -30 -3q-8 -2 -8 -3q0 -2 33 -3zM3009 1021q4 0 9 3.5t9 10t4 12.5q0 8 -6 8q-3 0 -8.5 -3t-10 -10t-4.5 -13q0 -8 7 -8zM3074 1156q7 0 51 89
q57 117 103 232q17 45 17 50v1q-6 -2 -81 -161q-90 -192 -90 -209v-2zM3293 1653q3 0 12 12q14 21 14 36q0 5 -2 5q-3 0 -12 -13q-14 -21 -14 -36q0 -4 2 -4zM3325 1727q4 0 9.5 3t9.5 10t4 13q0 8 -7 8q-3 0 -8.5 -3.5t-9.5 -10t-4 -12.5q0 -8 6 -8zM3365 1825q3 0 10.5 11
t11.5 21.5t4 15.5t-2 5q-3 0 -10.5 -10.5t-11.5 -21t-4 -16.5q0 -5 2 -5zM3659 2823q3 0 8.5 5.5t8 13t2.5 12.5q0 13 -6 13q-5 0 -11 -20q-4 -14 -4 -20q0 -4 2 -4zM3684 2915q6 0 18 85q3 22 3 34q0 18 -2 18q-3 0 -9 -27q-10 -39 -12 -86q0 -24 2 -24zM3724 3187
q5 0 7 83q2 68 2 143q0 254 -5 254q-4 0 -9 -270v-89q0 -121 5 -121zM3714 3746q6 0 6 29q0 23 -5 23q-3 0 -4 -24q0 -28 3 -28zM4076 -956q-6 0 -23 29q-9 19 -9 27q0 2 1 2q6 0 23 -29q10 -20 10 -26q0 -3 -2 -3z" />
    <glyph glyph-name="R" unicode="R" horiz-adv-x="4226" 
d="M1448 -243q-13 0 -14 137l-2 151q-19 -130 -26 -161q-7 -36 -14 -36q-13 0 -22 46q-6 24 -6 59q0 56 -19.5 56t-30.5 55.5t-11 146.5q0 78 -12 78h-1q-13 -10 -13 -62t-9 -84.5t-23 -32.5q-6 0 -7 33q0 249 19 388l9 54h-149q-129 0 -257 13.5t-210 36.5q-108 32 -172 97
t-64 143q0 97 70 187t249.5 204.5t500.5 279.5q221 114 243 127q6 9 45 174q83 339 298 923q410 1098 814 1098q54 0 87.5 -12t33.5 -24l-1 -6q0 -13 30 -29q31 -14 31 -23q0 -3 -5 -3q-15 0 -47 16q-39 20 -57.5 21t-22.5 1q-23 0 -23 -13q0 -6 5 -11t13 -5q2 0 2 -1
q0 -4 -55 -13q-68 -11 -92 -33q-9 -9 -9 -11t4 -2q8 0 48.5 15t66.5 15q17 0 33 -8q21 -9 21 -13q0 -1 -1 -1q-4 -3 -44 -3q-57 -2 -89 -23q-37 -28 -62 -84q-9 -20 -9 -30q0 -5 1.5 -7.5t1.5 -7.5q0 -18 -17 -71q-16 -46 -16 -69q0 -5 1 -7l-15 -40q-18 -35 -47 -85
q-101 -168 -231 -469q-71 -165 -194 -548q-118 -363 -118 -409q0 -3 1 -5q32 0 654 326q650 341 960 520q850 491 1284 939q361 369 375 673l1 39q0 70 -21 110q-27 50 -108 87q-167 78 -455 78q-428 0 -1045 -151q-511 -126 -1078 -339t-1126 -498q-264 -134 -388 -212
q-184 -115 -400 -287q-93 -73 -124 -106q-56 -62 -94.5 -124t-38.5 -89q0 -51 110 -97t296 -78t419 -42q211 -7 211 -18l-1 -2q0 -5 39 -5l51 1q33 2 53 2q31 0 31 -5q0 -8 -54 -14q-35 -5 -75 -6q-76 -2 -145 -13q-50 -8 -50 -12q0 -1 10.5 -2t20 -6t13.5 -11l1 -2
q0 -8 -77 -8q-53 0 -142 4q-78 3 -159 3q-59 0 -59 -4q15 -10 288 -22l277 -11l-352 5q-273 3 -397 11t-189 26q-41 11 -67 11q-7 0 -11.5 -1.5t-10.5 -1.5q-18 0 -36 8q-13 7 -18 7q-2 0 -2 -2t4 -8t4 -8t-3 -2q-5 0 -21 9q-32 17 -45 45q-16 28 -33.5 28t-44 26t-49.5 63
q-42 65 -42 144q0 119 68 232q31 50 31 59q0 1 -1 1h-1q-4 -2 -7 -2q-8 0 -8 8q0 13 67 82.5t150.5 146.5t142.5 121q512 379 1512 800l72 30q146 62 224 94t155.5 58t219.5 71l71 22q218 70 346 109t227.5 65t232.5 56q634 148 1049 148q146 0 264 -18q108 -18 152 -18
q40 -2 40 -11.5t65 -32t145 -74.5q151 -102 192.5 -227.5t41.5 -222.5q0 -88 -24 -185q-83 -356 -417 -696q-494 -522 -1522 -1100q-264 -149 -724 -389q-407 -213 -407 -226q0 -8 -7 -8q-3 0 -7 3h-1q-27 0 -301 -137q-205 -103 -251 -132q-28 -19 -37 -33
q-13 -20 -39 -145q-15 -68 -25 -122q-4 -29 -24 -131q-11 -64 -11 -100q0 -11 1 -16q4 -14 79 -14q68 0 171 3q144 5 299 5q318 0 499 -13q258 -21 413.5 -42t155.5 -35v-2q0 -5 15 -5q10 0 22.5 1.5t20.5 1.5q17 0 17 -8v-1q0 -14 150 -59q156 -45 269 -97
q106 -49 195.5 -108.5t103.5 -88.5q7 -25 19 -25t60 -69l45 -68l-60 69q-243 260 -702 362q-159 33 -212 33q-17 0 -17 -5q0 -3 15 -4t70 -13t125 -30q141 -35 260 -81t162 -81l32 -28q-18 9 -34.5 17t-35 14t-31.5 7.5t-58 15t-100.5 32t-120.5 35.5t-109 23.5t-84.5 13
t-61 10.5t-42.5 7l72 -46l-50 8q-63 8 -288 13.5t-508 5.5q-248 0 -248 -12q0 -8 288 -16q398 -13 398 -23q0 -12 -565 -21q-629 -12 -663 -18q-12 -7 -28 -60t-29.5 -127t-19.5 -144q-8 -106 -21 -179t-26 -90q-6 -9 -12.5 -42.5t-9.5 -75.5q-9 -95 -23 -114q-2 -3 -4 -3z
M1976 660q28 0 28 3q0 6 -23 6q-29 0 -29 -5q0 -3 24 -4zM3120 774q21 0 21 4q0 6 -21 6t-21 -6q0 -4 21 -4zM1257 907q38 1 53.5 7t18.5 24q12 49 36 195q19 119 19 140q0 1 -0.5 2t-1.5 1q-9 0 -29 -17q-30 -25 -162 -91q-138 -71 -173 -94q-41 -28 -118 -78t-77 -63v-1
q10 -10 184 -15q173 -2 179 -6t71 -4zM1528 1712q12 0 19 17q4 10 4 25q0 10 -3 10t-11 -13q-14 -22 -14 -33q0 -6 5 -6zM1640 2089q6 0 21 34.5t15 51.5q0 5 -3 5q-7 0 -20.5 -32t-13.5 -52q0 -7 1 -7zM3252 2548q8 0 27 9q29 17 29 23q0 2 -3 2q-6 0 -26 -10
q-29 -17 -29 -23q0 -1 2 -1zM3352 2604q24 0 348 195q166 101 166 113q0 2 -1 2q-5 0 -27 -14q-80 -50 -263 -158l-141 -82q-83 -47 -83 -55q0 -1 1 -1zM3960 2963q8 2 53 32q144 95 144 104q0 2 -2 3q-3 0 -9.5 -3.5t-20 -12t-34.5 -22.5t-53 -35q-35 -24 -58.5 -42.5
t-23.5 -20.5q0 -3 3 -3h1zM4764 3580q10 0 41 36q28 30 28 35q0 1 -1 1q-7 0 -41 -36q-28 -30 -28 -35q0 -1 1 -1zM4859 3679q11 0 107 124q23 29 23 32q-3 0 -46 -47q-64 -66 -82 -100q-2 -5 -2 -7v-2zM2730 3826q14 0 14 4q0 7 -14 7q-7 0 -14.5 -3t-7.5 -5q0 -3 22 -3z
M5076 3968q6 0 23 31q37 67 69 169q23 76 23 120q0 4 -1 4q-2 0 -12 -36q-15 -48 -36 -107t-40 -105.5t-26.5 -56.5t-7.5 -14q0 -5 8 -5zM5194 4400q14 0 14 7q0 2 -4 6.5t-9 8t-8 3.5q-8 0 -8 -9q0 -16 15 -16zM1499 -89q-4 0 -4 13q0 22 3 22q2 0 5 -7.5t3 -14.5
q0 -13 -7 -13zM3466 789q-21 0 -21 4q0 6 21 6t21 -6q0 -4 -21 -4zM363 2500q-21 0 -21 14q0 8 10 8q5 0 12.5 -3t14 -7t6.5 -7q0 -5 -22 -5zM5404 4674q-2 0 -25 25q-13 15 -13 18h1q3 0 18 -12q25 -21 25 -28q0 -3 -6 -3z" />
    <glyph glyph-name="S" unicode="S" horiz-adv-x="5548" 
d="M1846 -393q-109 0 -186 21q-107 28 -156 84.5t-49 150.5q0 153 171.5 324t530.5 375q146 83 282.5 152t222.5 102q16 7 22 7q4 0 4 -3q0 -2 -3.5 -7t-3.5 -8q0 -2 4 -2q5 0 17 5q111 47 392 133q228 69 359 74l97 2q83 0 130 -13q15 -4 15 -6q0 -8 -116 -8
q-412 0 -1058 -326q-52 -26 -52 -32h2q15 0 88 36q200 98 478 190q205 67 256 67q13 0 13 -6q0 -7 -14 -13q-10 -4 -21 -4q-24 0 -41 -17q-24 -19 -194 -77q-151 -53 -268.5 -108t-117.5 -72q0 -8 7 -8q8 0 21 7t19 9t8 2q3 0 3 -2q0 -7 -49 -33q-404 -213 -674 -431
q-202 -163 -229 -210l-2 -6q0 -1 2 -1q8 0 60 47q206 196 525 362q99 53 108 53h1q0 -6 -236 -167q-92 -62 -179.5 -129.5t-130.5 -107.5l-96 -92l137 7q242 11 763 141q635 157 1132 338t810 365.5t398 352.5q30 56 30 99q0 61 -61 95q-126 70 -585 70q-233 0 -539 -27
q-407 -36 -1128 -136q-900 -125 -1329 -169.5t-706 -44.5h-48q-199 0 -309 16q-116 16 -196 59q-52 28 -98 75t-62.5 91t-16.5 96q0 144 102 294q186 262 698.5 653t1203 811.5t1409.5 771.5q372 180 604 277.5t505 186.5q339 113 556 113q286 0 361 -197q26 -70 26 -155
q0 -82 -24 -177q-49 -195 -188 -405q-58 -85 -129.5 -175t-126.5 -148.5t-69 -58.5h-3q-17 0 -65 -50q-59 -60 -67 -60q-1 0 -1 1q0 14 92 115q71 76 113 132t42 69q0 3 -2 3q-8 0 -62 -55q-18 -19 -21 -19l-1 1q0 6 55 80q185 250 248 389q27 64 27 72v1q-5 0 -53 -88
q-43 -82 -95 -166q-60 -90 -202 -263q-65 -79 -73 -79q-1 0 -1 1q0 5 16 27q207 269 268 372q34 59 64 126q34 72 49 112t18.5 76t3.5 96q0 187 -42 187q-7 0 -16 -7.5t-16 -7.5t-12.5 8.5t-15.5 8.5q-4 0 -8 -2.5t-9 -2.5q-11 0 -23.5 10t-28.5 10t-44 -9q-81 -25 -156 -43
q-140 -37 -237 -79q-40 -17 -40 -24v-2q0 -9 -111 -51q-508 -193 -1186.5 -534.5t-1121.5 -627.5q-116 -74 -187 -112q-168 -88 -498 -312q-718 -488 -1038 -819q-168 -175 -168 -239v-3q19 -65 332 -65q406 0 1192 103l979 130q579 78 1130 131q207 18 462 18
q324 0 477 -24q185 -33 289 -90q130 -71 184 -212q9 -25 11.5 -59t2.5 -96q0 -67 -3 -102t-16.5 -69t-43.5 -93q-27 -53 -45.5 -87t-22.5 -34q-10 0 -93 -78q-130 -120 -376 -265.5t-484 -243.5q-113 -46 -155 -67q-28 -16 -72 -28q-28 -7 -273 -92q-347 -123 -1022 -310
q-208 -55 -487 -98t-440 -44zM1766 -135q1 0 1 1q0 7 -13 28.5t-21 21.5q-3 -1 -3 -4q0 -7 13 -24q15 -23 23 -23zM1335 1090q78 6 204 22q207 24 207 31q0 3 -33 3q-49 0 -227.5 -22t-185.5 -28q-2 -2 -2 -3q0 -3 16 -3h21zM1945 1163q21 0 21 4q0 6 -21 6t-21 -6
q0 -4 21 -4zM2013 1162q11 0 32 13q12 7 12 10q0 4 -14 4q-41 0 -41 -14q0 -13 11 -13zM2159 1191q13 0 13 5q0 6 -13 6q-7 0 -14.5 -3t-7.5 -5q0 -3 22 -3zM3245 1325q8 0 86 12q129 18 129 20q0 1 -6 1q-18 0 -84 -5q-52 -3 -90 -9q-47 -7 -47 -15q0 -4 12 -4zM3638 1370
q12 0 29 2q26 3 107 10q359 31 359 35q0 1 -24 1q-82 0 -264 -15q-222 -20 -222 -30q0 -3 15 -3zM4256 1423q28 0 28 3q0 6 -29 6q-9 0 -16.5 -2t-7.5 -4t25 -3zM4413 1421q20 0 20 5q0 6 -13 7q-8 0 -15.5 -3t-7.5 -5q0 -3 16 -4zM4930 3148q6 0 53 57q39 51 39 57l-1 1
q-7 0 -53 -58q-39 -49 -39 -56zM2787 862q-2 0 -2 1q0 5 36 19.5t52 14.5h2q0 -6 -34 -19q-39 -16 -54 -16z" />
    <glyph glyph-name="T" unicode="T" horiz-adv-x="4226" 
d="M3087 -508q-12 0 -37 112q-11 46 -19 95q-15 91 -21 91q-4 0 -4 -42l1 -59l1 -29q0 -26 -3 -37t-11 -11q-23 0 -36 81q-13 107 -29 107q-4 0 -8 -7q-2 -2 -3 -2q-17 0 -34 143q-8 66 -8 127q0 106 -13 106q-6 0 -10 -21.5t-4 -53.5q-1 -84 -9 -127.5t-17 -43.5
q-13 0 -15 70l-2 70q0 150 21 301q65 404 243 1058.5t374 1208.5q102 283 102 301l-10 1q-78 0 -673 -64q-285 -31 -492 -56.5t-469 -64t-711 -108.5q-327 -51 -500 -75t-234 -28t-94 -4q-40 0 -72 3q-253 23 -287 189q-4 20 -4 39q0 92 99 175q120 99 425 216
q661 257 1670 489q354 83 676 144t979 168q84 14 95 25q13 15 63 148q59 150 73 180q19 37 99 237q131 326 148 326q1 0 2 -1t3 -1q10 0 24 25q10 18 13 18q2 0 2 -6q0 -10 -5 -42q-4 -25 -4 -39q0 -17 6 -17q2 0 6 2t7 2q8 0 8 -11q0 -20 -22 -75q-18 -45 -18 -65
q0 -6 2 -6q10 0 42 86q29 77 37 77q2 0 2 -3q0 -26 -23 -77.5t-27 -238.5q-5 -180 -13 -197q-2 -4 -2 -8q0 -7 7.5 -9.5t7.5 -14.5q0 -24 -54 -168q-23 -63 -23 -78q0 -3 8 -3q28 0 172 14q501 50 1046 50q636 0 1062 -96q143 -34 333 -100q95 -34 95 -44q0 -3 -5 -3
q-6 0 -20 4l-6 1q-1 0 -1 -1q0 -6 57 -33q71 -37 71 -42q0 -1 -2 -1q-11 0 -101 35q-82 31 -105 32q-23 0 -23 -5q0 -7 31 -26q26 -15 26 -18q0 -1 -2 -1q-4 0 -73 20q-218 60 -261 60q-6 0 -6 -2q0 -6 71 -24q163 -44 250 -76q40 -15 40 -20q0 -1 -3 -1q-25 0 -123 31
q-147 48 -239.5 54.5t-140.5 6.5q-111 0 -252 -16q-59 -6 -191 -11q-126 -5 -126 -13.5t-471 -17.5q-483 -10 -717 -31q-193 -17 -353 -38.5t-185 -33.5q-13 -10 -31 -76q-23 -76 -66 -169q-52 -121 -67 -175l-22 -73l74 -18q177 -44 263 -107.5t108 -166.5q2 -12 2 -28
q0 -57 -21 -121q-17 -48 -30 -48q-2 0 -2 5q0 10 6 26q15 43 15 111q0 193 -247 261q-115 31 -176 31q-24 0 -24 -8q0 -13 41 -13q47 0 123 -25t136 -56.5t60 -50.5q0 -9 -5 -9t-13 7q-18 14 -39 16q-19 0 -101 29q-100 34 -175 34q-34 0 -39 -10q-5 -17 -17 -29
q-17 -26 -92 -238q-302 -854 -494 -1582q-34 -129 -42 -175t-41 -179q-36 -162 -58 -286q-22 -137 -37 -178q-21 -67 -52 -469q-3 -47 -9 -79t-12 -32t-6 -48q0 -72 16 -193q4 -31 4 -46q0 -14 -4 -14zM3198 1753q3 0 20 47q39 113 39 129q0 3 -1 3q-5 0 -24 -48
q-36 -93 -36 -125q0 -6 2 -6zM3269 1967q3 0 12 14q14 23 14 44q0 14 -2 14q-3 0 -12 -14q-14 -24 -14 -50q0 -8 2 -8zM3444 2466q5 0 17 27q20 40 20 64q-1 5 -3 5q-5 0 -18 -26q-19 -45 -19 -65q1 -5 3 -5zM701 2878q4 0 219 33q152 21 311 51q104 18 216 36q70 9 236 34
q50 6 288 43q394 61 824.5 105t664.5 46l200 1q34 80 53 131q63 172 78 220q9 32 9 45q0 14 -10 14q-39 0 -381 -60q-440 -78 -840 -166q-292 -64 -512 -121l-446 -115q-288 -76 -650 -195q-265 -88 -265 -101q0 -1 5 -1zM3176 2950q16 0 40 3q64 8 206 13q156 5 156 29
q0 8 -35 8q-49 0 -146 -10q-242 -25 -242 -39q0 -4 21 -4zM199 2961q5 0 11.5 4t9.5 8.5t3 6.5q0 3 -4 3t-11 -3q-22 -8 -22 -15q0 -4 13 -4zM285 3004q6 0 12.5 4t9 8.5t2.5 6.5q0 3 -4 3t-11 -2q-22 -9 -22 -15q0 -5 13 -5zM336 3036q7 0 173 63l98 37q60 23 63 26t3 5
t-1 2.5t-2 0.5q-17 0 -150 -50q-186 -71 -186 -83q0 -1 2 -1zM744 3192q21 0 103 28q37 12 39.5 14.5t2.5 4.5q0 4 -4 4q-17 0 -82 -22q-61 -24 -61 -28zM1491 3408q13 0 24.5 3.5t15 9.5t3.5 9q0 4 -6 4q-10 0 -40 -13q-20 -7 -20 -11q0 -2 14 -2h9zM1660 3451q20 0 20 5
q0 6 -13 7q-8 0 -15.5 -3t-7.5 -5q0 -3 16 -4zM1759 3480q18 0 115 22q135 31 135 43q0 2 -8 2q-11 0 -34 -3.5t-60 -13t-73.5 -21t-56 -18.5t-19.5 -10q0 -1 1 -1zM2085 3551q6 0 12 4t9 8.5t3 6.5q0 3 -4 3t-11 -2q-22 -9 -22 -16q0 -4 13 -4zM4166 3149q-11 0 -43 13
q-16 7 -16 10t9 3t21.5 -3.5t22.5 -10.5t10 -10q0 -2 -4 -2zM4057 3178q-23 0 -23 3q0 2 7.5 5t15.5 3q13 0 13 -6q0 -5 -13 -5z" />
    <glyph glyph-name="U" unicode="U" horiz-adv-x="3822" 
d="M669 -649q-74 0 -131 14q-450 118 -528 809q-10 100 -10 251q0 371 33 632q82 573 259.5 1208t407 1201.5t466.5 934.5q132 200 152 200q4 0 4 -7q0 -1 1 -1q11 0 59 46l61 57q-186 -235 -191 -269l-1 -14q0 -6 3 -6q9 0 35 29l37 44q-63 -107 -153 -269
q-106 -191 -106 -212q0 -1 1 -1q7 0 75 125q95 171 196 322q44 65 51 65v-1q0 -14 -74 -127q-71 -111 -137.5 -247t-102.5 -238t-36 -143q0 -8 2 -15t2 -15q0 -15 -9 -21q-4 -2 -6 -2q-3 0 -3 4t3.5 13t3.5 13t-3 4q-13 0 -23 -25q-7 -16 -7 -34q0 -13 6.5 -17.5t6.5 -12.5
q0 -9 -7.5 -22.5t-7.5 -26.5q0 -5 2.5 -7.5t2.5 -5.5q0 -13 -13 -27q-19 -24 -21 -45.5t-49.5 -189t-51.5 -210.5q-9 -60 -55 -202q-121 -377 -174.5 -555.5t-100.5 -365.5q-166 -641 -189 -936q-6 -78 -24 -180q-16 -86 -18 -396v-22q0 -234 20 -365q20 -138 74 -239
q70 -141 149 -168.5t136 -27.5q144 0 333 97q78 40 129 75.5t51 52.5l-1 3q-3 5 -3 7q0 1 1 1q3 0 10 -4h1q19 0 100 76q85 80 187 191.5t170 201.5q108 147 254 368.5t233 371.5q190 333 426 836t435 1000q119 295 180.5 467t145.5 440q62 191 97 256q51 84 94 94t58 10
q53 0 98 -45q42 -39 42 -109q0 -85 -81 -314q-90 -260 -140 -432q-29 -102 -57 -194q-61 -219 -106 -395l-56 -217q-100 -380 -138.5 -618t-49.5 -541q-3 -64 -3 -119q0 -147 21 -236q29 -124 109 -184q29 -24 29 -29q0 -2 -2 -2l-8 2q-13 4 -18 4q-2 0 -2 -1q0 -2 12 -10
q28 -18 77 -18q43 0 102 14q125 29 256 104q97 57 106.5 57t81.5 44q57 35 64 35l1 -1q0 -9 -137 -101q-295 -193 -494 -193q-39 0 -65 8q-45 13 -96 60l-61 53l56 -60q56 -59 107 -77q33 -10 75 -10q97 0 238 53l106 41l-44 -43q-107 -96 -305 -96q-77 0 -140 22
q-41 16 -58 16q-9 0 -9 -4q0 -7 34 -26q28 -16 28 -21q0 -1 -4 -2q-19 1 -54 30q-140 114 -187 281q-45 157 -50 347q-3 90 -3 154q0 175 10 217q4 12 4 17q0 3 -2 3q-3 0 -13 -10q-11 -7 -15.5 -84t-4.5 -285q0 -121 -0.5 -189.5t-2.5 -96.5t-6 -28q-3 0 -11 23
q-12 31 -16 115q-5 92 -7 554l-166 -326q-515 -1020 -1038 -1525q-310 -311 -608 -409q-112 -37 -195.5 -44t-121.5 -7zM1716 9q6 0 26 25q13 15 13 17l-1 1q-2 0 -18 -13q-25 -21 -25 -27q0 -3 5 -3zM1760 66q4 0 25 26q13 15 13 17l-1 1q-2 0 -18 -13q-25 -21 -25 -28
q0 -3 6 -3zM1814 126q7 0 48 50q47 58 110 150q56 81 56 88q-5 0 -51 -60q-86 -109 -137 -182q-27 -39 -28 -45q0 -1 2 -1zM2192 660q9 0 23 19q25 31 25 44q0 2 -2 2t-8 -3.5t-15 -14.5t-16.5 -25t-7.5 -19q0 -3 1 -3zM2654 1463q6 0 58 101q44 89 44 100l-1 1
q-6 0 -58 -101q-44 -89 -44 -100zM2797 1756q4 0 9 3t9.5 10t4.5 13q0 8 -7 8q-4 0 -9 -3.5t-9 -10t-4 -12.5q0 -8 6 -8zM1274 4521q6 0 19 16q9 11 15 23q11 20 11 25q0 2 -2 2q-5 0 -31 -37q-13 -21 -13 -28q0 -1 1 -1zM1383 95q-3 0 -3 6q0 5 25 25q15 13 18 13v-1
q0 -3 -12 -18q-21 -25 -28 -25zM3331 760q-24 1 -24 4q0 6 29 6q23 0 23 -6q0 -3 -28 -4zM2871 847q-7 0 -13 19q-9 23 -9 40q1 4 2 4q4 0 13.5 -22.5t9.5 -34.5q-1 -5 -3 -6zM1154 3955q-4 0 -4 13q0 5 4 11.5t8.5 9.5t6.5 3q3 0 3 -4t-3 -12q-8 -21 -15 -21z" />
    <glyph glyph-name="V" unicode="V" horiz-adv-x="2355" 
d="M1100 -555q-30 0 -65 11q-97 34 -113 128q-8 66 -15 526q-35 2062 -319 2798q-64 165 -114 211q-12 12 -21 12q-11 0 -31 -27q-83 -108 -156.5 -397t-117.5 -677q-15 -140 -24 -140q-2 0 -4 6q-3 14 -6 14q-4 0 -5 -51q-2 -69 -17 -94q-4 -6 -6 -6q-5 0 -5 24q0 18 3 52
q4 41 4 71q0 80 -17 80q-4 0 -10 -7l-2 -1q-6 0 -6 56q0 35 2 91l2 74q0 40 -4 40q-8 0 -31 -214l-14 -137q21 466 21 586q0 117 -16 127q-13 11 -13 22q0 10 9 25q15 31 20 118.5t12.5 124.5t14.5 106q8 75 58.5 181t105.5 165q108 106 229 106q135 0 253 -129
q180 -196 292.5 -700.5t170.5 -1379.5q33 -444 37 -612q0 -77 6 -77q12 0 77 178q100 283 269 671q227 521 492 1029q91 175 264 473l145 250q74 129 223 341q61 87 85 115q40 45 198 255q166 221 312.5 374t322.5 288q94 74 225 147q52 29 66 31l1 -1q0 -6 -89 -56
q-96 -54 -122 -82q-8 -10 -8 -12q0 -1 1 -1q5 0 32 19q82 56 198 104q171 71 289 71q45 0 97 -20q96 -32 96 -47q0 -2 -3 -2q-4 0 -17 5q-78 31 -164 31q-176 0 -387 -133q-123 -77 -178 -122q-26 -22 -26 -26q0 -2 3 -2q9 0 102 65q75 52 164 97q155 78 206 78q14 0 14 -9
q0 -6 -6 -10.5t-15 -4.5q-19 0 -25 -12t-102 -56q-110 -54 -179 -111q-33 -28 -33 -40q0 -4 6 -4q8 0 23 7l2 1v-1q0 -11 -115 -125q-157 -159 -323 -364q-65 -81 -65 -94v-1q11 0 112 117q126 146 287 273l3 2v-1q0 -9 -146 -181q-1089 -1268 -1862 -3218
q-110 -282 -216.5 -615.5t-161.5 -572.5q-49 -204 -180 -204zM993 -451q2 1 2 5q0 5 -4 15.5t-7.5 14t-6.5 3.5q-4 0 -4 -8q0 -7 5 -16q9 -14 14 -14h1zM965 -231q1 0 2 13q3 25 3 54t-3 54q-1 13 -2 13q-3 0 -3 -67t3 -67zM1251 -262q2 0 4 2.5t2 7.5v7q0 6 -2.5 12.5
t-4.5 6.5q-3 0 -4 -16q0 -20 5 -20zM964 -36q5 0 6 33q0 16 -3 30q-2 8 -3 8q-3 0 -4 -33q1 -38 4 -38zM1451 392q4 0 18 30q19 41 27 85q2 10 2 14q0 3 -1 3q-3 0 -21 -40q-25 -58 -28 -86q1 -6 3 -6zM1533 624q8 0 72 162q66 167 66 183v1q-8 0 -72 -162.5t-66 -183.5z
" />
    <glyph glyph-name="W" unicode="W" horiz-adv-x="4000" 
d="M2637 -923q-76 0 -119 15q-190 65 -305 295q-88 167 -144.5 437t-90.5 723t-55 1168q-17 522 -35 540q-4 -2 -30 -58t-61 -140l-247 -594q-371 -897 -592.5 -1353t-360.5 -613.5t-215 -161.5t-83 -4q-135 0 -219 136q-45 73 -62.5 191t-17.5 335q0 195 12 370
q19 290 93 782q82 540 119 700q27 123 34 165q63 346 168.5 766.5t210.5 745.5q107 331 123 331q4 0 4 -15q0 -2 1 -2q7 0 42 81q51 122 69 122q2 0 2 -2q0 -3 -4 -12t-20.5 -50t-38 -93t-38 -103t-20.5 -78.5t-9 -56.5q47 80 52 80q1 0 1 -1l-1 -5q-7 -23 -43.5 -152
t-64.5 -217q-28 -93 -28 -122q0 -5 2 -5q6 0 20 48q63 215 140 436q29 84 33 85v-2q0 -27 -57 -211q-138 -448 -145 -662q0 -90 -9 -90q-1 0 -2 2q-5 13 -8 13q-4 0 -10 -71q0 -14 15 -14l13 2q4 0 4 -3q0 -5 -9.5 -15.5t-9.5 -21.5q0 -4 2.5 -6.5t2.5 -4.5q0 -6 -12.5 -6
t-12.5 -5q0 -4 9 -12t9 -20q0 -10 -6 -22q-14 -31 -21 -117.5t-14 -125.5q-17 -77 -27 -212q-3 -43 -3 -60q0 -12 1 -15.5t1 -11.5q0 -36 -22 -165q-244 -1337 -244 -1980q0 -246 44 -246q72 0 295 447q232 468 611 1392q79 191 128.5 321t49.5 143q-2 4 -2 7q0 6 6.5 6
t16 13.5t17.5 32.5q66 163 143 324t117 221q73 103 134 131t99 28q152 0 216 -277q17 -69 28 -168q18 -170 40 -910q19 -609 46 -941t78 -571q70 -342 176 -462q33 -39 53 -50t45 -11q27 0 65 11q72 21 137 76q38 32 61 60.5t23 40.5l-2 8q0 8 14 15q30 16 127 232
q40 91 69 174q46 133 128 454q33 128 45 194l17 83q103 513 148 968q9 101 24 257t28 295q33 368 33 805q0 788 -103 1137q-47 157 -84 157q-17 0 -42.5 -16t-32.5 -16q-2 0 -2 1q0 8 36 30q23 16 35 16q11 0 23.5 -10.5t24.5 -10.5q6 0 6 4q0 10 -28 23q-18 9 -34 9
q-17 0 -32 -9q-31 -19 -93.5 -106t-119.5 -191q-53 -97 -64 -108q-12 -7 -42 -76q-30 -62 -38 -62q-1 0 -1 0.5v1.5q0 24 71 167q78 157 129 238q121 192 206 192q38 0 63 -22t58 -86q19 -34 23 -34q1 0 1 3l-2 10q-14 50 -49 97q-45 58 -88 58q-79 0 -178 -120l-126 -158
q34 56 37.5 69t3.5 19q0 2 -1 4t-1 5q0 25 65 102q115 135 205 135q76 0 139 -90q34 -48 46 -48q4 0 4 5q0 11 -20 48q-16 28 -16 32v1q2 0 9 -8q91 -115 159.5 -407.5t87.5 -643.5q4 -82 10 -138.5t10 -56.5q7 0 7 58q0 154 -30 494q-18 204 -18 254q0 19 2 19q5 0 24 -83
q34 -140 48 -323q21 -279 21 -801q0 -273 -17 -525q-74 -1004 -247 -1770t-406 -1118q-232 -333 -564 -333zM2093 -106q2 0 2 11q-1 11 -4 28q-5 25 -10 25q-6 0 -6 -17q0 -18 8 -36q4 -11 10 -11zM2067 6q1 0 2 6q3 12 3 26q0 13 -3 25q-1 6 -2 6q-4 0 -4 -31q0 -32 4 -32z
M2055 100q1 2 1 12q0 38 -11 180q-16 175 -29 228q-6 24 -9 24q-1 0 -1 -7q0 -11 3 -39q37 -396 46 -398zM2008 679q6 0 6 21t-6 21q-4 0 -4 -21t4 -21zM1995 772q5 0 5 59q0 65 -5 65q-2 0 -3 -59q0 -65 3 -65zM1993 962q7 0 7 13q0 8 -3 15t-5 7q-3 0 -4 -15q0 -20 5 -20z
M1966 1936q1 0 2 6q3 11 3 25t-3 25q-1 6 -2 6q-4 0 -4 -31t4 -31zM1959 2082q14 0 14 15q0 14 -14 14q-15 0 -15 -14q0 -15 15 -15zM1949 2270q2 0 5 15q1 5 1 12q0 22 -10 49q-15 37 -35 37t-43 -34q-23 -37 -23 -43q0 -2 1 -2q4 0 27 25q21 26 29 26t22 -20
q20 -27 23 -50q1 -15 3 -15zM3822 2992q6 0 7 13q0 8 -3 15.5t-5 7.5q-3 0 -4 -16q0 -20 5 -20zM4083 1161q-2 0 -6.5 4t-8 9t-3.5 8q0 8 9 8q16 0 16 -15q0 -14 -7 -14zM1543 2358q-2 0 -2 5q0 6 4 16.5t11.5 21t10.5 10.5q2 0 2 -5q0 -6 -4 -16t-11.5 -21t-10.5 -11z
M3764 4072q-4 0 -4 13q0 23 3 23q2 0 5 -7.5t3 -15.5q0 -13 -7 -13z" />
    <glyph glyph-name="X" unicode="X" horiz-adv-x="3548" 
d="M3704 -591h-43q-25 0 -54.5 21.5t-88.5 84.5q-100 105 -100 120q0 9 -8 9q-15 0 -15 -19q0 -5 2 -8l2 -4q-3 0 -36 36q-57 67 -180 316q-52 104 -82 179.5t-37 75.5q-1 0 -1 -2q0 -34 175 -490l1 -3l-1 -1q-5 0 -50 75q-127 209 -256 641t-278 1149q-48 227 -57 234
q-7 0 -45 -90q-111 -256 -244 -541q-56 -119 -56 -132t-50 -111q-51 -102 -148 -312q-33 -70 -33 -76.5t-49 -81.5q-45 -70 -110 -196q-42 -83 -110.5 -190t-127.5 -186t-74 -79l-3 1q-20 0 -52 -43q-36 -47 -97 -80l-61 -31l81 84q110 115 171 235q11 20 11 24q0 1 -1 1
q-7 0 -87 -107q-69 -90 -80 -90q-7 0 -7 12q0 16 8 37.5t20 36.5q17 21 43 71q16 31 16 40q0 3 -4 3t-11 -3q-11 -5 -16 -5q-6 0 -6 5q0 9 13 30q31 59 83 186q50 119 50 133l-1 1q-9 0 -38 -53q-33 -58 -77 -119q-30 -43 -37 -43q-1 0 -1 3q0 29 267 565q169 337 295 608
q123 264 461 1033l-110 527q-111 524 -206.5 881.5t-151.5 452.5q-16 26 -31.5 36.5t-37.5 10.5q-109 -6 -298 -170.5t-398 -436.5q-269 -359 -525 -859.5t-366 -880.5q-32 -114 -58 -202q-17 -52 -30 -160t-13 -196q0 -302 188 -331q47 -5 47 -12q0 -4 -13 -8q-8 -4 -8 -6
q0 -4 22 -4l48 2q47 0 47 -8q0 -11 -63.5 -11t-85.5 -21t-52 -21q-40 0 -94 35q-45 31 -58 31q-1 0 -2 -1t-1 -3q0 -11 28 -28q34 -22 85 -42.5t92 -26.5q12 -2 12 -3t-10 -1q-172 0 -282 147q-27 34 -48 71t-27 58t-14.5 35.5t-16 14.5t-7.5 12q0 5 2.5 11.5t2.5 10.5t-3 4
l-4 -1q-13 0 -28 96q-22 135 -22 250q0 61 6 116q18 158 103 401q214 622 566 1202q353 584 667 892q133 133 133 152v4q0 3 2 3q1 0 4 -2t5 -2q22 0 79 42q83 59 181 103q127 57 215 57q117 0 212 -70q115 -84 180 -256q42 -114 110 -365.5t131.5 -518.5t92.5 -428
q16 -101 25 -101q8 0 185 357q334 671 586 1035t468 487q11 7 13 7t2 -1q0 -3 -15 -20t-15 -21q0 -1 2 -1q4 0 27 16q61 38 84 38q3 0 3 -2q0 -4 -49 -36q-61 -40 -61 -62q0 -7 8 -7q6 0 15 3h2q3 0 3 -2q0 -12 -59 -71q-55 -56 -55 -61q7 0 93 73q59 50 68 50
q0 -4 -22.5 -31t-58.5 -65.5t-61 -72.5t-25 -44.5t-4.5 -20.5t-11 -14.5t-8 -10.5t-1.5 -10q0 -5 2 -11t2 -15q0 -17 -7 -29q-24 -47 -47 -120q-8 -29 -8 -37v-4q0 -12 -33 -69q-49 -83 -160 -263q-92 -149 -142 -245q-56 -107 -103 -187q-71 -126 -311 -630
q-107 -223 -193 -420q44 -270 74 -390q29 -112 58 -259q37 -182 87 -393t79 -305q18 -59 51 -216q23 -119 67 -262q205 -667 353 -855q37 -47 60 -86l2 -5h-1q-8 0 -90 100q-21 27 -23 27l-1 -1q0 -11 56 -90q41 -57 102 -95t115 -41q36 -1 36 -7q0 -2 -4 -5
q-19 -12 -51 -12q-49 0 -98 23q-29 15 -76 58.5t-90.5 94t-62.5 84.5q-21 42 -29 42q-2 0 -2 -3q0 -17 47 -89q56 -89 112 -146q32 -33 55 -50zM1550 -159q11 0 33 25q14 15 24 34q8 14 8 18q0 1 -1 1q-5 0 -30 -24q-38 -36 -38 -49q0 -5 4 -5zM2297 1843q5 0 34 52
q35 65 35 79q0 2 -1 2q-5 0 -34 -52q-35 -65 -35 -79q0 -2 1 -2zM2384 2010q3 0 12 15q14 21 14 43q0 14 -3 14t-11 -14q-14 -24 -14 -50q0 -8 2 -8zM2388 3034l1 2q0 27 -33 180q-34 170 -43 170q-1 -1 -1 -6q0 -28 25 -149q36 -165 43 -184q5 -13 8 -13zM2291 3470
q2 3 2 21q0 34 -13 73q-4 12 -7 12l-3 -13q0 -24 4 -47q8 -46 16 -46h1zM2101 4185q1 1 1 4q0 5 -4.5 19.5t-12.5 14.5q-4 0 -4 -7q0 -8 5 -16q10 -15 14 -15h1zM2042 4286q4 0 4 3q0 5 -17 18q-26 19 -59 19l-42 -2q49 -8 64 -14t21 -12q14 -12 29 -12zM1870 4300
q6 0 16.5 4t21 11.5t10.5 10.5q0 2 -5 2q-6 0 -16 -4t-21 -11.5t-11 -10.5q0 -2 5 -2zM159 974q-6 0 -26 25q-13 15 -13 17l1 1q2 0 18 -13q25 -21 25 -27q0 -3 -5 -3z" />
    <glyph glyph-name="Y" unicode="Y" horiz-adv-x="1452" 
d="M87 -1174q-4 0 -4 14q0 33 45 268q30 146 30 176v1q-5 0 -44 -136l-31 -113q-18 -61 -24 -61q-3 0 -10 17v2q-3 9 -3 27q0 50 12.5 116.5t13.5 92.5q0 26 -9.5 30.5t-9.5 24.5q0 36 28 158q42 180 61 241q15 49 15 59q0 3 -2 3q-12 0 -62 -141q-70 -194 -85 -194
q-3 0 -3 7q4 69 66.5 268t143.5 399q63 154 63 175q0 6 -3 6q-4 0 -13 -9q-5 -5 -11 -5q-16 0 -39 29q-32 40 -65.5 113.5t-55.5 159.5q-15 55 -22 55h-1q-1 -2 -1 -10q0 -33 17 -115q20 -111 38 -157q8 -18 8 -24q0 -3 -2 -3q-13 0 -37 45q-14 26 -26 58q-40 103 -52.5 218
t-12.5 360q1 284 34.5 641t114.5 941q21 151 21 205q0 38 -9 58q-19 48 -29 48q-5 0 -8.5 7.5t-3.5 18.5q0 26 -12 39t-31.5 72t-33.5 67q-11 12 -12 69q0 158 5 253q6 121 20 214q48 332 122 434q89 123 194 123q104 -3 171 -133q44 -84 53 -160.5t9 -136.5q0 -87 -11 -207
q-20 -202 -73 -566q-70 -483 -131 -956q-22 -177 -22 -200q0 -28 -7 -68q-11 -71 -17 -166q-30 -353 -30 -625q0 -236 18 -350q23 -143 32 -148q7 0 36 69q56 132 218 500q819 1856 1543 2964q173 264 302.5 381t250.5 117q127 -1 183 -111.5t56 -269.5q0 -126 -43 -370
q-73 -404 -140 -636q-29 -104 -40 -104q-2 0 -4 3q-3 9 -6 9q-6 0 -13 -43q-4 -26 -10.5 -43.5t-10.5 -17.5t-4 21q0 20 6.5 52.5t6.5 54.5q0 31 -10 31q-7 0 -16 -14.5t-11 -14.5h-1q-1 1 -1 5q0 14 21 117q17 87 17 108l-2 6q-9 -5 -38 -128q-32 -132 -39 -132q-1 2 -1 9
q0 23 11 73q29 142 29 303q0 91 -25 91q-3 0 -7 -2t-6 -2t-2 1q0 4 5.5 13.5t9 45.5t4.5 80q0 106 -9 117q-3 3 -3 39q0 35 5 83q13 113 13 159q0 50 -21 50q-9 0 -26.5 -16.5t-34.5 -41.5q-39 -60 -92 -122q-161 -206 -521.5 -866.5t-678.5 -1329.5q-210 -452 -330 -722
q-66 -150 -66 -157t-63 -148q-55 -115 -111 -256l-92 -233q-31 -83 -96 -221q-60 -127 -105 -269q-40 -119 -98 -269q-45 -106 -70 -190q-15 -54 -26 -54q-2 0 -3 2t-3 2q-9 0 -28 -56q-22 -66 -47.5 -181t-39.5 -115zM1000 1785q7 0 41 62q51 94 51 111l-1 2q-6 0 -41 -65
q-49 -93 -51 -108q0 -2 1 -2zM1121 2026q4 0 30 43q18 37 18 47q0 3 -2 3q-8 0 -29 -44q-17 -41 -17 -48v-1zM137 2248q27 101 33 136t6 69q0 13 -2 13q-6 0 -21 -92q-6 -33 -16 -126zM1349 2473q3 0 13 9.5t10 19.5q0 7 -5 7q-2 0 -6 -4.5t-8.5 -15t-4.5 -14.5q0 -2 1 -2z
M184 2507q6 0 6 29q0 24 -5 24q-3 0 -4 -24q0 -29 3 -29zM1394 2543q8 0 22 29q10 17 10 26q0 3 -2 3q-7 0 -22 -29q-10 -17 -10 -26q0 -3 2 -3zM1432 2618q5 0 50 77q47 81 49 96q0 11 -7 11q-6 0 -49.5 -85.5t-43.5 -97.5zM1538 2817q8 0 22 28q10 18 10 26q0 3 -2 3
q-9 0 -22 -29q-10 -17 -10 -25q0 -3 2 -3z" />
    <glyph glyph-name="Z" unicode="Z" horiz-adv-x="6693" 
d="M2464 -662q-877 0 -1554 187q-507 139 -739 344q-171 151 -171 341q0 45 10 92q34 152 267 320t579 290q56 18 128 48q12 5 15 6t130 42q137 44 209 61q205 54 418 100q272 62 468 100q311 58 492 90q130 22 291 47l131 20q187 29 531 60q598 53 1070 61q210 3 378 3
q168 -1 186 -7q6 -3 39.5 -7.5t79 -8.5t95.5 -10t79.5 -10.5t50.5 -4.5t23.5 2.5t2.5 4.5q0 26 -52 140q-24 53 -49 95q-37 62 -132 165q-432 446 -1359 555q-416 46 -511 70q-59 15 -102 36q-165 82 -169 154.5t-4 79.5q0 132 144 269q84 82 310 216.5t771 426.5
q294 159 452 262q127 85 212 160.5t85 100.5l-1 4q-13 15 -90 15q-130 0 -375 -37q-454 -68 -1024 -293q-358 -141 -575 -272q-41 -25 -51 -25q-2 0 -2 2l1 3q5 8 5 11t-4 3q-3 0 -10.5 -2.5t-11.5 -9t-4 -12.5l1 -7q0 -5 -5 -5q-3 0 -5.5 1.5t-4.5 1.5q-21 0 -84.5 -46
t-77.5 -46h-1q0 8 81.5 68.5t204.5 143.5q60 41 60 52q0 3 -4 3q-13 0 -67 -30q-49 -26 -57 -26q-1 0 -1 1q0 8 87 59q168 97 370 188q165 74 165 84h-2q-10 0 -96 -35q-355 -152 -600 -306q-23 -15 -30 -15q-2 0 -2 2q0 14 147 96.5t328.5 173.5t305.5 142
q92 37 169.5 74.5t172.5 69.5q106 36 106 59v2q0 18 11 18l13 -2q13 0 21 9q6 10 15 10q4 0 7.5 -2.5t6.5 -2.5q7 0 7 7.5t15.5 11t33.5 3.5h10q59 0 72 19q7 12 12 12q1 0 1 -1.5t4 -1.5q19 0 76 20q89 30 277 65q193 37 230 53q19 7 59 7q76 0 174 -19q72 -15 112 -34
q159 -84 159 -230q0 -165 -201 -355q-107 -102 -317.5 -232t-637.5 -358q-431 -231 -606 -342t-175 -144q0 -13 44 -21q32 -7 75 -10q383 -33 744 -118.5t603 -200.5q689 -336 836 -929l31 -124q138 -45 164 -57.5t26 -18.5l-1 -5q0 -3 4 -3t13 3t13 3q5 0 5 -3q0 -2 -3 -7
t-3 -8q0 -4 4 -4t9.5 2t10.5 2q27 0 84 -33q116 -71 187 -164q57 -76 57 -103q0 -6 -3 -6q-8 0 -31 51q-16 36 -55 84q-26 31 -36 31q-3 0 -3 -5q0 -10 43 -63q70 -90 70 -197q0 -197 -222 -420q-119 -117 -167 -143q-59 -32 -103.5 -68t-58.5 -36h-2q0 12 100 88
q113 89 221.5 204t146.5 187q43 93 43 175q0 181 -203 303q-61 36 -119 63t-82 28q-1 0 -1 -1q0 -9 98 -55q149 -70 214 -148t65 -181q0 -90 -57 -197q-54 -101 -118 -139q-12 -7 -16 -7q-2 0 -2 2q0 5 32 37q46 51 46 65.5t36 93.5q38 76 38 142q0 159 -218 258
q-92 43 -116 43q-9 0 -9 -5q0 -4 2.5 -8t2.5 -6q0 -4 -10 -4q-8 0 -24.5 3.5t-31.5 7t-21 4.5q-13 -2 -38 -124q-27 -131 -43 -180q-20 -59 -69.5 -157.5t-98.5 -175.5q-36 -58 -36 -67v-1q1 0 3.5 1.5t4.5 1.5q3 0 3 -5q0 -3 -3 -11t-8.5 -13t-9.5 -5h-2q-13 0 -106 -102
q-538 -611 -1557 -865q-744 -183 -1595 -183zM2713 -391q31 0 31 4q0 5 -31 5t-31 -5q0 -4 31 -4zM2363 -344q206 0 413 5q240 5 348 16q711 83 1222 255q158 56 342.5 147t314.5 176q140 95 293.5 247.5t230.5 273.5q64 104 107 223t48 205l4 79l-93 10q-108 12 -622 12
q-238 0 -254 -7q0 -8 210 -8q191 0 382.5 -14.5t283.5 -36.5l79 -19q-167 9 -281 13q-268 7 -403 7q-610 0 -1340 -79q-812 -88 -1562.5 -242t-1229.5 -341q-245 -99 -394 -204t-153 -182q8 -62 160 -156.5t351 -161.5q482 -149 1123 -209q110 -9 248 -9h172zM3980 -235
q10 0 22 4t22 10.5t10 9.5q0 2 -4 2q-11 0 -43 -13q-16 -7 -16 -10t9 -3zM4145 -192q20 0 20 5q0 7 -13 7q-8 0 -15.5 -3t-7.5 -5q0 -3 16 -4zM4203 -178q15 0 36 14q12 9 12 12q0 2 -4 2q-15 0 -36 -14q-12 -9 -12 -12q0 -2 4 -2zM4435 -97q16 0 130 49q149 63 253 121
q72 39 72 46q0 1 -1 1q-14 0 -73 -30l-80 -40q-98 -51 -194 -91q-109 -46 -109 -55q0 -1 2 -1zM4967 165q66 33 79.5 41.5t13.5 11.5q0 7 -6 7q-15 0 -87 -60zM6441 1204l1 1q0 4 -13 20q-31 31 -111 76q-34 18 -43 18h-1q0 -6 76 -58t91 -57zM4577 1291q20 0 20 5
q0 7 -13 7q-8 0 -15.5 -3t-7.5 -5q0 -3 16 -4zM4677 1291q21 0 21 5q0 7 -13 7q-8 0 -15.5 -3t-7.5 -5q0 -3 15 -4zM3163 3656q5 0 25 10q29 16 29 23q0 2 -2 2q-7 0 -27 -11q-28 -14 -28 -22q0 -2 3 -2zM5351 66q-3 0 -3 6q0 5 25 25q16 13 18 13l1 -1q0 -2 -13 -17
q-21 -26 -28 -26zM5409 109q-3 0 -3 6q0 7 25 25q15 13 17 13l1 -1q0 -2 -13 -17q-20 -26 -27 -26zM6578 947q-5 0 -5 21q1 15 4 15q2 0 5 -7.5t3 -14.5q-1 -14 -7 -14zM6176 1176q-6 0 -16.5 4t-21 11t-10.5 10q0 2 5 2q13 0 36 -13q12 -9 12 -12q0 -2 -5 -2zM4175 4286
q-5 0 -5 2q0 3 10.5 10.5t21 11.5t16.5 4q5 0 5 -2q0 -3 -11 -10.5t-21 -11.5t-16 -4z" />
    <glyph glyph-name="bracketleft" unicode="[" horiz-adv-x="1778" 
d="M433 -140q-38 0 -70 4q-40 3 -174 30q-167 33 -179 40v1q0 21 68 212q64 178 86 244q443 1310 827 2428l140 408q99 0 160 4q56 4 265 24q111 10 146 10q25 0 25 -6q0 -1 -1 -3t-1 -4q0 -11 25 -11h6q12 0 12 -3q0 -5 -36 -20t-36 -25q0 -5 6.5 -9t6.5 -9t-10 -10
q-20 -10 -61 -10q-35 0 -35 -13q0 -9 18 -9l8 1q75 15 100 15q13 0 13 -4q0 -8 -17 -14q-12 -4 -25 -5q-28 -1 -77.5 -18t-92 -37.5t-42.5 -30.5t-51 -37q-31 -15 -53 -43q-41 -52 -104 -251q-59 -175 -84 -238q-48 -127 -387 -1149q-357 -1076 -357 -1092.5t-22 -40.5
q-10 -10 -10 -17q0 -8 16.5 -15t54.5 -18q79 -25 94 -45q12 -19 94 -35q110 -24 120.5 -34.5t10.5 -11.5q0 -5 -17 -5q-22 0 -69 7q-130 22 -171 22q-18 0 -18 -3q0 -7 102 -32q59 -15 59 -26q0 -16 -90 -17q-29 0 -48.5 -4.5t-19.5 -10.5q0 -13 -64 -13q-84 0 -182 15
q-72 11 -99 11q-16 0 -16 -4q0 -8 95 -30q110 -25 151 -44q25 -13 25 -17q0 -2 -15 -2zM475 1201q3 0 19 32q27 61 27 79q0 5 -2 5q-6 0 -25.5 -48.5t-19.5 -65.5q0 -2 1 -2zM533 1361q2 0 8 6t8 13.5t2 11.5q0 14 -6 14q-5 0 -11 -21q-3 -13 -3 -19q0 -5 2 -5zM670 1723
q5 0 20 35t15 50q0 6 -3 6q-6 0 -19 -32q-15 -37 -15 -57q0 -2 2 -2z" />
    <glyph glyph-name="backslash" unicode="\" horiz-adv-x="1198" 
d="M1182 -55q-9 0 -51 101q-39 95 -51 95q-1 0 -1 -3q0 -10 14 -50.5t14 -61.5q0 -23 -18 -23q-8 0 -18.5 14.5t-18.5 35.5q-20 52 -38 52q-7 0 -7 -18q0 -5 -3 -5q-6 0 -26 26q-28 38 -63 103q-25 47 -28 50l-4 3q-2 0 -2 -6q0 -15 10 -63q5 -25 10 -43.5t5 -26.5
q0 -5 -3 -5q-4 0 -15 10q-46 26 -182 506q-93 322 -158 533q-75 244 -161 547q-92 321 -137 461q-28 88 -93 309q-29 111 -72 260q-56 201 -67 249q-8 33 -8 49q0 8 3 8q8 4 8 17q0 5 -2 10.5t-2 7.5q0 3 2 3q5 0 22 -20.5t22.5 -23t8.5 -2.5q6 0 10.5 7.5t9.5 7.5
q9 0 22 -32q22 -50 29 -50q4 0 4 5q0 11 -11 44q-14 43 -14 53q0 3 1 3q5 0 34 -55q13 -25 35.5 -52.5t45.5 -44.5q88 -67 124.5 -118t61.5 -143l166 -564q64 -223 100 -331q34 -101 86 -281q118 -395 241 -778q50 -151 62 -223q12 -67 34 -122q31 -83 54 -200q7 -41 7 -55
q0 -10 -4 -10q-1 0 -3 2.5t-2 10.5t-1.5 10.5t-3.5 2.5q-3 0 -3 -7q0 -18 9 -50q22 -78 22 -112q0 -16 -6 -17zM564 1213q2 0 6 9q2 4 2 9q0 15 -11 34t-13 19q-1 0 -1 -1q0 -4 4.5 -16.5t7 -25t3 -20.5t2.5 -8zM538 1315q1 0 3.5 3t2.5 7.5v6.5q0 6 -2.5 12.5t-4.5 6.5
q-4 0 -4 -21q0 -15 5 -15zM468 1605q1 0 2.5 2t1.5 13q-1 11 -5 24t-8 19t-7 6q-4 0 -4 -10q0 -15 4 -29q10 -25 16 -25z" />
    <glyph glyph-name="bracketright" unicode="]" horiz-adv-x="1505" 
d="M577 -93q-84 0 -212 11q-185 10 -239 10q-28 0 -56 4q-60 6 -60 18q0 6 67 13q74 8 144 22q34 7 34 9q0 3 -75 4q-81 2 -84 6.5t-3 5.5q0 5 6 11q18 22 48 22q41 1 68.5 11.5t27.5 25.5q0 8 11.5 16.5t27.5 12.5q133 31 133 51q0 11 -14 11h-37q-30 0 -31 3v3q0 6 13 21
q22 18 141 482q67 261 187 738q230 916 296 1173q122 476 122 485q0 1 -9 1q-11 0 -123 -6q-50 -3 -80 -3q-43 0 -43 7q0 1 1.5 3t1.5 5q0 4 -8 4q-6 0 -16.5 -2.5t-15.5 -2.5q-7 0 -7 4q0 3 3.5 8.5t15 10.5t24 5t22.5 7.5t14 19.5q8 27 67 42q41 9 41 12q0 2 -10 2
q-16 0 -58 -4q-29 -2 -45 -2q-20 0 -20 3q0 6 36 15q16 4 28 5q25 2 67.5 20t78 40.5t35.5 35t13 12.5q4 0 9.5 -2t12.5 -2q15 0 27 9q20 15 82 31q68 17 108 36q71 29 126 29q25 0 25 -10q0 -17 -86 -354q-100 -381 -108 -406q-34 -118 -108 -425l-92 -370
q-202 -814 -276 -1124q-51 -203 -65 -269q-16 -82 -58 -216q-30 -100 -65 -238q-13 -66 -25 -82.5t-35 -17.5zM675 1288q30 76 35 95q7 24 7 47q0 10 -2 10q-13 0 -40 -152zM722 1462q4 0 10 13q13 24 13 44q0 4 -2 4q-3 0 -10 -10.5t-10.5 -22.5t-3.5 -22q1 -6 3 -6z
M809 1787q3 0 13 9.5t10 19.5q0 7 -5 7q-2 0 -6 -4t-8.5 -15t-4.5 -15q0 -2 1 -2zM837 1860q3 0 9.5 10.5t10.5 25t4 26.5q0 19 -3 19q-9 0 -20 -35q-5 -15 -5 -27q0 -19 4 -19z" />
    <glyph glyph-name="asciicircum" unicode="^" horiz-adv-x="1036" 
d="M131 1616q-19 0 -19 22v2q0 22 -14 22l-9 -2q-9 0 -9 13q0 9 4 24q5 23 5 29v2q-3 0 -18 -19t-18 -19q-1 0 -1 6q0 8 3 27q2 9 2 19q0 31 -14 53q-19 31 -28 92q-5 15 -5 42q0 26 43 98q56 94 78 129q52 85 193 326l70 120q14 25 35.5 60.5t39.5 65.5q6 8 10 15
q21 38 33 38t31 -30q21 -34 66 -121q21 -42 113 -210q53 -99 99 -180q104 -187 106 -208t29.5 -56.5t27.5 -55.5q3 -24 24 -64q17 -31 17 -36q0 -2 -1 -2q-3 0 -17.5 13t-18.5 13l-1 -1q0 -4 17 -36q22 -46 22 -60q0 -5 -4 -5q-10 0 -47 39q-31 37 -39 37q-3 0 -3 -4
q0 -11 17 -48q2 -5 2 -9q0 -12 -14 -12q-21 0 -40 22q-10 13 -21 13q-8 0 -14.5 -6t-14.5 -6q-16 0 -64 42q-44 40 -57 40q-2 0 -2 -2q0 -14 14.5 -24.5t14.5 -39.5q0 -25 -13 -25q-33 0 -152 243q-79 153 -95 153q-17 -14 -51 -76q-64 -111 -193 -319q-53 -86 -71 -112
q-22 -29 -34.5 -30.5t-13.5 -1.5zM473 2225q4 0 9 3t9 10t4 12q0 9 -7 9q-3 0 -8 -3.5t-9.5 -10t-4.5 -12.5q0 -8 7 -8z" />
    <glyph glyph-name="underscore" unicode="_" horiz-adv-x="2264" 
d="M1179 -4q-157 0 -169 5q-19 5 -402 10q-447 4 -539 14q-44 4 -44 11q0 1 1.5 3.5t1.5 4.5t-2 5t-9 3t-7 3q0 4 16.5 16.5t16.5 27.5q0 5 -2 8t-2 6q0 11 29 11q15 0 26 4t11 10q0 9 -18 9q-8 0 -18 -3q-20 -4 -28 -4q-7 0 -7 2q0 8 64 40q58 27 58 38v2q0 10 52 50l60 43
l1385 -4q367 -3 446 -15q40 -6 44 -16q10 -12 57 -12q54 0 54 -12q0 -14 -66 -25q-54 -8 -54 -13q0 -3 22 -5q58 -9 58 -23q0 -11 -33 -24q-20 -7 -33 -17.5t-13 -18.5t-22 -21.5t-54 -26.5q-53 -20 -53 -27q0 -3 14.5 -3t30 -4t26 -10t10.5 -12q0 -5 -12 -12
q-15 -5 -172.5 -9t-362.5 -6.5t-361 -2.5zM1300 23q14 0 14 6q0 3 -4 7.5t-9 7.5t-9 3q-7 0 -7 -9q0 -6 4.5 -10.5t10.5 -4.5zM1030 39q12 0 18 13l1 3q0 10 -40 10q-34 0 -34 -5q0 -3 15 -8q27 -13 40 -13z" />
    <glyph glyph-name="grave" unicode="`" horiz-adv-x="590" 
d="M350 1552q-7 0 -23 8q-22 10 -39 34q-5 6 -8 13q-16 35 -142.5 218.5t-127.5 199.5q2 10 24 26q54 38 110 51q19 3 44 14q16 9 99 28l231 -327q62 -91 62 -115q0 -8 -3 -15q-10 -39 -25 -39q-8 0 -19.5 8t-16.5 8q-7 0 -7 -10l1 -11q0 -20 -49 -34q-36 -12 -61 -12
q-9 0 -16.5 2.5t-13.5 2.5q-12 0 -12 -20v-6q0 -24 -8 -24z" />
    <glyph glyph-name="a" unicode="a" horiz-adv-x="1312" 
d="M811 116q-62 0 -113 32q-52 37 -80 80q-32 49 -47 142t-15 188l2 113q0 62 -4 64q-7 0 -35 -47q-33 -53 -101.5 -125t-117.5 -104q-79 -47 -149 -47q-141 0 -207 153q-25 68 -25 165q0 108 31 251q59 272 190 553q165 355 369 524q102 84 222 84q90 0 181 -51
q84 -47 84 -67q0 -5 -6 -5q-9 0 -28 13l-5 3l-1 -1q0 -3 30 -36q42 -46 42 -57q0 -3 -3 -3q-10 0 -53 43q-50 50 -67 50q-18 0 -18 -9q0 -11 31 -37l33 -29l-43 29q-88 55 -162 55q-21 0 -37.5 -7t-16.5 -10q0 -5 47 -6q107 -4 162 -68q9 -10 9 -13l-1 -1q-4 0 -31 20
q-60 43 -116 43q-26 0 -53.5 -9.5t-56.5 -36t-45 -52t-16 -40.5l1 -8q3 -8 3 -13q0 -10 -7 -10q-13 0 -41 -96q-11 -38 -15.5 -70t-75.5 -174q-80 -167 -146 -365q-29 -86 -29 -112q0 -41 16 -41q38 0 117 160q48 94 163 367q48 113 89.5 197.5t56.5 101.5q29 32 87 32h17
q91 0 116 -72q13 -38 13 -114q0 -72 -12 -179q-71 -668 -71 -860q0 -64 8 -75h2q16 0 65 59q52 62 110 149t90 156q29 63 77 136t101 192q52 113 60 113l1 -3q0 -13 -18 -47q-22 -46 -22 -55q0 -3 2 -3q8 0 45 75q18 37 32 75q39 96 63 130q10 14 13 14t3 -5q0 -18 -51 -169
q-50 -148 -66 -183q-8 -13 -8 -22q0 -3 3 -3q8 0 67 126q49 106 62 106q8 0 8 -23q0 -38 -24 -104q-22 -61 -22 -78q0 -8 6 -8q2 0 6 1.5t7 1.5q7 0 7 -10q0 -21 -34 -125q-53 -160 -83 -217q-13 -26 -13 -36q0 -3 2 -3l3 1q7 5 23.5 31t34.5 61t38.5 70.5t34.5 56t29 41.5
l-9 -43q-9 -42 -52 -134t-98 -192.5t-101 -168.5q-186 -271 -320 -339q-78 -37 -144 -37z" />
    <glyph glyph-name="b" unicode="b" horiz-adv-x="1704" 
d="M78 30q-50 0 -102 32q-56 36 -77.5 92.5t-21.5 160.5v23q0 226 92 677q95 465 327 1361q182 697 406 1381t341 905q36 64 75 93q47 36 111 36q69 0 119 -52q55 -59 55 -151q0 -52 -16 -127q-12 -58 -21 -58q-3 0 -6 10.5t-7 10.5q-8 0 -22 -54.5t-23 -54.5q-3 0 -3 13
q0 20 10 52q16 46 16 97q0 41 -4 41t-17 -25q-11 -21 -14 -21q-2 0 -2 8q0 12 4 45q3 27 3 50q0 83 -43 106q-12 6 -25 6q-18 0 -38 -12q-34 -20 -59 -68q-18 -37 -18 -46q0 -3 2 -3q9 0 40 46q43 62 75 62q11 0 21 -7q25 -19 25 -74q0 -49 -20 -126q-6 -24 -8 -24
q-1 0 -1 13q0 25 4 86l2 43q0 72 -24 72q-13 0 -32 -21q-31 -37 -55.5 -114.5t-25.5 -138.5v-14q0 -38 -6 -38q-1 0 -3 2.5t-4 2.5q-4 0 -4 -20q0 -29 5.5 -44.5t11 -16t5.5 -2.5q0 -5 -16 -18q-20 -16 -20 -28q0 -2 1 -4t1 -9q0 -32 -13 -112q-19 -111 -28 -127
q-2 -4 -2 -8q0 -7 7 -9t7 -13q0 -19 -19 -86l-81 -260q-85 -266 -172.5 -564t-115.5 -415q-16 -70 -42 -144q-41 -119 -181 -686q-58 -236 -93 -395l-72 -323q-24 -105 -42 -212q-7 -43 -7 -57q0 -4 1 -4q6 0 39 65q121 235 354 639q100 174 147 247q12 20 12 32
q0 5 -2.5 8.5t-2.5 5.5q0 4 6.5 4t43 45t83.5 111q117 166 198.5 252t152 118t130.5 32q67 0 120 -39q139 -103 139 -439q0 -154 -19 -275q-30 -161 -151.5 -410t-249.5 -411q-59 -72 -144.5 -153.5t-153 -135.5t-86.5 -54h-3l-7 3q-1 0 -1 -2t1.5 -4.5t1.5 -4.5
q0 -17 -53 -55q-100 -70 -118 -70q-3 0 -3 2l2 5q5 8 5 11t-3 3q-13 0 -121 -56.5t-144 -63.5q-30 -6 -65 -16q-18 -6 -23 -6l-2 1q0 8 153 83q109 55 230.5 137.5t164.5 130.5l1 4q-10 0 -95 -61q-121 -87 -198 -124l-83 -43l23 36q26 38 85.5 72.5t122.5 86.5q47 39 47 50
q0 5 -8 5q-6 0 -17 -3h-1q-2 0 -2 2q0 8 29 42q16 18 34 34q55 51 191 228q128 167 128 189v1q-8 0 -93 -107t-164 -174l-79 -65l203 267q92 124 183 305.5t125 309.5q17 71 28.5 158.5t12.5 125.5t1 47q0 47 -9 47q-13 0 -79 -82q-301 -399 -779 -1327q-182 -356 -230 -414
q-83 -91 -169 -91zM689 303q17 0 78 43q58 44 58 49h-1q-8 0 -69 -36q-72 -46 -72 -50q0 -6 6 -6zM-74 377q6 0 7 14q0 7 -3 14.5t-5 7.5q-3 0 -4 -15q0 -21 5 -21zM416 504q6 0 37 58q23 46 23 56q0 2 -1 2q-6 0 -37 -58q-23 -46 -23 -56q0 -2 1 -2zM-58 554q6 0 16 60
q13 76 13 119q0 10 -1 10q-6 0 -16 -60q-13 -78 -13 -119q0 -10 1 -10zM509 684q12 8 87 145q74 141 74 153l-1 1q-8 0 -89 -150q-72 -135 -72 -148q0 -1 1 -1zM-16 836q3 0 7 4t7.5 9t3.5 8q-1 7 -9 7q-15 0 -15 -14t6 -14z" />
    <glyph glyph-name="c" unicode="c" horiz-adv-x="1122" 
d="M205 305q-57 0 -109 25q-51 22 -80.5 54t-55.5 94q-41 92 -41 229q0 324 229 899q201 509 415 644q40 27 62.5 32.5t47.5 5.5q98 0 152 -31q45 -27 89 -91q23 -32 33.5 -66.5t14.5 -94.5q4 -34 4 -62q0 -61 -35.5 -154t-44.5 -93l-2 1q-2 5 -7 5q-9 0 -28 -20
q-18 -23 -22 -23q-2 0 -2 2q0 4 6 17q21 69 21 86q0 6 -3 6q-5 0 -16 -10t-15 -10q-2 0 -2 3q0 8 8 35q13 47 13 63q0 7 -3 8q-6 0 -22 -44q-16 -51 -26 -51q-3 0 -3 11q0 19 9 40q5 17 5 38q0 23 -6 52q-11 55 -33 82q-11 12 -21 12q-9 0 -30 -20q-73 -69 -171 -256
q-173 -332 -263 -730q-40 -178 -40 -252q0 -61 11.5 -68.5t17.5 -7.5q22 0 65 36q55 45 158 151q55 58 115 118q124 125 169 175q40 45 68 79q63 76 89.5 101.5t75.5 83.5q43 51 52 51q1 0 1 -1q0 -6 -25 -39l-4 -6h1q3 0 43 41q101 101 111 101q2 0 2 -2t-48 -78
q-22 -35 -44 -72l-54 -86q109 119 116 123t9 4q6 0 6 -11q0 -35 -25 -81q-16 -28 -16 -41q0 -9 7 -10.5t7 -10.5q0 -22 -37 -95q-48 -96 -65 -108q-14 -9 -14 -26q0 -2 2 -2q5 0 19 13q21 17 51 51q53 58 63 58q3 0 3 -5q0 -86 -338 -431q-377 -386 -520 -424
q-66 -17 -100 -17zM70 375q2 0 2 1q0 7 -17 25q-22 25 -53 92t-36 67v-2q0 -35 38 -100q19 -33 38.5 -58t27.5 -25zM-32 591q6 0 6 36q0 15 -4 25.5t-9 10.5q-7 0 -7 -16q0 -9 2.5 -22t6 -23.5t5.5 -10.5zM5 1009q4 0 12 14q13 20 13 50q0 22 -2 22q-3 0 -11 -22
q-14 -28 -14 -59q0 -5 2 -5z" />
    <glyph glyph-name="d" unicode="d" horiz-adv-x="1630" 
d="M179 105q-65 0 -104 16q-191 80 -191 408q0 213 74 486q80 292 211.5 560t280.5 421q149 149 282 149q119 0 225 -121l60 -68q28 66 46 114q145 389 262 695q81 212 125.5 350.5t107.5 376.5q62 227 145 489.5t127 369.5q40 89 91 108t80 19q46 0 94 -28q75 -43 75 -150
q0 -69 -286 -906q-85 -244 -130 -413t-95 -430t-72 -333q-18 -62 -45 -219t-41 -278q-9 -88 -37 -252q-26 -166 -36 -286.5t-24 -141.5q-7 -8 -7 -20q0 -7 3.5 -13t3.5 -10q0 -11 -11 -18q-17 0 -17 -254v-29q0 -234 -11 -234q-15 0 -27 344q-8 221 -16 221q-11 0 -14 -243
q-2 -124 -9 -124q-4 0 -14 22q-23 35 -23 223q-2 164 -7 164h-1q-9 -18 -21 -18q-7 0 -7 141q0 138 6 280q4 94 10 155q4 37 4 54q0 15 -3 15q-5 -1 -16 -51.5t-21 -130.5q-18 -145 -37 -208q-11 -38 -14 -38q-2 0 -2 20q0 24 3 78l1 60q0 49 -5 49q-6 0 -61 -129
q-77 -179 -210.5 -446.5t-216.5 -408.5q-170 -275 -308 -355q-55 -25 -108 -28.5t-69 -3.5zM214 434q27 0 85 67q102 107 302 515q143 289 229.5 497t86.5 254v5q-13 45 -50 101q-63 94 -108 94q-13 0 -56 -16q-34 -14 -46.5 -26t-12.5 -33q0 -14 -4.5 -24t-10.5 -10
q-13 0 -80 -137q-59 -119 -59 -143q0 -3 1 -4t1 -5q0 -15 -20 -55q-29 -59 -82 -194.5t-100 -270.5q-59 -177 -82.5 -318.5t-23.5 -207.5q0 -89 30 -89zM942 1794q2 0 2 5q0 29 -19 67q-10 20 -22 35q-15 20 -18 20q-1 0 -1 -1q1 -8 22 -58q30 -68 36 -68zM1900 3561
q3 0 10 10t10.5 22t3.5 22q0 9 -3 9t-10 -17q-13 -31 -13 -42q0 -4 2 -4z" />
    <glyph glyph-name="e" unicode="e" horiz-adv-x="1110" 
d="M130 -9q-36 0 -67 9q-153 47 -189 165.5t-36 225.5q0 116 27 267q61 362 224 795q213 565 457 810q122 127 257 127h16q143 0 227 -128q56 -86 56 -199q0 -184 -132 -399q-105 -172 -280 -325q-44 -38 -118 -82t-141.5 -76t-92.5 -32q-25 -4 -62 -116.5t-71 -265.5
q-60 -263 -60 -375q0 -41 9 -55q18 -20 36 -20q17 0 80 52q157 130 243 240q113 148 194 236q30 32 85 115q41 61 149 215l64 93q85 124 92 124q0 -5 -21 -42q-28 -46 -28 -53l1 -1q10 0 75 98q82 125 90 127t9 2q3 0 3 -4q0 -25 -109 -222q-26 -46 -33 -55q-9 -14 -9 -20
q0 -5 3 -5t20 21.5t40 57.5t44 65t28.5 35t11.5 6q6 0 6 -11q0 -31 -37 -107q-22 -42 -22 -61q0 -10 6 -12.5t6 -11.5q0 -38 -88 -217q-24 -48 -36 -69q-23 -40 -23 -47q0 -1 1 -1q9 0 66 83q78 112 93 112q3 0 3 -6q0 -38 -105 -209q-125 -196 -300.5 -399.5t-310.5 -310.5
q-190 -144 -351 -144zM-117 558q2 0 23 92q12 51 13 62q0 3 -2 3t-7.5 -9.5t-11.5 -36t-10 -57.5q-5 -41 -5 -51v-3zM-79 756q4 0 11 16q10 25 10 46q0 10 -3 11q-5 0 -12 -16q-10 -25 -10 -46q0 -10 4 -11zM346 1196q2 0 8.5 6t15.5 16.5t9 14.5q0 6 -16 6q-9 0 -16 -6.5
t-7 -15.5q0 -21 6 -21zM71 1239q7 0 29 65q16 44 16 61q0 3 -1 3q-7 0 -27.5 -49.5t-20.5 -64.5t4 -15zM358 1262q14 0 53 20q54 28 66 43v2q0 1 -2 1q-14 0 -55 -20q-28 -13 -47 -26t-19 -18q0 -2 4 -2zM376 1310q10 0 36 15q1 0 1 1q21 10 21 25q0 3 -2.5 7.5t-2.5 6.5
t1 2q2 0 5 -2t8 -2q14 0 27 10q34 28 71 92q15 26 15 37q0 18 36 88t36 86q0 7 19 43t48 81q68 111 68 165q0 26 -17 33h-4q-26 0 -79 -70q-56 -77 -122 -202.5t-121 -267.5l-2 -5q-47 -117 -47 -136q0 -7 5 -7z" />
    <glyph glyph-name="f" unicode="f" horiz-adv-x="1168" 
d="M-166 -2904q-41 0 -86 12q-50 16 -99.5 70t-75.5 122q-59 139 -59 535v83q0 613 209 1823q32 182 42.5 298t13.5 307q3 268 28 380.5t94 175.5l57 56l74 345q173 797 413.5 1614.5t435.5 1273.5q75 169 131.5 284t64.5 115q2 -2 2 -7q0 -12 -10 -32t-10 -26q0 -3 2 -3
q8 0 50 85q50 94 59 94v-1q0 -15 -44 -108q-49 -101 -49 -129q0 -6 6 -6q11 0 24 27q20 38 23 38q1 0 1 -2q0 -14 -72.5 -186.5t-72.5 -194.5v-1q11 0 48 92q61 143 125 268q27 52 31 52l1 -1q0 -15 -45 -110q-63 -135 -112 -285q-33 -106 -66 -243q-15 -60 -16 -73
q1 -7 1.5 -21t1.5 -30l1 -15q0 -25 -6.5 -43.5t-37.5 -172.5q-30 -150 -39 -177q-3 -7 -3 -12q0 -12 9 -12q4 0 4 -11q0 -21 -17 -79q-134 -445 -245.5 -853t-163 -644.5t-72.5 -298.5q-23 -70 -65 -263q-39 -179 -39 -204v-3q13 -6 134 -6q72 0 133 12q70 14 150 48
q52 21 77 21q5 0 9.5 -3t6.5 -3t2 2l-3 6v2q0 17 59 57q58 37 108 75q31 24 39 24q1 0 1 -1q0 -9 -90 -75q-95 -69 -95 -74q5 0 48 25q62 35 134.5 97.5t202 192.5t138.5 130q1 0 1 -1q0 -8 -78 -102q-229 -281 -463 -415q-66 -40 -66 -44h1q7 0 76 33q63 32 149.5 94.5
t168.5 134.5q76 67 87 67q1 0 1 -1q0 -4 -25 -31t-25 -39l1 -4q0 -19 -119 -119q-55 -47 -115 -92q-92 -67 -92 -83q0 -2 2 -2q6 0 29 12t27 12q1 0 1 -1q0 -6 -69 -50q-227 -136 -549 -148q-56 0 -56 -8v-1q12 -7 162 -7q140 0 217 7l57 7l-57 -23q-67 -22 -224 -31
l-165 -10l-110 -532l37 -432q40 -451 52.5 -719t12.5 -554q0 -547 -27 -796q-25 -236 -83 -361q-92 -194 -260 -194zM-200 -2877v1q0 3 -6 11q-10 15 -28 15q-22 0 -66 39.5t-67 80.5q-24 48 -49 146q-18 76 -24 76q-2 0 -2 -4q0 -42 23.5 -116.5t54.5 -129.5q38 -67 99 -93
q56 -26 64 -26h1zM-155 -2879q9 0 31 8q44 16 73 30q40 21 40 26q0 1 -2 1q-9 0 -66 -24q-77 -33 -77 -40q0 -1 1 -1zM-439 -2475q2 0 5 9q2 4 2 9q0 18 -11 35.5t-13 17.5q-1 0 -1 -2q0 -3 4.5 -16t7 -25t3.5 -20t3 -8zM-159 -2456q14 0 33 184q21 213 21 709q0 192 -7 203
q-12 0 -26 -118.5t-25 -292.5t-14.5 -288t-3.5 -167q0 -79 4 -131q8 -99 18 -99zM-450 -2312q5 0 5 68q0 74 -5 74q-2 0 -3 -68q0 -74 3 -74zM-394 -1408q6 0 7 13q0 8 -3 15.5t-5 7.5q-3 0 -4 -16q0 -20 5 -20zM-380 -1322q7 0 7 13q0 8 -3 15.5t-5 7.5q-3 0 -4 -15
q0 -21 5 -21zM-357 -1123q4 0 12.5 40t16 98.5t10 89.5t2.5 42t-2 13q-3 0 -9.5 -31t-14 -82t-13.5 -91.5t-9 -52.5l-1 -10q0 -16 8 -16zM-308 -763q2 0 6 6.5t7 14.5t3 13q0 10 -8 10q-5 0 -9.5 -6.5t-4.5 -15.5q0 -22 6 -22zM974 3850q-6 0 -6 8q0 6 4 12.5t9 10t8 3.5
q8 0 8 -9q0 -5 -4.5 -12t-9.5 -10t-9 -3z" />
    <glyph glyph-name="g" unicode="g" horiz-adv-x="1493" 
d="M150 -3076v1q0 2 24 42q87 146 134 234q134 254 141 290l-1 1q-5 0 -52 -83q-165 -298 -184 -298q-2 0 -2 2q0 6 8 22q12 21 12 34l-2 7q0 21 63 148q58 115 58 138q0 5 -3 5q-6 0 -24 -18l-2 -1q-1 0 -1 3q0 30 72 210q23 57 81 223q50 144 50 160l-1 2q-6 0 -51 -104
q-25 -60 -57 -126.5t-57.5 -111.5t-31.5 -45q0 9 35 110.5t91 252.5q161 435 251 730t157 608q105 464 160 1180q8 116 8 330q0 390 -13 484l-11 65l-55 -166q-285 -848 -476 -1097q-101 -124 -176.5 -147.5t-114.5 -23.5q-64 0 -121 34q-91 54 -139 193q-24 83 -24 255
q0 196 26 340q58 316 160 547q105 245 225.5 413.5t303.5 324.5q110 96 122 96q2 0 2 -1q0 -6 -28 -37q-16 -17 -16 -20h1q6 0 56 37q69 48 82 48q1 0 1 -1q0 -9 -58 -52q-87 -62 -87 -95q1 -7 7 -7q11 0 30 21q12 17 21 17q2 0 3 -1q0 -4 -20.5 -27t-55.5 -56t-70.5 -71
t-54.5 -63q-16 -21 -16 -24v-1q7 0 78 68q176 166 184 166v-1q0 -7 -125 -138.5t-144 -171.5l-48 -96q-20 -39 -20 -62q0 -4 1.5 -7t1.5 -9q0 -17 -16.5 -43t-16.5 -33q0 -1 1 -1t1 -2q0 -14 -29.5 -100.5t-29.5 -117.5l1 -14q0 -26 -20 -79q-26 -68 -62 -191t-53 -203
q-23 -107 -32 -276q-4 -59 -4 -86q0 -81 26 -81q17 0 47 35q112 109 408 1007q85 259 137.5 400t90.5 206.5t80 98.5q53 44 72.5 46t22.5 2q32 0 65 -32q55 -48 94 -193t75 -435q19 -184 19 -535q0 -436 -27 -739q-56 -552 -141 -943q-35 -157 -42 -194q-35 -149 -135 -517
q-28 -93 -68 -195q-77 -191 -173 -469q-36 -104 -148 -317t-128 -213q-4 2 -6 2q-1 0 -1 -1q0 -2 2 -6t2 -8q0 -18 -20 -66q-25 -61 -38 -61q-1 0 -1 2q0 10 18 44t18 46l-1 2q-8 0 -102 -159q-90 -152 -149 -219q-40 -42 -45 -42zM1062 706q4 0 4 58q0 57 -4 57t-4 -57
q0 -58 4 -58zM1076 867q6 0 6 44q0 35 -9 35t-11 -18l-1 -11q0 -10 2 -20q9 -30 13 -30zM1074 968q6 0 7 13q0 8 -3 15.5t-5 7.5q-3 0 -4 -16q0 -20 5 -20zM1077 1066q5 0 5 44q0 37 -10 37q-8 0 -8 -29q0 -19 5 -40q3 -12 8 -12zM984 1528q4 0 17 19t27 19q5 0 11.5 -4
t10.5 -4q3 0 3 4q0 5 -4 15t-7 21t-3 16q0 16 -7 16q-16 0 -35 -48q-15 -40 -15 -50q0 -4 2 -4zM381 -2806q-4 0 -4 12q0 6 4 12.5t8.5 9t6.5 2.5q3 0 3 -4t-2 -11q-9 -21 -16 -21z" />
    <glyph glyph-name="h" unicode="h" horiz-adv-x="1734" 
d="M27 113q-31 0 -62 11q-74 23 -100 75.5t-26 133.5q0 130 63 427q70 327 217.5 896t273.5 994q122 404 268.5 838.5t260 737t136.5 308.5h1q5 0 14 11.5t17 32.5q19 41 27 41q3 0 4 -7q0 -11 -12 -42q-7 -18 -15 -43t-13 -46.5t-5 -31.5t6 -10q3 0 8 2q10 4 14 4
q5 -1 5 -6q0 -16 -36 -114q-31 -94 -31 -111l1 -4q9 0 61 148q52 140 59 140q1 0 1 -4q0 -10 -7 -35q-8 -32 -24 -72q-88 -236 -103 -504q-4 -87 -20 -153q-14 -56 -21 -139q-4 -69 -33 -172q-26 -94 -153 -488q-128 -401 -162 -533q-39 -150 -64 -230q-45 -138 -78.5 -261
t-99.5 -387q-91 -368 -111 -437q-10 -30 -10 -48q0 -4 1 -6q9 2 180 300q150 262 284.5 470.5t206.5 291.5q50 55 113 91t108 36q34 0 70.5 -40t57.5 -99q10 -42 10 -207q0 -310 -18 -475q-10 -78 -20 -407q-7 -205 -7 -291q0 -46 1 -51h1q10 0 30 29q15 22 80 101
q57 66 182 256q116 174 131 174q1 0 1.5 -1t1.5 -1q12 0 66.5 98t88.5 150t40 52q1 0 1 -2q-4 -32 -124 -264q-49 -95 -90 -165q-74 -131 -74 -136q0 -1 1 -1q12 0 156 232q75 126 79 126q3 0 3 -23q0 -47 -73 -182q-59 -111 -59 -134q0 -5 5 -5q10 0 19.5 15t11.5 15
q1 0 1 -2q0 -11 -31 -73q-52 -107 -144.5 -251t-166.5 -233q-68 -79 -68 -85h1q3 0 41 37q67 65 186 214q142 183 150 183q1 0 1 -2q0 -8 -27 -57q-100 -184 -240.5 -338t-236.5 -185q-34 -7 -65 -7q-93 0 -139 66q-40 57 -49.5 99t-9.5 228q0 382 19 696q14 214 14 280
q0 23 -2 26q-8 0 -85 -127t-183.5 -314t-203.5 -366q-179 -334 -257.5 -467.5t-102.5 -147.5q-57 -43 -118 -43zM24 157q59 0 116 62q25 28 25 38q0 1 -1 1q-5 0 -35 -31q-51 -56 -110 -56q-25 0 -52 11q-62 31 -67 181l-2 91q-7 -30 -13.5 -60t-6.5 -57q0 -51 21 -92
q32 -63 69.5 -75.5t55.5 -12.5zM1207 245q7 0 21 8.5t30 22.5t33 29q-94 -56 -94 -58q2 -2 10 -2zM198 326q2 0 19 20q29 36 29 50q0 4 -2 4q-10 0 -42 -61q-5 -10 -5 -12q0 -1 1 -1zM267 433q6 3 14 22q2 7 2 11t-3 4q-2 0 -6.5 -2.5t-8.5 -9t-4 -12.5q0 -13 5 -13h1z
M-93 507q6 0 7 13q0 8 -3 15.5t-5 7.5q-3 0 -4 -16q0 -20 5 -20zM540 925q4 0 24 32q44 68 44 78q0 1 -1 1q-6 0 -30 -38q-37 -58 -37 -72v-1zM1604 1066q4 0 45 55q39 60 39 74q0 3 -2 3q-3 0 -11 -9.5t-20.5 -29t-25 -41t-19 -35t-6.5 -16.5v-1zM638 1095q9 0 78 119
q78 135 89 151q15 23 15 30q0 2 -2 2q-5 0 -94 -142.5t-89 -153.5q0 -6 3 -6zM1052 3960q-9 0 -9 7q0 3 3.5 8.5t7.5 9.5t7 4q6 0 6 -14q0 -6 -4.5 -10.5t-10.5 -4.5z" />
    <glyph glyph-name="i" unicode="i" horiz-adv-x="725" 
d="M157 272q-91 0 -158 78q-49 56 -64 107q-11 35 -11 136q0 143 11 229q28 223 131 557q58 190 110 323.5t71 133.5l5 -1q11 0 23 19q7 13 10 13q4 0 4 -10l-3 -35q0 -25 12 -25l9 1q11 0 11 -14t-14 -51q-9 -23 -9 -29q0 -2 1 -2q3 0 15 18q22 26 22 45.5t16 28.5q4 3 6 3
q3 0 3 -6q0 -7 -4 -21q-14 -42 -14 -76q0 -40 22 -87q37 -78 37 -108v-32q0 -59 -36 -161q-42 -123 -48 -170q0 -32 -13 -50q-18 -32 -55 -243q-15 -82 -15 -109q0 -40 19 -40q54 0 263 317l49 77q38 61 73 100q39 43 66.5 94t83.5 123q69 88 75 88v-1q0 -4 -9 -23
q-2 -5 -2 -8q0 -2 1 -2q7 0 49 46q51 56 61 56q3 0 3 -3q0 -14 -40.5 -83t-40.5 -81q0 -2 2 -2q7 0 45 42q34 37 46 37q6 0 6 -10q0 -16 -16 -58q-8 -19 -8 -31q0 -14 10.5 -19.5t10.5 -21.5q-1 -28 -29 -99q-9 -22 -15 -28q-11 -13 -11 -29q0 -2 2 -2q10 0 48 44
q33 39 45 39q6 -1 6 -10q0 -22 -35 -89.5t-134.5 -209.5t-207 -283t-167.5 -204q-183 -188 -324 -188zM236 321q4 0 15 4.5t15 8.5t4 6q0 5 -7 5q-8 0 -20 -12q-9 -8 -9 -11q0 -1 2 -1zM71 346q3 0 3 5t-32 32l-33 28q55 -65 62 -65zM299 347q17 0 87 65q35 34 35 37
q-2 0 -16 -11q-47 -39 -87 -66q-22 -15 -22 -23q0 -2 3 -2zM8 422q4 0 4 6q0 14 -16 43q-14 26 -20 26q-2 0 -2 -4q0 -14 7 -31.5t15 -28.5t12 -11zM530 2067q-26 0 -34 16q-9 20 -30 20q-9 0 -29 10t-40 26q-50 36 -71 36t-30 18v3q0 21 43 118q47 105 60 105q5 0 36 -15.5
t71 -37.5t74.5 -42.5t49.5 -31.5t30 -23l-80 -180q-14 -22 -50 -22z" />
    <glyph glyph-name="j" unicode="j" horiz-adv-x="469" 
d="M-1012 -3254l83 44q83 43 148 126.5t65 91.5l-1 1q-8 0 -84 -78.5t-92 -78.5q-5 0 -5 6q0 19 66 112q29 40 29 54q0 6 -6 7q-6 0 -6 10q0 29 43 141q53 140 53 158q0 3 -1 3q-5 0 -35 -57q-66 -127 -87 -127q-4 0 -4 9q0 23 92 257q163 421 246 743q112 454 238 1142
t194 1216q39 318 57 439q44 292 100 826q5 41 19.5 51.5t22.5 29.5q2 5 3 5q4 0 6 -36q3 -65 22 -65q7 0 13 13q1 2 2 2q6 0 8 -77l3 -94l32 216l9 -129q7 -107 16.5 -154t24 -55t14.5 -21l-1 -9q0 -11 5 -28q16 -46 28 -111t12 -102q0 -56 -35 -313q-32 -233 -41 -316
q-26 -195 -139 -943q-52 -331 -135.5 -763t-131.5 -619q-19 -73 -36 -159q-19 -91 -43 -172l-33 -111q-55 -189 -82 -265q-24 -67 -42 -106q-44 -98 -79 -189q-29 -75 -90 -176.5t-121 -181.5t-81 -80q-1 0 -1 1q0 9 33 46l42 46l-50 -44q-136 -123 -210 -128zM-322 -1186
q4 0 22 76q5 26 6 39q0 12 -2 12q-6 0 -13 -28q-14 -52 -14 -93q0 -6 1 -6zM-295 -1018q3 0 10 10t10.5 22t3.5 22q0 9 -3 9t-10 -16q-13 -32 -13 -43q0 -4 2 -4zM-194 -558q4 0 10 19q12 25 12 85q0 19 -2 19q-7 0 -17 -61q-5 -28 -5 -47q0 -15 2 -15zM-163 -415q6 0 6 18
q0 5 -2.5 11.5t-4.5 6.5q-3 0 -4 -15q0 -21 5 -21zM369 2415q-16 0 -78 31q-106 55 -141 79t-35 36q0 15 32 78q63 126 79 126q21 0 133 -70q108 -67 110 -82q-6 -26 -21.5 -66.5t-32 -75.5t-25 -44.5t-14 -10.5t-7.5 -1z" />
    <glyph glyph-name="k" unicode="k" horiz-adv-x="1492" 
d="M172 144q-5 0 -5 30q0 26 3.5 83t3.5 81q0 17 -2 17q-3 0 -10 -27q-23 -91 -30 -91q-5 0 -12 12q-14 23 -14 76t-21.5 77t-21.5 100q0 64 -7 70.5t-9 6.5q-9 0 -19 -45q-7 -35 -17 -35q-11 0 -11 39q0 62 9 155q17 177 31 202q17 30 145 635q89 418 144 659.5t137 564.5
q155 623 241 931q43 152 100 337q51 167 79 185q14 9 19 9q6 0 6 -13q0 -7 -2 -19l-1 -12q0 -25 13 -25l8 2q11 0 11 -22q0 -13 -13 -113l53 144q-9 -153 -9 -177q0 -63 11.5 -79.5t21 -63t11.5 -81.5t2 -50q0 -31 -4 -53q-9 -47 -61 -245l-87 -329q-89 -336 -213 -883
q-160 -697 -160 -746q0 -13 5 -13q9 0 156 125q125 107 274 240q326 292 461 476q52 71 69 71q3 0 5 -3q6 -10 9 -10t3 9t4.5 14t10.5 5q7 0 7 -7t-8 -21t-8 -22q0 -10 14 -10l13 1q10 0 10 -12q0 -21 -23 -56q-17 -24 -17 -36l1 -4l14 10q11 13 25 34q30 49 35 49q1 0 1 -2
q0 -9 -21 -57q-17 -41 -27 -80q-12 -44 -12 -68q0 -15 6 -15l4 1q5 4 7 4t2 -3q0 -4 -7 -17q-13 -24 -23 -53t-13 -46.5t-3 -25.5t2 -12q0 -12 -64 -79q-165 -178 -306 -296q-469 -397 -618 -553q-132 -144 -132 -209q0 -17 12 -23q9 -3 31 -3q50 0 117 11q82 12 378 112
q151 51 221 79q233 94 272 94q6 0 8 -1.5t5 -1.5q26 0 98.5 30.5t91.5 30.5q2 0 2 -1q0 -10 -96 -68t-96 -65q8 0 24 4q20 7 49 19q45 19 55 19q11 0 11 -12q0 -8 -14.5 -23.5t-35.5 -29.5q-51 -35 -51 -47q0 -7 16 -7q4 0 4 -3q0 -6 -30 -32q-41 -34 -112 -80
q-48 -31 -48 -36q0 -1 4 -1q14 0 100 28q48 16 58 16h1q2 0 2 -1q0 -4 -15 -20q-60 -59 -249.5 -133t-404.5 -130t-352 -60l-126 -2q-20 -74 -28 -91t-14.5 -19.5t-13 -24t-10.5 -52.5q-9 -68 -29 -101q-7 -11 -11 -11zM279 1811q31 78 35 95q7 24 7 47q0 10 -2 10
q-13 0 -40 -152zM328 1994q6 0 6 17q0 5 -2.5 11.5t-4.5 6.5q-3 0 -4 -15q0 -20 5 -20zM400 2266q6 2 12 27q2 10 2 15q0 7 -4 7q-7 0 -12 -12q-4 -9 -4 -18q0 -19 5 -19h1zM427 2353q5 0 16 46q4 16 4 24q0 9 -5 9q-9 0 -15 -19q-4 -14 -4 -29q0 -31 4 -31zM241 280
q-4 1 -4 13q0 23 3 23q2 0 5 -7.5t3 -15.5q0 -13 -7 -13z" />
    <glyph glyph-name="l" unicode="l" horiz-adv-x="636" 
d="M202 137q-7 0 -7 90v65q0 90 -10 90q-6 0 -10 -16.5t-4 -40.5q0 -91 -22 -91q-6 0 -14 8t-10.5 14.5t-2.5 9.5t1 5q3 6 3 20q0 16 -6 49q-11 49 -21 49l-4 -1q-10 0 -18 43q-9 48 -11.5 135t-11.5 89q-9 0 -18 -72q-7 -67 -24 -97q-3 -6 -5 -6q-7 0 -7 68q0 317 133 1017
q112 595 232 1005q211 698 401 1095q123 258 256 470q54 85 66 85l6 -1q9 0 25 11q11 10 14 10q2 0 2 -3q0 -5 -5 -18q-13 -32 -13 -44q0 -11 9 -11q3 0 7 1t8 1q7 0 7 -6q0 -11 -28 -65q-18 -35 -18 -47q0 -3 1 -3q11 0 48 68q27 52 33 52q2 0 2 -5q0 -16 -28 -81
q-22 -47 -28 -88t-6 -110l2 -166q-172 -378 -213 -484l-79 -207q-108 -293 -235.5 -783.5t-161.5 -749.5q-9 -77 -14.5 -87.5t-33.5 -202.5q-32 -219 -39 -284q-7 -74 -21 -110q-13 -43 -22 -157q-10 -127 -22 -170q-14 -49 -14 -98q0 -37 -6 -37q-3 0 -6.5 6t-6.5 6
q-9 0 -16 -56q-8 -66 -14 -101.5t-10.5 -49t-9.5 -13.5zM233 1886q7 0 18 57q3 18 3 30q0 15 -2 15q-3 0 -9 -22q-12 -38 -12 -65q0 -15 2 -15zM259 2026q3 0 12 12q14 21 14 36q0 5 -2 5q-3 0 -12 -13q-14 -21 -14 -36q0 -4 2 -4zM373 2398q14 0 14 18t9 54q4 18 4 24
q0 5 -1 5q-9 0 -26 -56q-6 -22 -6 -34q0 -11 6 -11z" />
    <glyph glyph-name="m" unicode="m" horiz-adv-x="2105" 
d="M1660 448q-64 0 -105 30q-65 44 -71.5 118t-6.5 108q0 125 29 357q24 214 24 250q0 8 -1 9q-5 0 -34 -51.5t-70 -133.5q-90 -178 -145 -269t-97 -120t-96 -29q-187 0 -187 272q0 66 9 184q21 274 42 380q4 16 4 23q0 6 -3 6q-16 0 -166 -309q-189 -390 -307 -572
q-163 -249 -294 -252h-34q-101 0 -156 89q-26 46 -39.5 126t-13.5 136q0 68 34 310q14 105 32 201q64 332 126 588t84 280q20 11 20 39t16 37q4 3 7 3q4 0 4 -8q0 -7 -3 -19q-20 -85 -20 -120q0 -23 9 -23q6 0 11 5t5 13.5t4 8.5q2 0 3.5 -1.5t1.5 -8.5q0 -28 -8 -82
q-14 -84 -25 -116q-3 -5 -3 -10q0 -10 9 -10q6 0 17.5 38t22.5 94.5t19.5 86.5t11.5 30q2 0 2 -10q0 -30 -12 -84q-26 -127 -26 -296q0 -94 9 -115q9 -16 9 -26t-8.5 -15t-8.5 -19q0 -6 3 -12q13 -42 13 -179q0 -131 -9 -211q-8 -65 -8 -96q0 -34 12 -34q17 0 48 49
q44 68 282 547q187 377 277 522.5t161 186.5q69 47 119 47q81 0 129 -148q17 -48 17 -139q0 -128 -39 -397q-22 -164 -22 -187q0 -4 0.5 -5t1.5 -1q7 0 26 41q15 35 15 53q0 4 -1.5 7.5t-1.5 6.5q0 6 7 6q14 0 75 104q173 295 314 295q35 0 58 -14t63 -94q22 -45 32 -75
q14 -43 14 -150q0 -215 -10 -365q-5 -101 -5 -116q0 -17 1 -17q5 0 52.5 117.5t66 138.5t26.5 46t14 25h1v-1q0 -18 -94.5 -270t-94.5 -269q6 0 80.5 168.5t81.5 168.5q6 -8 6 -27q0 -48 -43 -167q-31 -83 -31 -105q0 -9 5 -9q1 0 4.5 2t6.5 2q7 0 7 -12q0 -29 -59 -184
q-65 -175 -113.5 -238t-117.5 -63q-41 0 -74 34t-33 76q0 14 -4 24t-9 10q-9 0 -9 -14q0 -26 24 -76q16 -34 37 -53t36 -23t28 -4q65 0 116 54q43 45 114 167.5t81 122.5q2 0 2 -3q0 -13 -21 -68q-85 -233 -193 -298q-42 -20 -90 -20zM1008 765v1q0 5 -29 50q-28 39 -34 100
q-4 31 -8 244q-7 -177 -7 -206q0 -71 13 -102q9 -25 30 -50q31 -37 35 -37zM1155 756q60 58 68 68.5t8 14.5q0 2 -2 2q-8 0 -40 -40zM946 1203q17 51 20 70q5 27 5 43q0 10 -2 10q-3 0 -11 -22q-12 -26 -12 -65v-36zM1021 1690q3 0 9 9.5t10 20.5t4 19q0 18 -14 18
q-13 0 -15 -39q0 -28 6 -28zM1029 1772q6 0 10.5 8t4.5 20q0 26 -6.5 27t-7.5 1q-12 0 -29 -21q-11 -11 -11 -15q0 -2 3 -2q4 0 14.5 4.5t15.5 4.5q4 0 4 -3t-3 -8.5t-3 -9.5q0 -6 8 -6z" />
    <glyph glyph-name="n" unicode="n" horiz-adv-x="1480" 
d="M222 649q-56 0 -107 32q-72 46 -93.5 128t-21.5 175q0 197 88 629q96 475 121 475h2q5 0 11 6.5t10 16.5t7 10q4 0 5 -36.5t4 -41.5t6 -5q4 0 12 7t12 7q5 0 5 -13q0 -11 -3 -33.5t-6.5 -45t-6.5 -34.5l-1 -9q0 -9 5 -10q12 0 25 81q10 72 21 72q4 0 5 -17q0 -17 -5 -42
q-7 -40 -7 -84q0 -106 22 -139q17 -22 24 -99q9 -80 21 -80q7 0 7 -5.5v-8.5q0 -26 -29.5 -194t-29.5 -228q0 -34 11 -34q16 0 79.5 87.5t296.5 437.5q278 418 363 527q129 151 236 151q40 0 63 -31q30 -47 44.5 -103t14.5 -95q0 -62 -66 -411q-48 -249 -83 -388
q-14 -52 -24 -155.5t-22 -143.5q-14 -49 -14 -102q0 -48 -10 -48q-1 0 -2.5 1t-3.5 1q-7 0 -12.5 -16.5t-6.5 -36t-1 -25.5q0 -27 3 -56q2 -17 2 -30q0 -31 -12 -31q-11 0 -20 48l-34 190q-3 -163 -6 -170q-3 -13 -8 -13q-12 0 -25 40q-9 25 -14 54q-8 60 -21 60l-6 -1
q-26 0 -30 196q-3 117 -11 117q-7 0 -18 -84q-12 -111 -30 -111q-12 0 -12 55q0 79 18 233q10 89 23 146q18 78 18 96l-1 4q-8 0 -52 -71q-97 -152 -243 -352.5t-224 -287.5q-101 -106 -155 -135q-56 -27 -108 -27zM775 1280q5 0 27 27q14 18 28.5 42.5t22 40t7.5 20.5
q0 2 -2 2q-5 0 -51 -65q-34 -51 -34 -65q0 -2 2 -2zM870 1426q5 0 25 25q13 15 13 18h-1q-2 0 -17 -12q-26 -21 -26 -28q0 -3 6 -3zM983 1571q3 0 19 17q19 17 19 29q0 5 -4 5q-11 0 -23 -26q-12 -20 -12 -24q0 -1 1 -1z" />
    <glyph glyph-name="o" unicode="o" horiz-adv-x="1192" 
d="M388 281q-44 0 -88 8q-183 42 -276 205.5t-93 380.5q0 248 126 500q53 99 135 192t164 148q44 27 101 51q89 36 126 36q12 0 12 -6l-1 -7q0 -9 17 -9q8 0 54 7q-61 -28 -64 -33q0 -6 17 -6q22 0 72 10q22 -10 44 -16q102 -30 115 -30t13 8q0 18 6 18q3 0 6 -3
q16 -8 72 -23q153 -41 197 -41q33 0 57 -22t88 -22q98 -3 98 -13q0 -12 -109 -23q-95 -9 -95 -14q0 -2 15 -3q114 -9 114 -27q0 -13 -30 -25q-26 -10 -62 -10q-50 0 -50 -12l1 -7q0 -13 -32 -23q-38 -12 -103 -14q-31 -3 -31 -12q0 -15 51 -27l53 -9l-45 -19
q-30 -12 -35 -20t-5 -17q0 -12 5 -30q11 -54 11 -145q0 -198 -27 -313q-45 -164 -129.5 -294.5t-190.5 -197.5q-152 -91 -304 -91zM467 333q15 0 15 5q0 6 -13 6q-10 0 -16.5 -2.5t-6.5 -4.5q0 -4 21 -4zM518 346q31 3 93 35q70 36 104 66q25 21 25 23q-3 0 -38 -24
q-51 -34 -129 -66q-59 -24 -59 -32q0 -2 4 -2zM375 594q157 0 258 167q95 158 95 378q0 149 -35 236q-16 38 -16 51q0 14 28 38q38 31 56 39q6 2 6 7q0 13 -76 51q-39 19 -98 19q-58 0 -135 -18q-16 -34 -16 -40q0 -7 4 -7q5 0 13 5l5 1q0 -2 -15 -15q-19 -15 -19 -21
q0 -1 2.5 -1t2.5 -6q0 -8 -9 -25q-15 -28 -20 -62.5t-46 -103.5q-94 -157 -109.5 -270t-15.5 -158q0 -152 64 -229q13 -17 24 -24q21 -12 52 -12zM878 637q3 0 16 18q23 28 23 42q0 8 -3 8q-6 0 -25 -42q-11 -22 -11 -26zM927 727q3 0 16 26q27 56 27 89q0 4 -2 4
q-6 0 -28 -63q-14 -41 -14 -53q0 -3 1 -3z" />
    <glyph glyph-name="p" unicode="p" horiz-adv-x="1584" 
d="M-257 -2201q-75 0 -111 13q-32 15 -32 29q0 8 7 8t20 -7t47 -11.5t71 -4.5q51 0 74.5 5.5t35 21.5t15.5 16q3 0 3 -17q0 -23 -27 -40q-28 -13 -103 -13zM-166 -2115q-22 4 -126 27q-92 21 -120 21l-7 -1q-9 0 -9 87q0 127 20 311q18 151 73 677q191 1793 532 2822
q27 82 46 139t19 60t1 3q2 0 5 -3t9.5 -12.5t10.5 -9.5q2 0 3 5q0 17 23 71q20 46 27 46q2 0 2 -4q0 -17 -23 -86q-28 -85 -28 -108q0 -9 4 -9q5 0 17 16t17 16q2 0 2 -7q0 -20 -33.5 -137.5t-33.5 -134.5q0 -3 1 -3q8 0 59 158q52 169 62 169v-3q0 -25 -31 -125
q-28 -90 -50 -200q-38 -185 -38 -270q0 -27 5 -37q12 -19 12 -39q0 -15 -8 -21t-8 -24q0 -10 2 -21.5t2 -30.5q0 -58 -7 -116.5t-7 -89.5q0 -24 4 -27.5t4 -25.5q0 -23 -5 -53q-69 -398 -89 -479q-10 -37 -10 -61q0 -6 1 -8q7 2 77 190q72 194 81 235q4 21 12 29
q13 20 98 223q236 566 467 839q83 101 138.5 145.5t124.5 66.5q52 16 99 16q77 0 141 -44q131 -92 131 -326q0 -120 -27 -268q-40 -212 -117 -371q-70 -137 -189 -283t-238 -241q-107 -83 -117 -83h-1q0 3 30 29q33 29 33 35q0 1 -1 1q-11 0 -97 -55q-169 -108 -264 -129
q-16 -2 -27 -11q-21 -16 -63 -137q-204 -581 -356 -1204q-130 -530 -175 -894q-13 -110 -23.5 -156.5t-27.5 -60.5q-26 -28 -39 -28zM-79 -1544q9 0 32 134q5 32 5 43q0 3 -1 3q-4 0 -20 -54q-19 -74 -19 -115q1 -11 3 -11zM160 -575q5 0 11.5 14.5t10.5 36.5t9.5 43.5
t9 31.5t3.5 14q0 3 -1 3q-8 0 -19 -30q-27 -68 -27 -105q0 -8 3 -8zM221 -364q5 0 49 134q43 139 43 154v2q-7 0 -50 -134.5t-43 -154.5zM326 -55q1 0 3.5 3t2.5 8v7q0 5 -2.5 11.5t-4.5 6.5q-3 0 -4 -15q0 -21 5 -21zM517 389q4 0 108 51q207 104 364 268l87 90l-101 -87
q-161 -138 -280 -199l-49 -25l31 39q30 36 92 82q68 49 119 99.5t51 68.5q0 10 -6 10q-8 0 -26 -17q-7 -6 -9 -6q-1 0 -1 1q0 4 23 32q178 216 286 504q15 41 15 49q0 2 -1 2q-7 0 -71 -130q-67 -135 -133 -213q-49 -60 -55 -60q-1 0 -1 1q0 9 75 146q83 154 136 326t56 297
q-1 26 -15 26t-42 -28q-55 -55 -138.5 -186t-170.5 -304q-46 -91 -106.5 -229t-117.5 -277t-89 -226t-32 -102q0 -3 1 -3zM919 562q15 0 71 61l57 61q-122 -105 -128.5 -110.5t-6.5 -8.5t7 -3z" />
    <glyph glyph-name="q" unicode="q" horiz-adv-x="1330" 
d="M277 -1882q-4 0 -7.5 58t-4.5 149q-4 168 -7 168t-9 -55q-11 -91 -19 -136q-6 -26 -12 -26q-5 0 -10 16q-11 36 -12 122q0 107 -21 126q-16 15 -16 83q0 72 12 220q5 61 10 87.5t5 44.5t-5 18q-4 0 -14.5 -40.5t-20.5 -100.5q-28 -155 -43 -155q-8 0 -8 61
q0 310 311 1292q117 372 160 492q0 2 -4 2q-16 0 -87 -34q-157 -74 -291 -74q-183 0 -272 129q-33 45 -37 97q-2 27 -2 62v39q0 105 25.5 193t97.5 229q94 184 256 391.5t335 376t300 233.5q83 39 135 40t59 1q84 0 133 -32q39 -30 71 -85.5t42 -112.5q4 -28 4 -72
q-1 -44 -5 -88.5t-9.5 -72.5t-11.5 -28l-4 1q-12 0 -24 -41q-8 -33 -12 -33q-2 0 -2 16l2 80q0 66 -9 66q-3 0 -7 -8q-1 -2 -3 -2q-10 0 -18 87q-11 126 -34 126q-2 0 -2 -4q0 -6 5 -22q9 -34 9 -132q0 -96 -9 -110q-8 0 -8 88q0 71 -18.5 130.5t-45.5 71.5q-11 4 -23 4
q-58 0 -109 -63q-63 -77 -81 -97q-33 -41 -33 -51l1 -2q0 -13 -143 -167q-287 -305 -446 -602q-121 -222 -121 -293q0 -23 12 -29t28 -6q46 0 132 43q114 58 217 154q106 103 200 230t128 211q32 84 47 84h2q16 0 53 35q44 41 91 41q45 0 94 -38q27 -22 35.5 -41.5
t8.5 -58.5q0 -62 14 -71q1 -1 1 -5q0 -23 -48 -101q-63 -99 -86 -154q-114 -278 -270 -727q-70 -201 -100 -302q-14 -52 -73 -245q-59 -205 -87 -317q-38 -160 -68.5 -246.5t-52.5 -206.5q-17 -89 -51 -252q-21 -91 -37 -199q-9 -73 -28.5 -96.5t-33.5 -186.5
q-11 -157 -21 -177z" />
    <glyph glyph-name="r" unicode="r" horiz-adv-x="937" 
d="M293 490q-248 4 -304 10q-35 6 -35 24q0 6 2 14q5 29 15 254q8 203 31 447q24 230 26 475q0 282 13 282h1q4 -2 17 -21q16 -24 26 -24q6 0 11 10.5t9 10.5q4 -1 8 -14q29 -90 33 -92h1q3 0 3 14q0 26 -12 76q-6 20 -6 34q0 6 2 6q5 0 14 -21.5t15 -47.5q28 -99 46 -99
q2 0 5 2.5t17.5 31t34.5 68.5q98 203 223 203q63 0 132 -50q42 -27 72.5 -68t80.5 -137q61 -114 123 -187.5t99 -76.5q18 -2 31 -24q7 -14 16.5 -16t15.5 -2q14 0 37 5q77 16 103 16q13 0 13 -4q0 -10 -44 -27q-84 -34 -145 -38q-10 -1 -10 -2q0 -3 47.5 -8t60.5 -10t13 -12
q0 -11 -28 -21q-21 -8 -47 -12q-53 -7 -53 -23q0 -2 1.5 -5t1.5 -6q0 -13 -43 -13q-49 0 -110 22.5t-111 58.5l-54 40q18 -20 35 -39.5t48 -44.5q27 -23 133 -97q-25 5 -48.5 9.5t-50.5 15t-46 21.5q-52 34 -121 109t-96 126.5t-36 51.5q-10 0 -38 -90.5t-60 -226.5
q-19 -84 -49 -306q-32 -228 -69 -572zM330 1155q2 0 4 2.5t2 7.5v7q0 6 -2.5 12.5t-4.5 6.5q-3 0 -4 -16q0 -20 5 -20zM341 1225q13 0 39 165q-27 -80 -33 -106q-8 -32 -8 -50q0 -9 2 -9z" />
    <glyph glyph-name="s" unicode="s" horiz-adv-x="1228" 
d="M68 336q-108 0 -156 74q-25 39 -25 87q0 41 24.5 97t53.5 82q16 13 16 26q0 3 -2 6.5t-2 6.5t4 3l4 -1q6 0 38 24t74 62q90 81 142 122l87 69q65 49 65 58q0 6 -61 32q-70 31 -150 96.5t-120 125.5q-62 105 -62 218q0 103 51 211q45 85 147.5 194.5t207.5 193.5t158 91
l34 2q-60 -64 -60 -76q0 -5 8 -5q6 0 16 3h3q2 0 2 -1q0 -10 -44 -57q-42 -43 -42 -52q0 -2 2 -2q7 0 32 20q14 11 22 21q18 20 49 38l5 2q1 0 1 -2q0 -9 -50 -62q-41 -42 -66 -83q-35 -58 -74 -184q-12 -37 -14 -48q-5 -24 -43 -96q-38 -78 -38 -110q0 -36 31 -72.5
t80 -58.5q45 -19 99 -50q44 -27 126 -53l81 -26q76 64 112.5 88.5t67.5 41.5q71 37 108 62q69 47 120 73q19 11 23 11l1 -1q0 -8 -46 -37q-34 -22 -34 -29q0 -2 3 -2q20 3 100 54q98 61 127 61q6 0 6 -2q0 -7 -48 -43l-82 -62q-112 -82 -112 -89q0 -3 2 -3q6 0 58 33
q104 66 114 66q11 0 11 -8q0 -7 -7 -19q-16 -27 -54.5 -58.5t-44.5 -43t-6 -14.5q0 -5 8 -5l10 1q1 0 1 -1q0 -10 -77 -89q-85 -85 -85 -95q10 0 77 39l69 38q-36 -54 -50 -69t-25 -21.5t-11 -12.5q0 -9 29 -31q79 -64 79 -143q0 -56 -39.5 -121t-126 -125t-270.5 -150
q-452 -220 -662 -220zM658 807q6 0 16 4t21 11.5t11 10.5q0 2 -5 2q-6 0 -16.5 -4t-21 -11.5t-10.5 -10.5q0 -2 5 -2zM755 854q4 0 15 4t15 8.5t4 6.5q0 5 -6 5q-11 0 -20.5 -10t-9.5 -13q0 -1 2 -1z" />
    <glyph glyph-name="t" unicode="t" horiz-adv-x="589" 
d="M-129 -1886q-10 0 -10 21q0 9 2 19q5 25 9.5 85.5t8 129t4.5 115.5q0 47 -3 47q-7 -7 -24 -136q-19 -151 -41 -151l-1 1q0 2 3.5 8.5t3.5 11.5q0 9 -7.5 15.5t-7.5 72.5l1 43q2 46 2 69q-1 34 -12 34q-3 0 -5.5 -1t-4.5 -1q-13 0 -16 77q-3 48 -5 142q-3 175 -8 175
q-2 0 -7 -36.5t-14 -85t-18 -86.5q-11 -52 -15 -52q-3 0 -3 28q0 158 15 355q8 108 18 180q71 534 115 893q100 821 193 1393t253 1341q75 369 75 398v1l-8 1q-55 0 -391 -41q-160 -20 -301 -40q-150 -22 -399 -67q-337 -61 -524 -102q-37 -8 -50 -10l-234 -51
q-170 -36 -227 -36q-12 0 -54 10q67 35 71 45t4 13q0 9 -17 11q-3 0 -3 2q0 4 41 20q64 25 64 31q0 2 -5 2q-8 0 -29 -4q-70 -17 -83 -17q-4 0 -4 1q0 4 42 20q64 28 114.5 60.5t53.5 49.5q0 6 15 21q10 9 80 59q19 14 26 21q19 20 85.5 39.5t210.5 46.5q197 38 245 50
q61 14 136 22q84 9 94 14q27 10 387 63q363 54 527 72l215 24q40 136 66 252q130 531 165 648q23 70 37 128q12 50 23 50q4 0 8 -7.5t7 -7.5q5 0 5 27q0 38 14 47h2q6 0 6 -26q0 -16 -2 -42q-4 -35 -4 -50q0 -12 4 -12t16.5 16t16.5 16q1 0 1 -3q0 -20 -26 -136
q-13 -47 -13 -61q0 -8 5 -8q17 0 38 101q25 121 39 121q1 0 1 -4q0 -6 -3 -21q-36 -176 -36 -311q0 -59 11 -68t11 -100v-47q0 -33 2 -59q2 -34 5 -36.5t3 -14.5q0 -50 -49 -253l-25 -105q132 11 264 24q21 3 243 22q55 4 95 8q165 13 564 24h33q85 0 85 -8q0 -11 116.5 -11
t116.5 -13v-1q-11 -14 -70 -16q-64 -2 -132 -20l-72 -20l114 3q64 0 66 -5q0 -15 -22.5 -29t-44.5 -14q-13 0 -33 -9.5t-36 -24.5q-38 -33 -155 -61l-119 -27l108 -7q80 -7 80 -16q0 -8 -51 -18q-113 -22 -402 -38q-328 -20 -666 -49q-143 -13 -155 -18q-19 -31 -146 -665
q-131 -646 -157 -831l-36 -226q-31 -182 -85 -555q-85 -581 -136 -1035l-31 -286q-29 -259 -58 -453q-28 -170 -43 -324q-18 -177 -38 -288t-37 -124q-11 -7 -11 -10t8.5 -3t13.5 -7.5t6 -17.5v-4q0 -13 -4 -13t-12 13.5t-12 13.5q-1 0 -1 -2q0 -14 -23 -189
q-15 -109 -23 -126q-7 -14 -13 -14zM-20 786q6 0 6 23q0 12 -3 23q-2 6 -3 6q-3 0 -4 -24q0 -28 4 -28zM-9 857q15 61 18.5 86.5t3.5 86.5q-16 -61 -19 -86.5t-3 -86.5zM21 1054q5 0 15 55q4 21 4 30q0 6 -2 6t-7.5 -8.5t-9.5 -24t-4 -30.5q0 -28 4 -28zM109 1558q6 0 6 10
v7q0 6 -2.5 12.5t-4.5 6.5q-3 0 -4 -16q0 -20 5 -20zM126 1667q5 0 15 38q13 53 13 89q0 10 -2 10q-6 0 -16 -38q-13 -53 -13 -88q0 -11 3 -11zM18 3228q17 0 56 12q25 6 25 10q0 3 -27 3h-16q-49 0 -49 -19q0 -6 11 -6z" />
    <glyph glyph-name="u" unicode="u" horiz-adv-x="1376" 
d="M945 289h-39q-66 0 -112 27q-141 85 -163 330l-8 90l-82 -101q-78 -96 -141 -138q-74 -49 -175 -49q-106 0 -170 80q-80 93 -85 201t-5 133q0 176 56 406q23 88 72 196q43 98 55 98q2 0 3.5 -3.5t6.5 -3.5q11 0 35 26l35 39q-48 -85 -50.5 -95t-2.5 -14q0 -10 7 -18
t11 -8q5 0 5 13t6 13q3 0 3 -7q0 -15 -16 -63.5t-16 -61.5q0 -5 2 -5q8 0 37 65q28 68 37 68q1 0 1.5 -0.5t0.5 -2.5q0 -17 -18 -57q-22 -56 -22 -143q0 -61 13 -72q15 -10 24 -77t16.5 -81t7.5 -77l-2 -70q0 -74 12 -84q4 -3 9 -3q25 0 78 73q63 87 194 319
q137 237 182 287q48 44 101 44q19 0 40 -6q75 -23 96 -110q3 -14 3 -37q0 -47 -9 -109q-13 -82 -33 -331q-11 -132 -11 -194q0 -61 11 -78q12 -30 21 -30q17 0 65 68q27 38 55 84q64 108 91.5 139t72.5 121q46 98 62 123l61 113q38 68 50 68q1 0 2 -2t2 -2q12 0 36 62
q56 134 67 134q4 0 4 -14q0 -29 -31 -129q-32 -96 -32 -117v-1q7 0 45 84q32 74 44 74q5 0 11 -11t6 -25q0 -16 -9.5 -36.5t-12.5 -41.5t-3 -33q0 -24 9 -24q2 0 4 1t3 1q6 0 6 -9l-1 -9q-36 -180 -60 -225q-15 -29 -15 -43q0 -3 0.5 -4t1.5 -1q10 0 60.5 95.5t59.5 95.5
q1 0 1 -5q0 -23 -19 -84q-42 -138 -142.5 -307t-215.5 -307q-175 -210 -299 -212zM1427 1412q-5 0 -5 13q0 6 4.5 12.5t9 9t6.5 2.5q3 0 3 -4t-3 -11q-8 -22 -15 -22z" />
    <glyph glyph-name="v" unicode="v" horiz-adv-x="995" 
d="M184 444q-127 0 -174 106q-31 66 -43.5 156t-12.5 159q0 93 36 391q45 377 62 377l5 -1q2 0 5 2.5t3 10t3 7.5q4 0 12 -14q18 -25 37.5 -26t19.5 -37q0 -32 5 -32q7 0 12 46q5 37 14 37q12 0 12 -42q0 -68 61 -135q22 -24 32.5 -52.5t20.5 -28.5t10 -33l-1 -21
q-20 -230 -20 -283q0 -37 7 -37q11 0 69 99.5t120 224.5q111 223 144 275q23 36 48 68q54 75 56 90.5t83 100.5q61 65 64 65l-2 -4q-13 -18 -13 -23q0 -2 2 -2q9 0 56 40.5t84 51.5q13 4 18 4q3 0 3 -2q0 -5 -36 -35q-46 -40 -78 -91l-27 -48q76 70 88 80q17 13 20 13
q7 0 7 -9q0 -21 -23 -61q-10 -19 -10 -31q0 -10 6 -15.5t6 -19.5q0 -33 -39 -145l-2 -7q0 -2 2 -2q6 0 33 31q38 42 51 42q4 0 4 -10q0 -44 -117 -235q-84 -138 -175 -312t-184.5 -333t-140.5 -221q-107 -129 -223 -129zM224 503q17 0 75 38q54 38 54 44q0 1 -1 1
q-9 0 -51 -24q-80 -46 -80 -57q0 -2 3 -2zM460 724q6 0 32 37q21 31 46 73q59 101 59 113l-1 1q-7 0 -106 -164q-31 -51 -31 -59q0 -1 1 -1z" />
    <glyph glyph-name="w" unicode="w" horiz-adv-x="1781" 
d="M997 275q-44 0 -88 15q-116 52 -177 221q-6 22 -12.5 115t-19.5 490l-70 -129q-138 -255 -227 -375.5t-163 -151.5q-60 -26 -110 -26q-109 0 -171 121q-28 56 -28 122v18q0 228 49 443q69 293 135 505.5t88 218.5l4 -1q11 0 11 18q0 8 5 17q6 14 15 14q4 0 4 -8
q0 -7 -4 -22q-10 -41 -10 -62q0 -22 11 -22l12 2q9 0 9 -15q0 -9 -4 -25q-16 -75 -16 -92q0 -5 2 -5q4 0 25 60q27 77 32 78q5 0 5 -5q0 -14 -15 -70q-9 -34 -14.5 -97.5t-5.5 -129.5q0 -42 6 -49q3 -3 7 -30t5.5 -65.5t6.5 -69t11.5 -38.5t6.5 -29t-8 -57q-10 -48 -10 -64
q0 -15 12 -15q15 0 29 12q7 7 7 12q0 2 -1 4.5t-1 5.5q0 11 13 20q18 12 110 191q129 261 210.5 381.5t161.5 167.5q60 39 100 39q59 0 94 -106q24 -67 28 -119t4 -82q0 -62 -7 -144q-38 -452 -38 -632q1 -180 34 -180q14 0 50 56q82 125 110 202q104 282 155.5 433.5
t80.5 264.5q84 316 99 316h2q11 0 48 121q16 53 27 102.5t32 79.5q13 20 17 20q1 0 1 -3q0 -7 -5 -24q-33 -155 -55 -296q-8 -57 -8 -73q10 0 39 125q30 117 44 117q3 0 7 -5q10 -10 11 -23q0 -40 -8.5 -88t-8.5 -75q0 -21 11.5 -27t13 -20t1.5 -23q0 -31 -24 -208
q-9 -60 -18 -101q-7 -32 -7 -42q0 -5 2 -5q11 0 57 146q31 100 42 100q5 0 5 -16q0 -35 -20 -137q-71 -341 -202 -662t-261 -471q-149 -159 -291 -159zM744 936q5 0 5 58t-5 58q-3 0 -3 -58t3 -58zM770 1290q21 0 21 26q0 8 -3 19q-7 18 -11 18q-6 0 -20 -20
q-12 -16 -12 -26q0 -8 9 -12.5t16 -4.5zM1563 2004q-5 0 -5 21q1 15 4 15q2 0 5 -7.5t3 -14.5q-1 -14 -7 -14z" />
    <glyph glyph-name="x" unicode="x" horiz-adv-x="1145" 
d="M1060 -211q-18 0 -136 204q-51 87 -56 87q-1 0 -1 -1q0 -11 41 -100q43 -98 43 -101q0 -1 -3 -1q-5 0 -23 3q-26 9 -67 85q-44 79 -58 79q-7 0 -7 -18q0 -6 -3 -6q-7 0 -37 49q-40 65 -96 177t-67 112q-1 0 -1 -3q0 -12 22 -68q19 -47 43 -128q16 -53 16 -62q0 -3 -1 -3
q-17 0 -77 129q-39 84 -73 177q-32 88 -42 90q-8 0 -43 -61q-121 -212 -213.5 -300t-152.5 -88q-18 0 -34 7q-60 31 -87.5 144t-27.5 232q0 203 84 688q60 351 115 542q29 88 84 153t101 65q30 0 78.5 -44t79.5 -99q20 -40 77 -225q21 -72 63 -229q263 416 459 677
q122 162 132 162q2 0 2 -3q0 -5 -3 -14.5t-3 -13.5q0 -2 1 -2q5 0 25 25q35 39 42 39q1 0 1 -2q0 -7 -25.5 -48t-26 -52t-0.5 -12q0 -11 8 -11q5 0 15 6l3 1q1 0 1 -2q0 -10 -18 -38q-73 -115 -73 -128l1 -1q6 0 74.5 93.5t74.5 93.5q2 0 2 -3q0 -11 -47 -76
q-50 -73 -105 -210q-7 -19 -7 -34t6.5 -27t6.5 -18t-7 -6t-11.5 -8t-4.5 -19.5t-8.5 -38.5t-20.5 -55.5t-14.5 -41.5t-2.5 -18q0 -6 4 -6t4 -4q0 -14 -19 -38q-30 -42 -30 -50.5t-105 -170.5q-74 -112 -214 -333q39 -187 59 -260q17 -64 30 -102q135 -390 135 -440v-8
q0 -28 50 -125t50 -110q0 -1 -1 -1t-1 -1q0 -7 12 -20.5t12 -25.5q0 -6 -4 -6zM202 533q15 0 15 7q0 2 -4.5 6.5t-9.5 7.5t-9 3q-6 0 -6 -8q0 -16 14 -16zM208 709q7 0 7 13q0 7 -3 14.5t-5 7.5q-3 0 -4 -15q0 -20 5 -20zM265 748q15 0 61 84q21 40 28.5 59.5t7.5 36.5
q0 21 -13 70q-21 82 -31 82q-4 0 -12 -40.5t-15.5 -100t-15 -106t-10.5 -59.5t-3 -20q0 -6 3 -6zM280 1112q7 0 7 13q0 8 -3 15.5t-5 7.5q-3 0 -4 -16q0 -20 5 -20zM1001 -13q-4 0 -29 44q-19 35 -19 47q0 3 2 3q8 0 29 -45q17 -41 17 -48v-1z" />
    <glyph glyph-name="y" unicode="y" horiz-adv-x="1538" 
d="M81 -3066q-1 0 -1 4q3 14 44 95q65 133 130 305q24 65 24 80q-6 0 -75 -147q-71 -157 -80 -157q-8 0 -8 27q0 46 11 71q21 38 52 129q24 74 24 95l-4 1q-9 0 -17.5 -13.5t-12.5 -13.5q-1 0 -1 2q2 16 62 255q58 231 77 296q3 10 3 15t-3 5q-15 0 -59 -142
q-36 -119 -74 -195q-26 -53 -30 -53q8 64 112 442q231 842 408 1620q91 403 247 1023q64 258 87 338q0 4 -1 4q-13 0 -75 -69q-287 -319 -484 -412q-126 -64 -236 -64q-29 0 -53 6q-43 12 -87.5 53.5t-68.5 91.5q-23 57 -25 128.5t-2 93.5q0 101 16 208q24 163 119 476
q86 283 109 283q1 0 3 -2.5t4 -2.5q8 0 15 31q15 58 33 58q3 0 3 -4t-3 -12q-33 -86 -33 -134q0 -21 7 -21q6 0 17 15q4 5 6 5t2 -9q0 -38 -34 -144q-17 -55 -17 -79q0 -7 2 -7q8 0 46 124q44 151 61 151q3 0 3 -5q0 -3 -2 -10q-28 -74 -51.5 -185.5t-31.5 -182t-8 -99.5
q0 -30 5.5 -41t5.5 -104l-2 -117q0 -89 10.5 -89t10.5 -23q0 -10 -2 -22.5t-2 -21.5q0 -33 14.5 -53.5t24.5 -20.5q11 0 58 31q66 46 178 153.5t182 192.5q76 95 148 183q133 165 296 419.5t224 388.5q17 41 34 69.5t24 28.5t65 21t81 21q52 0 87 -46q44 -58 44 -105
q0 -49 -42 -137q-16 -32 -27 -42q-18 -21 -78.5 -190t-133.5 -399q-147 -456 -334 -1236q-110 -455 -180 -789q-40 -185 -64 -281q-47 -179 -115 -489q-34 -145 -71 -259q-46 -136 -147 -511q-27 -93 -114 -307q-89 -219 -102 -219t-85 -146q-79 -159 -119 -205
q-20 -23 -24 -23zM889 459q7 0 46 145q27 100 27 121v2q-4 0 -17 -42q-30 -90 -48 -168q-10 -39 -10 -49q0 -9 2 -9zM979 800q7 0 18 35q14 42 14 61q0 4 -1 4q-5 0 -17 -34q-15 -41 -15 -62q0 -4 1 -4zM258 -2820q-1 0 -1 2q0 4 4.5 15t8.5 15t6 4q5 0 5 -7q0 -8 -12 -20
q-8 -9 -11 -9zM286 -2763q-4 0 -4 13q0 5 4 11.5t8.5 9.5t6.5 3q3 0 3 -5q0 -4 -2 -11q-9 -21 -16 -21z" />
    <glyph glyph-name="z" unicode="z" horiz-adv-x="948" 
d="M-853 -3062q-3 0 -3 2q0 10 141 158q178 186 178 205v1q-11 0 -183 -170q-39 -38 -41 -38q-1 0 -2 5q0 7 1 19t17.5 38t40.5 53q43 48 65.5 75t28 37.5t5.5 14.5q0 6 -7 7q-13 0 -26 -12q-10 -8 -12 -8l-1 1q0 2 15 19q25 30 25 41t218 308q40 55 40 64q0 2 -2 2
q-11 -1 -65 -67q-57 -73 -134 -147l-75 -72q20 32 40 63.5t93.5 132.5t167.5 225q349 459 541.5 793t298.5 665q45 138 72.5 278t28.5 232q-1 81 -23 176t-52 153q-35 73 -88 89.5t-141 16.5q-44 0 -99 -3q-84 -4 -130 -4q-77 0 -114 22q-112 62 -112 180q0 46 17 101
q33 126 388 586q359 469 471 662q54 90 54 109q0 6 -7 6q-20 0 -147 -95q-265 -197 -402 -326q-46 -43 -61 -43q-3 0 -3 2q0 7 21 32q3 4 3 5q-3 0 -39 -33q-41 -36 -50 -36q-3 1 -3 4q0 11 43.5 53.5t43.5 66.5q0 6 -5 6q-8 0 -28.5 -18t-24.5 -18q-1 0 -1 1q0 9 30 45
q26 31 61 64q77 73 77 84q0 1 -1 1q-4 0 -64 -51q-14 -12 -17 -16q-78 -73 -84 -73v1q0 6 66 79q191 213 191 251q0 13 32 47q114 125 143 163q12 16 12 23t44 36q113 73 192 101q64 22 119 22q47 0 87 -17q131 -58 131 -228q0 -60 -20 -132q-37 -112 -137 -289.5
t-193 -292.5q-106 -132 -368 -481q-186 -248 -186 -271q0 -11 127 -13q75 0 118 -8t90 -30q341 -163 341 -726q0 -124 -14 -222q-14 -106 -52 -236q-48 -177 -101 -311q-73 -186 -221 -477q-41 -80 -146 -249q-82 -134 -89 -144q-123 -201 -255 -360q-101 -120 -180 -230
q-50 -66 -132.5 -158.5t-152 -162t-81.5 -69.5h-1q-7 0 -45 -34t-92.5 -88.5t-95.5 -91.5t-46.5 -37t-17 -7t-22.5 -17t-16.5 -12.5t-7.5 -2.5zM632 -321q3 0 11 41q11 55 11 117q0 24 -2 24q-3 0 -11 -48q-11 -62 -11 -115q0 -19 2 -19zM648 -93q6 0 6 29q0 9 -2 16.5
t-4 7.5t-3 -24q0 -29 3 -29zM539 277q1 0 1 1q0 4 -32 33q-40 35 -56 35q-3 0 -3 -2q0 -7 36 -33q49 -34 54 -34zM138 335q31 0 31 4q0 5 -31 5t-31 -5q0 -4 31 -4zM325 351q67 0 67 3q0 5 -67 5t-67 -5q0 -3 67 -3zM-623 -2902q-2 0 -2 3q0 14 59 71q37 35 45 35q1 0 1 -2
q0 -8 -25 -38q-36 -43 -64 -62q-10 -7 -14 -7z" />
    <glyph glyph-name="Aacute" unicode="&#xc1;" horiz-adv-x="4026" 
d="M2833 -533q-42 0 -98 30q-65 32 -100 97q-17 29 -24 55q-12 40 -12 219q0 123 12 235.5t50 333.5q91 530 232 1173q35 170 35 198v3q-11 6 -258 6q-280 0 -402 -7q-117 -7 -228 -24q-204 -31 -285 -51.5t-94 -45.5q-31 -51 -110 -313q-32 -105 -46 -172
q-21 -109 -21 -199q0 -75 15 -136q16 -68 18 -101q5 -43 30 -87q17 -26 17 -31v-1q-18 0 -89 126q-38 71 -45 71q-2 0 -2 -8l1 -15q2 -19 2 -29q0 -13 -3 -13q-11 0 -32 95q-12 62 -12 142q0 33 2 69q2 41 2 66q0 39 -5 39l-2 -1q-13 -23 -13.5 -67.5t-0.5 -54.5
q0 -190 29 -279q22 -71 22 -81v-1q-4 0 -35 75q-42 118 -42 304q0 84 11 164q7 52 14 102.5t10 76t9 54.5t12.5 50t6.5 42t-7 40l-3 8q-4 12 -9 17.5t-20 5.5q-27 -1 -138 -30q-51 -11 -163 -42q-132 -36 -307 -90q-8 -2 -13 -2q-7 0 -7 4l2 7q0 2 -6 2q-34 0 -180 -52
q-77 -27 -293 -115q-59 -24 -88 -34q-67 -25 -80 -34q-31 -19 -71 -29q-12 -4 -17 -4q-4 0 -4 2q0 18 312 154q298 130 477 190q70 22 70 30q0 1 -0.5 1h-2.5q-20 0 -131 -35q-122 -39 -285 -99q-150 -56 -176 -56q-1 0 -2.5 1t-1.5 3q0 4 10 4q15 0 42 27q32 30 252 117
q219 89 219 106l-1 3q0 35 470 179q83 25 143.5 44t73 23t12.5 10q0 2 -1.5 3t-3.5 1q-33 0 -231 -45q-202 -46 -230 -46h-3q0 12 209 77q88 27 172 49q57 14 84 24t38.5 25.5t24.5 46.5q22 50 22 71l-1 8q0 35 136 281q182 329 559 814q256 329 495 589q56 62 78 90
q49 60 231 208q78 64 139 108q173 118 288 118q87 0 140 -86q43 -70 44 -177q-12 -334 -260 -1524q-97 -462 -99 -489q2 -16 143 -83q458 -219 458 -705q0 -195 -64 -385q-56 -164 -200 -449q-202 -400 -394.5 -659t-324.5 -308q-60 -22 -97 -22zM2779 -492q5 1 5 3
q0 5 -29 20q-19 10 -39.5 30t-31.5 41q-24 42 -32 42q-2 0 -2 -3q0 -7 14 -35q18 -34 54.5 -65t60.5 -33zM2639 -334q1 0 2 52t1 124.5t3 144.5t7 104t4 44q0 8 -1 8q-2 0 -8 -15q-10 -29 -16 -101.5t-7 -124.5t-1 -71q0 -165 16 -165zM2928 -87q13 0 38 24q21 20 42 49
q135 184 304 502.5t244 530.5q31 86 36.5 125t5.5 78q0 211 -73 326.5t-250 181.5q-20 7 -27 7h-2q-12 -19 -114 -516q-95 -459 -153 -783q-69 -388 -69 -476q0 -49 18 -49zM2670 258q7 9 21 77q5 30 5 49q0 8 -2 8q-4 0 -12 -29q-15 -56 -15 -97q0 -8 2 -8h1zM2698 418
q6 0 7 13q0 7 -3 14.5t-5 7.5q-3 0 -4 -15q0 -20 5 -20zM1505 765q3 0 4 7q0 9 -10.5 26.5t-13.5 17.5q-2 0 -2 -2q0 -7 9 -31q7 -18 13 -18zM2885 1310q7 0 7 13q0 8 -3 15.5t-5 7.5q-3 0 -4 -15q0 -21 5 -21zM2900 1388q6 0 6 21t-6 21q-4 0 -4 -21t4 -21zM2914 1454
q6 0 7 14q0 7 -3 14.5t-5 7.5q-3 0 -4 -15q0 -21 5 -21zM2955 1646q6 0 19 56q16 63 16 87q0 4 -1 5l-1 1q-8 0 -21.5 -51.5t-13.5 -83.5q0 -14 2 -14zM1869 2075q6 0 13 2q39 9 205 33q173 25 551 25q371 2 371 3q0 6 115 553q228 1097 228 1251q0 11 -1 17l-2 1
q-31 0 -307 -281q-121 -123 -219 -233q-481 -548 -816 -1101q-24 -41 -53.5 -87.5t-49.5 -78.5q-46 -70 -46 -93q0 -11 11 -11zM583 1425q-4 0 -4 2q0 3 10 9.5t22.5 10.5t21.5 4t9 -3q0 -4 -16 -11q-32 -12 -43 -12zM1358 1511q-1 0 -1 2q0 4 4 15t8.5 15t6.5 4q5 0 5 -7
q0 -8 -12 -20q-8 -9 -11 -9zM3392 4391q-9 0 -9 24v6q0 20 -12 20q-5 0 -13 -2.5t-17 -2.5q-25 0 -61 12q-49 14 -49 34l1 11q0 10 -7 10q-5 0 -16.5 -8t-19.5 -8q-15 0 -25 39q-3 7 -3 15q0 24 62 115l231 327q83 -19 99 -28q25 -11 44 -14q56 -13 110 -51q22 -16 24 -26
q-1 -16 -127.5 -199.5t-142.5 -218.5q-3 -7 -8 -13q-17 -24 -39 -34q-16 -8 -22 -8z" />
    <glyph glyph-name="Acircumflex" unicode="&#xc2;" horiz-adv-x="4032" 
d="M2833 -533q-42 0 -98 30q-65 32 -100 97q-17 29 -24 55q-12 40 -12 219q0 123 12 235.5t50 333.5q91 530 232 1173q35 170 35 198v3q-11 6 -258 6q-280 0 -402 -7q-117 -7 -228 -24q-204 -31 -285 -51.5t-94 -45.5q-31 -51 -110 -313q-32 -105 -46 -172
q-21 -109 -21 -199q0 -75 15 -136q16 -68 18 -101q5 -43 30 -87q17 -26 17 -31v-1q-18 0 -89 126q-38 71 -45 71q-2 0 -2 -8l1 -15q2 -19 2 -29q0 -13 -3 -13q-11 0 -32 95q-12 62 -12 142q0 33 2 69q2 41 2 66q0 39 -5 39l-2 -1q-13 -23 -13.5 -67.5t-0.5 -54.5
q0 -190 29 -279q22 -71 22 -81v-1q-4 0 -35 75q-42 118 -42 304q0 84 11 164q7 52 14 102.5t10 76t9 54.5t12.5 50t6.5 42t-7 40l-3 8q-4 12 -9 17.5t-20 5.5q-27 -1 -138 -30q-51 -11 -163 -42q-132 -36 -307 -90q-8 -2 -13 -2q-7 0 -7 4l2 7q0 2 -6 2q-34 0 -180 -52
q-77 -27 -293 -115q-59 -24 -88 -34q-67 -25 -80 -34q-31 -19 -71 -29q-12 -4 -17 -4q-4 0 -4 2q0 18 312 154q298 130 477 190q70 22 70 30q0 1 -0.5 1h-2.5q-20 0 -131 -35q-122 -39 -285 -99q-150 -56 -176 -56q-1 0 -2.5 1t-1.5 3q0 4 10 4q15 0 42 27q32 30 252 117
q219 89 219 106l-1 3q0 35 470 179q83 25 143.5 44t73 23t12.5 10q0 2 -1.5 3t-3.5 1q-33 0 -231 -45q-202 -46 -230 -46h-3q0 12 209 77q88 27 172 49q57 14 84 24t38.5 25.5t24.5 46.5q22 50 22 71l-1 8q0 35 136 281q182 329 559 814q256 329 495 589q56 62 78 90
q49 60 231 208q78 64 139 108q173 118 288 118q87 0 140 -86q43 -70 44 -177q-12 -334 -260 -1524q-97 -462 -99 -489q2 -16 143 -83q458 -219 458 -705q0 -195 -64 -385q-56 -164 -200 -449q-202 -400 -394.5 -659t-324.5 -308q-60 -22 -97 -22zM2779 -492q5 1 5 3
q0 5 -29 20q-19 10 -39.5 30t-31.5 41q-24 42 -32 42q-2 0 -2 -3q0 -7 14 -35q18 -34 54.5 -65t60.5 -33zM2639 -334q1 0 2 52t1 124.5t3 144.5t7 104t4 44q0 8 -1 8q-2 0 -8 -15q-10 -29 -16 -101.5t-7 -124.5t-1 -71q0 -165 16 -165zM2928 -87q13 0 38 24q21 20 42 49
q135 184 304 502.5t244 530.5q31 86 36.5 125t5.5 78q0 211 -73 326.5t-250 181.5q-20 7 -27 7h-2q-12 -19 -114 -516q-95 -459 -153 -783q-69 -388 -69 -476q0 -49 18 -49zM2670 258q7 9 21 77q5 30 5 49q0 8 -2 8q-4 0 -12 -29q-15 -56 -15 -97q0 -8 2 -8h1zM2698 418
q6 0 7 13q0 7 -3 14.5t-5 7.5q-3 0 -4 -15q0 -20 5 -20zM1505 765q3 0 4 7q0 9 -10.5 26.5t-13.5 17.5q-2 0 -2 -2q0 -7 9 -31q7 -18 13 -18zM2885 1310q7 0 7 13q0 8 -3 15.5t-5 7.5q-3 0 -4 -15q0 -21 5 -21zM2900 1388q6 0 6 21t-6 21q-4 0 -4 -21t4 -21zM2914 1454
q6 0 7 14q0 7 -3 14.5t-5 7.5q-3 0 -4 -15q0 -21 5 -21zM2955 1646q6 0 19 56q16 63 16 87q0 4 -1 5l-1 1q-8 0 -21.5 -51.5t-13.5 -83.5q0 -14 2 -14zM1869 2075q6 0 13 2q39 9 205 33q173 25 551 25q371 2 371 3q0 6 115 553q228 1097 228 1251q0 11 -1 17l-2 1
q-31 0 -307 -281q-121 -123 -219 -233q-481 -548 -816 -1101q-24 -41 -53.5 -87.5t-49.5 -78.5q-46 -70 -46 -93q0 -11 11 -11zM583 1425q-4 0 -4 2q0 3 10 9.5t22.5 10.5t21.5 4t9 -3q0 -4 -16 -11q-32 -12 -43 -12zM1358 1511q-1 0 -1 2q0 4 4 15t8.5 15t6.5 4q5 0 5 -7
q0 -8 -12 -20q-8 -9 -11 -9zM3063 4197q-19 0 -19 22v2q0 22 -14 22l-9 -2q-9 0 -9 13q0 9 4 24q5 23 5 29v2q-3 0 -18 -19t-18 -19q-1 0 -1 6q0 8 3 27q2 9 2 19q0 31 -14 53q-19 31 -28 92q-5 15 -5 42q0 26 43 98q56 94 78 129q52 85 193 326l70 120q14 25 35.5 60.5
t39.5 65.5q6 8 10 15q21 38 33 38t31 -30q21 -34 66 -121q21 -42 113 -210q53 -99 99 -180q104 -187 106 -208t29.5 -56.5t27.5 -55.5q3 -24 24 -64q17 -31 17 -36q0 -2 -1 -2q-3 0 -17.5 13t-18.5 13l-1 -1q0 -4 17 -36q22 -46 22 -60q0 -5 -4 -5q-10 0 -47 39
q-31 37 -39 37q-3 0 -3 -4q0 -11 17 -48q2 -5 2 -9q0 -12 -14 -12q-21 0 -40 22q-10 13 -21 13q-8 0 -14.5 -6t-14.5 -6q-16 0 -64 42q-44 40 -57 40q-2 0 -2 -2q0 -14 14.5 -24.5t14.5 -39.5q0 -25 -13 -25q-33 0 -152 243q-79 153 -95 153q-17 -14 -51 -76
q-64 -111 -193 -319q-53 -86 -71 -112q-22 -29 -34.5 -30.5t-13.5 -1.5zM3405 4806q4 0 9 3t9 10t4 12q0 9 -7 9q-3 0 -8 -3.5t-9.5 -10t-4.5 -12.5q0 -8 7 -8z" />
    <glyph glyph-name="Atilde" unicode="&#xc3;" horiz-adv-x="4021" 
d="M2833 -533q-42 0 -98 30q-65 32 -100 97q-17 29 -24 55q-12 40 -12 219q0 123 12 235.5t50 333.5q91 530 232 1173q35 170 35 198v3q-11 6 -258 6q-280 0 -402 -7q-117 -7 -228 -24q-204 -31 -285 -51.5t-94 -45.5q-31 -51 -110 -313q-32 -105 -46 -172
q-21 -109 -21 -199q0 -75 15 -136q16 -68 18 -101q5 -43 30 -87q17 -26 17 -31v-1q-18 0 -89 126q-38 71 -45 71q-2 0 -2 -16q3 -26 3 -36q0 -13 -3 -13q-11 0 -32 95q-12 62 -12 142q0 33 2 69q2 41 2 66q0 39 -5 39l-2 -1q-13 -23 -13.5 -67.5t-0.5 -54.5q0 -190 29 -279
q22 -71 22 -81v-1q-4 0 -35 75q-42 118 -42 304q0 84 11 164q7 52 14 102.5t10 76t9 54.5t12.5 50t6.5 42t-8 44q-6 16 -11 21.5t-20 5.5q-46 -2 -301 -72q-132 -36 -307 -90q-8 -2 -13 -2q-7 0 -7 4l2 7q0 2 -6 2q-62 0 -473 -167q-59 -24 -88 -34q-67 -25 -80 -34
q-31 -19 -71 -29q-12 -4 -17 -4q-4 0 -4 2q0 18 312 154q298 130 477 190q70 22 70 30q0 1 -3 1q-20 0 -131 -35q-122 -39 -285 -99q-150 -56 -176 -56q-4 0 -4 4t10 4q15 0 42 27q32 30 252 117q219 89 219 106l-1 3q0 35 470 179q83 25 143.5 44t73 23t12.5 10q-1 4 -5 4
q-33 0 -231 -45q-202 -46 -230 -46h-3q0 12 209 77q88 27 172 49q57 14 84 24t38.5 25.5t24.5 46.5q22 50 22 71l-1 8q0 35 136 281q182 329 559 814q256 329 495 589q56 62 78 90q49 60 231 208q78 64 139 108q173 118 288 118q87 0 140 -86q43 -70 44 -177
q-12 -334 -260 -1524q-97 -462 -99 -489q2 -16 143 -83q458 -219 458 -705q0 -195 -64 -385q-56 -164 -200 -449q-202 -400 -394.5 -659t-324.5 -308q-60 -22 -97 -22zM2779 -492q5 1 5 3q0 5 -29 20q-19 10 -39.5 30t-31.5 41q-24 42 -32 42q-2 0 -2 -3q0 -7 14 -35
q18 -34 54.5 -65t60.5 -33zM2639 -334q1 0 2 52t1 124.5t3 144.5t7 104t4 44q0 8 -1 8q-2 0 -8 -15q-10 -29 -16 -101.5t-7 -124.5t-1 -71q0 -165 16 -165zM2928 -87q13 0 38 24q21 20 42 49q135 184 304 502.5t244 530.5q31 86 36.5 125t5.5 78q0 211 -73 326.5t-250 181.5
q-20 7 -27 7h-2q-12 -19 -114 -516q-95 -459 -153 -783q-69 -388 -69 -476q0 -49 18 -49zM2670 258q7 9 21 77q5 30 5 49q0 8 -2 8q-4 0 -12 -29q-15 -56 -15 -97q0 -8 2 -8h1zM2698 418q6 0 7 13q0 7 -3 14.5t-5 7.5q-3 0 -4 -15q0 -20 5 -20zM1505 765q3 0 4 7
q0 9 -10.5 26.5t-13.5 17.5q-2 0 -2 -2q0 -7 9 -31q7 -18 13 -18zM2885 1310q7 0 7 13q0 8 -3 15.5t-5 7.5q-3 0 -4 -15q0 -21 5 -21zM2900 1388q6 0 6 21t-6 21q-4 0 -4 -21t4 -21zM2914 1454q6 0 7 14q0 7 -3 14.5t-5 7.5q-3 0 -4 -15q0 -21 5 -21zM2955 1646q6 0 19 56
q16 63 16 87q0 4 -2 6q-8 0 -21.5 -51.5t-13.5 -83.5q0 -14 2 -14zM1869 2075q6 0 13 2q39 9 205 33q173 25 551 25q371 2 371 3q0 6 115 553q228 1097 228 1251q0 11 -1 17l-2 1q-31 0 -307 -281q-121 -123 -219 -233q-481 -548 -816 -1101q-24 -41 -53.5 -87.5
t-49.5 -78.5q-46 -70 -46 -93q0 -11 11 -11zM583 1425q-4 0 -4 2q0 3 10 9.5t22.5 10.5t21.5 4t9 -3q0 -4 -16 -11q-32 -12 -43 -12zM1358 1511q-1 0 -1 2q0 4 4 15t8.5 15t6.5 4q5 0 5 -7q0 -8 -12 -20q-8 -9 -11 -9zM3658 4399q-52 0 -71 6q-102 31 -241 163
q-137 128 -178 148q-24 11 -48 11q-37 0 -86 -16t-88 -41q-31 -19 -45 -20t-16 -1q-24 0 -34 17q-4 6 -6 6q-4 0 -4 -19q0 -12 -3 -12q-4 0 -35 86q-4 11 -4 33q0 21 4 54q5 48 123 94q95 36 203 36q45 0 81 -8q103 -29 272 -188q107 -98 135 -113q23 -10 49 -10
q58 0 129 51q53 39 59 39q1 0 1 -1q0 -2 -5 -9q-2 -3 -2 -5t2 -2q9 0 40 27q15 11 20 11q3 0 3 -2q0 -9 -21 -41q-18 -29 -18 -35q0 -3 1 -3q6 0 25 17q13 12 20 12t7 -10q0 -8 -6 -22t-6 -23t4.5 -13t4.5 -10q0 -15 -19.5 -50t-19.5 -42v-1q0 -1 1 -1q6 0 30 19
q20 15 27 15q5 0 5 -6q0 -14 -35 -52q-81 -83 -223 -88zM3409 4541q2 0 2 3t-77 74q70 -77 75 -77zM3306 4655q2 0 2 3q0 4 -68 64q60 -67 66 -67z" />
    <glyph glyph-name="Adieresis" unicode="&#xc4;" horiz-adv-x="4032" 
d="M2833 -533q-42 0 -98 30q-65 32 -100 97q-17 29 -24 55q-12 40 -12 219q0 123 12 235.5t50 333.5q91 530 232 1173q35 170 35 198v3q-11 6 -258 6q-280 0 -402 -7q-117 -7 -228 -24q-204 -31 -285 -51.5t-94 -45.5q-31 -51 -110 -313q-32 -105 -46 -172
q-21 -109 -21 -199q0 -75 15 -136q16 -68 18 -101q5 -43 30 -87q17 -26 17 -31v-1q-18 0 -89 126q-38 71 -45 71q-2 0 -2 -8l1 -15q2 -19 2 -29q0 -13 -3 -13q-11 0 -32 95q-12 62 -12 142q0 33 2 69q2 41 2 66q0 39 -5 39l-2 -1q-13 -23 -13.5 -67.5t-0.5 -54.5
q0 -190 29 -279q22 -71 22 -81v-1q-4 0 -35 75q-42 118 -42 304q0 84 11 164q7 52 14 102.5t10 76t9 54.5t12.5 50t6.5 42t-7 40l-3 8q-4 12 -9 17.5t-20 5.5q-27 -1 -138 -30q-51 -11 -163 -42q-132 -36 -307 -90q-8 -2 -13 -2q-7 0 -7 4l2 7q0 2 -6 2q-34 0 -180 -52
q-77 -27 -293 -115q-59 -24 -88 -34q-67 -25 -80 -34q-31 -19 -71 -29q-12 -4 -17 -4q-4 0 -4 2q0 18 312 154q298 130 477 190q70 22 70 30q0 1 -0.5 1h-2.5q-20 0 -131 -35q-122 -39 -285 -99q-150 -56 -176 -56q-1 0 -2.5 1t-1.5 3q0 4 10 4q15 0 42 27q32 30 252 117
q219 89 219 106l-1 3q0 35 470 179q83 25 143.5 44t73 23t12.5 10q0 2 -1.5 3t-3.5 1q-33 0 -231 -45q-202 -46 -230 -46h-3q0 12 209 77q88 27 172 49q57 14 84 24t38.5 25.5t24.5 46.5q22 50 22 71l-1 8q0 35 136 281q182 329 559 814q256 329 495 589q56 62 78 90
q49 60 231 208q78 64 139 108q173 118 288 118q87 0 140 -86q43 -70 44 -177q-12 -334 -260 -1524q-97 -462 -99 -489q2 -16 143 -83q458 -219 458 -705q0 -195 -64 -385q-56 -164 -200 -449q-202 -400 -394.5 -659t-324.5 -308q-60 -22 -97 -22zM2779 -492q5 1 5 3
q0 5 -29 20q-19 10 -39.5 30t-31.5 41q-24 42 -32 42q-2 0 -2 -3q0 -7 14 -35q18 -34 54.5 -65t60.5 -33zM2639 -334q1 0 2 52t1 124.5t3 144.5t7 104t4 44q0 8 -1 8q-2 0 -8 -15q-10 -29 -16 -101.5t-7 -124.5t-1 -71q0 -165 16 -165zM2928 -87q13 0 38 24q21 20 42 49
q135 184 304 502.5t244 530.5q31 86 36.5 125t5.5 78q0 211 -73 326.5t-250 181.5q-20 7 -27 7h-2q-12 -19 -114 -516q-95 -459 -153 -783q-69 -388 -69 -476q0 -49 18 -49zM2670 258q7 9 21 77q5 30 5 49q0 8 -2 8q-4 0 -12 -29q-15 -56 -15 -97q0 -8 2 -8h1zM2698 418
q6 0 7 13q0 7 -3 14.5t-5 7.5q-3 0 -4 -15q0 -20 5 -20zM1505 765q3 0 4 7q0 9 -10.5 26.5t-13.5 17.5q-2 0 -2 -2q0 -7 9 -31q7 -18 13 -18zM2885 1310q7 0 7 13q0 8 -3 15.5t-5 7.5q-3 0 -4 -15q0 -21 5 -21zM2900 1388q6 0 6 21t-6 21q-4 0 -4 -21t4 -21zM2914 1454
q6 0 7 14q0 7 -3 14.5t-5 7.5q-3 0 -4 -15q0 -21 5 -21zM2955 1646q6 0 19 56q16 63 16 87q0 4 -1 5l-1 1q-8 0 -21.5 -51.5t-13.5 -83.5q0 -14 2 -14zM1869 2075q6 0 13 2q39 9 205 33q173 25 551 25q371 2 371 3q0 6 115 553q228 1097 228 1251q0 11 -1 17l-2 1
q-31 0 -307 -281q-121 -123 -219 -233q-481 -548 -816 -1101q-24 -41 -53.5 -87.5t-49.5 -78.5q-46 -70 -46 -93q0 -11 11 -11zM583 1425q-4 0 -4 2q0 3 10 9.5t22.5 10.5t21.5 4t9 -3q0 -4 -16 -11q-32 -12 -43 -12zM1358 1511q-1 0 -1 2q0 4 4 15t8.5 15t6.5 4q5 0 5 -7
q0 -8 -12 -20q-8 -9 -11 -9zM2967 4393q-12 0 -12 8q0 3 2 7t2 7q0 8 -12 8h-3q-8 0 -8 3t13 11t13 24q0 4 -1 7t-1 6q0 18 16.5 31.5t16.5 16.5l-2 1q-4 0 -16 -5l-12 -2q-13 0 -13 11q0 8 16 19q9 8 9 33q0 15 -3 36q-9 78 -9 98q-1 34 -16 50t-27 16q-7 0 -15 -5.5
t-8 -31.5q0 -45 19 -97l1 -8q0 -12 -16 -12q-10 0 -16.5 -4.5t-6.5 -10.5q0 -14 14.5 -14t14.5 -10q0 -8 -7 -16.5t-20.5 -12.5t-22 -12.5t-8.5 -17.5q0 -13 -8.5 -14.5t-16.5 -1.5t-93 10q33 -34 65 -69h-32q-36 0 -82 50t-64 109q-12 46 -12 100q0 116 39 196
q52 98 134.5 141t148.5 43q28 0 56 -7q127 -38 196 -142t69 -210q0 -74 -46 -167q-33 -68 -63 -95q-38 -29 -85 -50q-60 -27 -88 -27zM2750 4991q10 0 48 18q45 21 45 29q0 2 -2 2q-11 0 -48 -19q-45 -22 -45 -29q0 -1 2 -1zM3033 5000q3 0 3 6t-32 22q-20 10 -24 10
q0 -2 20.5 -18t25.5 -18t7 -2zM3699 5000q3 0 3 6t-32 22q-20 10 -24 10q0 -2 20.5 -18t25.5 -18t7 -2zM3416 4991q10 0 48 18q45 21 45 29q0 2 -2 2q-11 0 -48 -19q-45 -22 -45 -29q0 -1 2 -1zM3633 4393q-12 0 -12 8q0 3 2 7t2 7q0 8 -12 8h-3q-8 0 -8 3t13 11t13 24
q0 4 -1 7t-1 6q0 18 16.5 31.5t16.5 16.5l-2 1q-4 0 -16 -5l-12 -2q-13 0 -13 11q0 8 16 19q9 8 9 33q0 15 -3 36q-9 78 -9 98q-1 34 -16 50t-27 16q-7 0 -15 -5.5t-8 -31.5q0 -45 19 -97l1 -8q0 -12 -16 -12q-10 0 -16.5 -4.5t-6.5 -10.5q0 -14 14.5 -14t14.5 -10
q0 -8 -7 -16.5t-20.5 -12.5t-22 -12.5t-8.5 -17.5q0 -13 -8.5 -14.5t-16.5 -1.5t-93 10q33 -34 65 -69h-32q-36 0 -82 50t-64 109q-12 46 -12 100q0 116 39 196q52 98 134.5 141t148.5 43q28 0 56 -7q127 -38 196 -142t69 -210q0 -74 -46 -167q-33 -68 -63 -95
q-38 -29 -85 -50q-60 -27 -88 -27z" />
    </font>
</defs>
</svg>
